<?xml version="1.0" encoding="UTF-8" standalone="no"?><!DOCTYPE svg PUBLIC "-//W3C//DTD SVG 1.1//EN" "http://www.w3.org/Graphics/SVG/1.1/DTD/svg11.dtd"><svg width="100%" height="100%" viewBox="0 0 600 600" version="1.1" xmlns="http://www.w3.org/2000/svg" xmlns:xlink="http://www.w3.org/1999/xlink" xml:space="preserve" xmlns:serif="http://www.serif.com/" style="fill-rule:evenodd;clip-rule:evenodd;stroke-linejoin:round;stroke-miterlimit:2;"><g><path d="M61.74,280.456c-0.556,-3.161 -1.123,-6.179 -1.583,-9.213c-0.451,-2.978 -0.816,-5.97 -1.176,-8.961c-0.34,-2.828 -0.648,-5.66 -0.923,-8.495c-0.17,-1.746 -0.324,-3.499 -0.36,-5.252c-0.135,-6.482 -0.294,-12.966 -0.287,-19.449c0.003,-3.118 0.354,-6.237 0.554,-9.356c0.109,-1.696 0.21,-3.393 0.352,-5.087c0.223,-2.677 0.397,-5.361 0.739,-8.023c0.439,-3.421 0.93,-6.841 1.566,-10.23c1.083,-5.764 2.128,-11.544 3.487,-17.246c4.531,-19.019 11.532,-37.114 20.697,-54.379c8.077,-15.216 17.744,-29.344 28.928,-42.443c15.109,-17.698 32.457,-32.825 52.068,-45.353c19.825,-12.664 41.099,-22.083 63.761,-28.371c9.427,-2.616 18.977,-4.674 28.673,-5.994c4.675,-0.636 9.37,-1.134 14.063,-1.622c8.268,-0.86 16.567,-1.124 24.87,-0.913c5.049,0.129 10.099,0.483 15.133,0.922c5.083,0.442 10.176,0.925 15.21,1.733c6.229,1 12.443,2.169 18.589,3.591c13.784,3.192 27.146,7.701 40.129,13.345c22.321,9.703 42.604,22.599 60.882,38.66c15.627,13.732 29.247,29.229 40.732,46.573c14.572,22.004 25.201,45.777 31.775,71.352c1.887,7.341 3.493,14.737 4.573,22.24c0.679,4.72 1.397,9.438 1.887,14.179c0.4,3.873 0.565,7.775 0.698,11.669c0.182,5.328 0.339,10.662 0.307,15.992c-0.023,3.784 -0.35,7.569 -0.591,11.35c-0.196,3.066 -0.391,6.135 -0.722,9.189c-0.372,3.432 -0.821,6.861 -1.37,10.27c-1.117,6.935 -2.486,13.823 -4.198,20.639c-6.804,27.075 -17.953,52.201 -33.661,75.301c-14.994,22.051 -33.284,40.921 -54.673,56.797c-19.12,14.192 -39.976,25.132 -62.451,32.987c-9.858,3.445 -19.918,6.176 -30.148,8.242c-5.204,1.051 -10.456,1.885 -15.711,2.649c-3.519,0.512 -7.076,0.78 -10.624,1.064c-3.551,0.284 -7.121,0.352 -10.665,0.696c-5.821,0.565 -11.648,0.333 -17.467,0.216c-4.266,-0.085 -8.527,-0.546 -12.785,-0.9c-3.601,-0.3 -7.21,-0.57 -10.788,-1.059c-7.437,-1.015 -14.822,-2.342 -22.137,-4.049c-22.958,-5.355 -44.611,-13.988 -64.981,-25.839c-25.143,-14.629 -46.847,-33.266 -65.073,-55.942c-16.016,-19.925 -28.495,-41.858 -37.314,-65.861c-4.249,-11.566 -7.522,-23.406 -9.985,-35.619m277.954,145.735c0.108,-0.001 0.218,0.011 0.324,-0.005c2.298,-0.334 2.849,-1.467 1.589,-3.356c-1.43,-2.142 -2.891,-4.263 -4.356,-6.382c-1.595,-2.307 -3.578,-4.1 -6.293,-5.072c-1.114,-0.399 -2.162,-1.095 -3.11,-1.825c-4.991,-3.845 -9.965,-7.711 -14.883,-11.647c-1.055,-0.844 -1.872,-1.992 -2.764,-3.03c-0.744,-0.866 -0.743,-1.818 -0.084,-2.725c0.708,-0.972 1.418,-1.953 2.228,-2.837c2.19,-2.388 4.575,-4.611 6.617,-7.116c2.105,-2.584 3.964,-5.38 5.808,-8.164c2.555,-3.857 3.962,-8.173 4.64,-12.726c0.217,-1.457 0.269,-2.94 0.38,-4.412c0.208,-2.779 0.438,-5.558 0.584,-8.341c0.039,-0.75 -0.307,-1.519 -0.272,-2.27c0.094,-2.057 -0.204,-4.063 -0.783,-6.006c-0.336,-1.129 -0.043,-1.91 0.699,-2.674c0.459,-0.473 0.947,-0.933 1.319,-1.47c1.81,-2.614 3.669,-5.2 5.355,-7.893c3.332,-5.322 6.064,-10.943 8.07,-16.907c1.415,-4.207 2.717,-8.438 3.625,-12.794c0.624,-2.997 1.589,-5.922 2.249,-8.912c0.764,-3.463 1.792,-6.883 1.922,-10.469c0.035,-0.978 0.219,-1.954 0.381,-2.923c0.497,-2.969 0.988,-5.936 0.92,-8.963c-0.017,-0.769 -0.158,-1.59 0.051,-2.301c0.715,-2.428 0.166,-4.862 -0.238,-7.171c-0.382,-2.184 -0.813,-4.396 -1.318,-6.572c-0.805,-3.464 -1.755,-6.895 -2.659,-10.336c-0.256,-0.976 -0.564,-1.939 -0.848,-2.908c0.621,0.042 1.02,0.212 1.313,0.493c1.182,1.133 2.268,2.373 3.504,3.44c2.571,2.217 5.229,4.334 7.821,6.527c0.668,0.565 1.204,0.483 1.68,-0.137c0.498,-0.65 0.909,-1.367 1.375,-2.043c4.962,-7.2 9.221,-14.816 13.281,-22.546c1.583,-3.013 3.002,-6.111 4.608,-9.111c1.968,-3.677 4.051,-7.294 6.089,-10.934c1.367,-2.442 2.782,-4.859 4.103,-7.326c1.761,-3.289 3.522,-6.582 5.143,-9.941c0.827,-1.712 1.541,-3.529 1.961,-5.377c0.604,-2.656 1.004,-5.373 1.276,-8.085c0.18,-1.792 0.184,-3.653 -0.092,-5.427c-0.515,-3.313 -0.25,-6.341 2.116,-8.931c0.738,-0.809 1.422,-1.668 2.165,-2.472c1.333,-1.444 2.342,-3.105 2.703,-5.012c0.208,-1.097 0.749,-1.685 1.536,-2.353c2.129,-1.81 4.329,-3.608 4.644,-6.714c0.116,-1.141 0.874,-1.67 2.017,-1.79c1.521,-0.16 3.032,-0.415 4.546,-0.635c1.585,-0.231 3,-0.746 3.718,-2.343c0.272,-0.605 0.69,-0.873 1.359,-1.018c1.706,-0.369 3.446,-0.707 5.058,-1.347c2.152,-0.854 4.143,-2.056 5.367,-4.162c0.133,-0.23 0.108,-0.553 0.187,-1.004c-2.7,0.568 -5.187,1.391 -7.713,1.538c-2.533,0.147 -5.031,1.002 -7.612,0.645c-0.173,-1.12 -0.306,-2.092 -0.476,-3.058c-0.493,-2.811 -1.073,-5.613 -2.367,-8.179c-2.99,-5.927 -7.6,-10.149 -13.73,-12.682c-1.157,-0.479 -2.371,-0.937 -3.676,-0.724c-1.265,0.207 -2.093,-0.428 -2.784,-1.355c-0.295,-0.395 -0.566,-0.811 -0.827,-1.23c-1.686,-2.703 -3.988,-4.67 -7.015,-5.693c-3.074,-1.038 -6.154,-1.102 -9.085,0.467c-0.95,0.508 -1.978,1.141 -2.572,1.994c-1.51,2.168 -3.693,3.221 -5.999,4.151c-0.918,0.37 -1.747,0.835 -2.481,1.684c1.184,1.424 2.557,2.484 4.115,3.292c0.743,0.386 1.109,0.83 1.262,1.72c0.28,1.623 0.815,3.256 2.06,4.408c0.942,0.872 0.775,1.573 0.315,2.587c-0.925,2.041 -1.682,4.158 -2.516,6.241c-0.245,0.614 -0.352,1.162 0.394,1.436c0.91,-0.223 1.161,-1.362 2.156,-1.417l-0,8.565c-1.151,0.688 -2.396,1.02 -3.756,0.876c-1.137,-0.12 -2.189,0.207 -3.163,0.74c-1.829,1.001 -3.721,1.923 -5.422,3.114c-1.969,1.377 -3.808,2.954 -5.612,4.548c-1.082,0.956 -0.775,2.122 0.584,2.615c1.393,0.506 2.825,0.909 4.207,1.441c2.407,0.928 4.818,1.879 6.879,3.478c0.584,0.452 1.424,1.126 1.416,1.688c-0.024,1.759 0.839,3.04 1.78,4.323c0.49,0.669 0.239,1.133 -0.275,1.552c-1.485,1.212 -2.938,2.471 -4.496,3.58c-1.418,1.008 -1.645,1.417 -0.661,2.907c0.507,0.768 0.44,1.242 -0.177,1.84c-1.54,1.494 -3.034,3.036 -4.57,4.534c-0.282,0.275 -0.673,0.437 -1.14,0.731c-0.329,-1.259 -0.584,-2.306 -0.878,-3.342c-0.296,-1.044 -0.49,-2.167 -1.916,-2.751c-0.425,0.439 -0.939,0.892 -1.361,1.418c-1.199,1.495 -2.339,3.037 -3.547,4.523c-0.514,0.631 -1.197,1.051 -2.155,1.094c0,-0.881 0.034,-1.65 -0.007,-2.414c-0.088,-1.639 -0.172,-3.279 -0.341,-4.91c-0.144,-1.395 -0.953,-2.233 -2.118,-1.937c-1.293,0.329 -2.491,0.08 -3.724,-0.063c-2.636,-0.306 -4.906,-1.656 -6.509,-3.531c-2.69,-3.146 -4.723,-6.755 -4.479,-11.173c0.006,-0.108 -0.012,-0.219 -0.023,-0.328c-0.318,-3.207 -0.639,-6.413 -0.952,-9.619c-0.083,-0.855 -0.142,-1.712 -0.247,-2.995c0.572,0.559 0.904,0.863 1.212,1.188c0.754,0.796 1.474,1.628 2.264,2.387c0.185,0.177 0.654,0.249 0.881,0.139c0.225,-0.109 0.462,-0.529 0.429,-0.778c-0.16,-1.243 -0.323,-2.497 -0.644,-3.704c-0.478,-1.801 -1.166,-3.546 -1.623,-5.351c-0.51,-2.009 -0.899,-4.052 -1.27,-6.093c-0.252,-1.393 -0.271,-2.836 -0.597,-4.208c-0.366,-1.539 -0.921,-3.04 -1.473,-4.528c-0.274,-0.739 -0.132,-1.125 0.48,-1.664c2.844,-2.509 5.546,-5.174 7.842,-8.206c0.777,-1.026 1.747,-1.599 2.942,-1.961c0.992,-0.301 2.054,-0.576 2.885,-1.151c1.48,-1.026 2.889,-2.188 4.186,-3.44c3.087,-2.981 6.194,-5.953 9.099,-9.107c2.468,-2.682 4.321,-5.751 4.007,-9.658c-0.053,-0.655 0.001,-1.32 -0.006,-1.98c-0.019,-1.65 -0.612,-2.293 -2.249,-2.368c-0.933,-0.042 -1.871,-0.032 -2.806,-0.004c-1.781,0.053 -3.652,-0.384 -5.216,0.929c-0.108,0.09 -0.321,0.047 -0.482,0.081c-2.34,0.495 -4.669,0.406 -7.018,0.004c-2.245,-0.384 -2.737,-0.787 -2.677,-3.078c0.078,-2.975 -0.137,-5.929 -0.729,-8.823c-0.452,-2.21 -1.677,-3.953 -3.898,-4.964c-2.339,-1.066 -4.616,-2.298 -6.817,-3.629c-1.201,-0.726 -2.242,-1.752 -3.257,-2.743c-1.215,-1.186 -2.297,-2.508 -3.497,-3.71c-0.368,-0.369 -0.913,-0.689 -1.416,-0.764c-0.873,-0.132 -1.34,-0.677 -1.809,-1.297c-2.131,-2.815 -3.733,-5.94 -5.373,-9.049c-1.306,-2.473 -2.715,-4.894 -4.119,-7.314c-0.953,-1.643 -2.166,-2.817 -4.28,-1.901c-0.048,0.021 -0.109,0.017 -0.163,0.018c-3.791,0.108 -7.571,-0.029 -11.342,-0.428c-1.738,-0.184 -3.48,-0.555 -5.213,-0.519c-8.668,0.181 -17.347,-0.552 -26.011,0.549c-3.085,0.392 -5.882,1.196 -8.401,2.95c-1.165,0.811 -2.302,1.691 -3.329,2.669c-2.102,2.003 -4.17,4.048 -6.159,6.163c-1.575,1.675 -2.984,3.505 -4.516,5.222c-2.299,2.579 -4.642,5.119 -6.966,7.677c-0.074,0.081 -0.136,0.172 -0.206,0.258c-1.795,2.209 -3.576,4.43 -5.391,6.623c-1.363,1.647 -2.799,3.233 -4.15,4.889c-2.528,3.097 -4.623,6.512 -7.205,9.588c-2.212,2.634 -3.976,5.645 -5.948,8.481c-2.752,3.957 -5.418,7.979 -8.301,11.837c-2.128,2.847 -4.532,5.489 -6.847,8.194c-0.427,0.5 -0.652,0.982 -0.574,1.634c0.335,2.819 0.68,5.637 0.969,8.462c0.166,1.633 0.224,3.277 0.345,4.914c0.206,2.781 0.431,5.559 0.633,8.34c0.134,1.856 0.218,3.716 0.368,5.571c0.1,1.252 0.235,2.504 0.427,3.744c0.39,2.512 0.132,5.018 0.154,7.589c-2.443,0.436 -4.701,1.045 -6.767,2.242c-1.915,1.109 -3.815,2.276 -5.026,4.166c-1.784,2.787 -2.617,5.768 -2.114,9.202c0.416,2.836 1.831,4.878 4.06,6.266c3.241,2.019 6.815,2.006 10.257,0.494c1.526,-0.67 2.886,-1.783 4.211,-2.835c2.774,-2.203 4.761,-4.91 5.43,-8.52c0.802,-4.329 -1.376,-8.383 -5.475,-9.851c-0.259,-0.093 -0.52,-0.178 -0.777,-0.275c-1.112,-0.419 -1.272,-0.671 -1.009,-1.839c0.707,-3.147 1.413,-6.296 2.167,-9.432c0.869,-3.617 1.785,-7.224 2.69,-10.833c1.346,-5.361 2.719,-10.715 4.035,-16.083c0.281,-1.143 0.999,-1.587 2.048,-1.8c1.339,-0.272 2.679,-0.559 3.993,-0.929c4.273,-1.206 8.542,-2.424 12.796,-3.693c4.309,-1.285 8.687,-2.401 12.656,-4.612c0.817,-0.456 1.374,-0.345 2.013,0.325c1.46,1.531 3.183,2.677 5.241,3.283c0.272,0.08 0.493,0.332 0.962,0.662c-1.233,0.574 -2.226,1.124 -3.28,1.502c-1.169,0.418 -1.955,1.217 -2.524,2.234c-1.073,1.917 -2.115,3.854 -3.098,5.819c-2.905,5.802 -6.382,11.266 -9.818,16.756c-0.873,1.395 -1.936,2.706 -2.589,4.197c-1.761,4.014 -3.394,8.086 -4.989,12.169c-1.421,3.636 -2.11,7.478 -2.914,11.28c-0.911,4.311 -2.139,8.508 -4.165,12.44c-1.28,2.485 -2.64,4.931 -3.853,7.448c-0.808,1.676 -1.381,3.465 -2.131,5.172c-1.171,2.664 -2.377,5.314 -3.617,7.947c-1.334,2.833 -2.523,5.762 -4.134,8.433c-2.791,4.632 -5.008,9.535 -7.263,14.419c-2.881,6.243 -6.074,12.312 -9.595,18.212c-0.627,1.052 -1.234,2.08 -0.649,3.392c0.165,0.372 0.064,0.868 0.064,1.308c0.004,2.751 -0.035,5.503 0.011,8.253c0.082,4.884 0.214,9.768 0.328,14.651c0.006,0.274 0.024,0.55 0.064,0.821c0.299,1.998 0.703,3.986 0.889,5.994c0.397,4.26 1.246,8.438 2.243,12.58c1.302,5.407 3.33,10.563 5.766,15.56c0.36,0.739 0.663,1.506 1.008,2.253c0.375,0.812 0.293,1.571 -0.101,2.37c-0.778,1.575 -1.475,3.19 -2.241,4.772c-2.27,4.683 -2.321,9.4 -0.253,14.155c0.633,1.456 1.35,2.877 1.923,4.356c0.199,0.513 0.215,1.186 0.076,1.725c-0.4,1.559 -1.459,2.692 -2.743,3.586c-3.508,2.443 -7.001,4.913 -10.579,7.25c-3.128,2.043 -6.286,4.036 -8.866,6.771c-1.956,2.073 -3.903,4.167 -5.681,6.391c-1.468,1.838 -2.759,3.856 -3.352,6.179c-0.289,1.136 -0.678,2.242 -0.454,3.528c0.538,3.095 2.368,5.292 4.698,7.105c2.652,2.064 5.6,3.699 8.691,5.01c1.706,0.723 3.529,1.18 5.313,1.708c2.782,0.823 5.648,0.675 8.498,0.654c3.925,-0.03 7.269,-1.512 10.035,-4.241c1.738,-1.715 2.945,-3.814 3.869,-6.072c0.261,-0.638 0.569,-1.257 0.966,-2.127c1.692,1.703 3.263,3.15 4.675,4.737c2.038,2.292 3.988,4.631 6.32,6.672c3.441,3.012 7.092,5.476 11.612,6.541c2.308,0.545 3.859,3.249 3.379,5.608c-0.229,1.125 -0.502,2.242 -0.792,3.353c-1.19,4.559 -2.08,9.168 -2.396,13.879c-0.099,1.472 -0.245,2.943 -0.395,4.411c-0.178,1.74 -0.386,3.476 -0.579,5.214c-0.175,1.576 -0.374,3.151 -0.514,4.73c-0.174,1.961 -0.371,3.926 -0.42,5.893c-0.033,1.304 0.178,2.614 0.275,3.922c0.147,1.991 1.313,3.401 3.225,3.839c0.422,0.096 0.872,0.075 1.31,0.098c1.969,0.103 3.939,0.183 5.907,0.309c1.309,0.084 2.612,0.278 3.922,0.341c2.958,0.143 5.919,0.235 8.878,0.349c0.11,0.004 0.22,0.01 0.33,0.018c3.003,0.212 6.006,0.427 9.01,0.634c0.383,0.027 0.771,-0.005 1.155,0.02c3.33,0.209 6.659,0.573 9.991,0.604c4.333,0.04 8.667,-0.191 13.001,-0.291c8.459,-0.197 16.924,0.328 25.384,-0.287c2.442,-0.178 4.922,0.168 7.385,0.261c0.659,0.025 1.323,0.036 1.98,-0.007c3.056,-0.197 6.108,-0.476 9.167,-0.599c1.356,-0.055 2.722,0.234 4.087,0.287c1.429,0.055 2.861,0.013 4.597,0.012Z" style="fill:#7f1900;fill-rule:nonzero;"/><path d="M445.126,552.808c-2.272,-2.862 -4.034,-5.908 -5.47,-9.123c-2.036,-4.558 -1.792,-9.322 -0.991,-14.103c0.073,-0.434 0.16,-0.866 0.238,-1.298c0.134,-0.749 0.012,-1.405 -0.593,-1.945c-1.209,-1.081 -1.412,-2.509 -1.003,-3.94c0.372,-1.305 0.873,-2.634 1.606,-3.765c3.699,-5.702 7.99,-10.926 13.336,-15.164c4.105,-3.256 8.841,-5.057 14.116,-5.287c1.644,-0.072 3.309,-0.229 4.932,-0.054c2.974,0.322 5.587,1.723 7.905,3.503c2.611,2.006 4.945,4.313 6.761,7.144c2.295,3.577 3.391,7.49 3.787,11.643c0.654,6.842 -1.187,13.106 -4.803,18.824c-3.642,5.76 -8.131,10.789 -13.828,14.646c-3.881,2.628 -8.071,4.539 -12.759,5.034c-4.663,0.492 -8.659,-1.028 -11.82,-4.567c-0.44,-0.492 -0.889,-0.975 -1.414,-1.548m17.774,-44.878c-0.202,0.088 -0.397,0.202 -0.607,0.258c-1.411,0.377 -2.306,1.245 -3.038,2.542c-2.024,3.583 -4.184,7.091 -6.338,10.599c-1.535,2.499 -2.78,5.132 -3.588,7.94c-0.869,3.021 -1.557,6.121 -0.477,9.227c1.074,3.091 2.82,5.81 4.97,8.287c1.333,1.537 2.909,1.76 4.77,1.342c2.862,-0.643 5.31,-2.115 7.591,-3.84c2.632,-1.991 4.998,-4.284 7.011,-6.926c1.934,-2.539 3.803,-5.089 4.893,-8.149c1.132,-3.177 1.506,-6.385 0.99,-9.72c-0.657,-4.244 -2.928,-7.528 -6.085,-10.263c-1.031,-0.893 -2.176,-1.765 -3.623,-1.82c-2.083,-0.081 -4.182,-0.219 -6.469,0.523Z" style="fill:#982e12;fill-rule:nonzero;"/><path d="M0.335,547.018c-0.066,-8.36 -0.122,-16.556 -0.196,-24.753c-0.032,-3.465 -0.151,-6.931 -0.138,-10.397c0.007,-1.973 0.181,-3.947 0.324,-5.917c0.035,-0.484 0.191,-0.976 0.376,-1.43c1.235,-3.03 4.58,-3.49 6.555,-0.886c1.191,1.571 1.809,3.436 2.091,5.333c0.637,4.294 1.217,8.604 1.605,12.926c0.639,7.121 1.105,14.258 1.653,21.387c0.113,1.473 0.297,1.587 1.735,1.333c4.222,-0.749 8.423,-1.703 12.676,-2.172c5.131,-0.565 10.305,-0.762 15.466,-1.006c1.173,-0.055 2.432,0.179 3.54,0.585c2.121,0.776 3.431,2.376 3.67,4.668c0.232,2.228 -0.745,3.95 -2.528,5.228c-1.143,0.819 -2.422,1.256 -3.848,1.304c-4.453,0.15 -8.903,0.387 -13.357,0.486c-4.393,0.098 -8.593,1.214 -12.816,2.231c-2.834,0.684 -5.645,1.462 -8.478,2.148c-3.213,0.777 -6.128,-0.321 -7.522,-2.983c-0.514,-0.981 -0.731,-2.182 -0.823,-3.304c-0.124,-1.528 0.001,-3.077 0.015,-4.781Z" style="fill:#982f12;fill-rule:nonzero;"/><path d="M149.652,526.595c0.034,8.184 0.072,16.209 0.084,24.234c0.003,1.688 -0.351,3.265 -1.62,4.53c-2.008,2.002 -5.046,1.608 -6.37,-0.912c-0.349,-0.664 -0.492,-1.446 -0.665,-2.19c-0.098,-0.422 -0.078,-0.875 -0.085,-1.314c-0.115,-6.486 -0.22,-12.971 -0.339,-19.456c-0.098,-5.331 -0.175,-10.663 -0.333,-15.992c-0.101,-3.403 -0.331,-6.802 -0.507,-10.202c-0.061,-1.185 -0.189,-1.343 -1.347,-1.362c-1.704,-0.028 -3.409,0.005 -5.114,-0.002c-2.403,-0.01 -4.688,-0.588 -6.863,-1.568c-2.899,-1.306 -3.457,-4.541 -1.192,-6.769c1.285,-1.264 2.93,-1.713 4.648,-1.884c10.343,-1.032 20.699,-1.786 31.108,-1.317c1.371,0.062 2.752,-0.063 4.122,0.013c2.331,0.129 4.285,1.003 5.401,3.194c1.766,3.467 -0.284,7.681 -4.26,8.323c-2.251,0.363 -4.597,0.186 -6.899,0.174c-3.628,-0.017 -7.255,-0.105 -10.882,-0.148c-0.314,-0.003 -0.628,0.107 -0.996,0.174c-0.05,0.318 -0.149,0.585 -0.122,0.838c0.548,5.191 1.119,10.38 1.668,15.571c0.208,1.967 0.372,3.938 0.563,6.065Z" style="fill:#9a3115;fill-rule:nonzero;"/><path d="M337.093,506.911c0.747,6.2 1.313,12.272 1.388,18.381c0.104,8.519 0.243,17.036 0.318,25.555c0.009,1.081 -0.141,2.206 -0.454,3.239c-0.556,1.828 -2.137,2.892 -3.971,2.898c-1.812,0.006 -3.398,-1.077 -4.011,-2.868c-0.316,-0.922 -0.451,-1.906 -0.663,-2.838c-0.702,-0.33 -1.082,0.171 -1.472,0.512c-1.837,1.608 -4.038,2.443 -6.364,2.96c-4.495,0.998 -9.367,-2.045 -10.756,-6.645c-0.651,-2.156 -0.582,-4.359 -0.325,-6.543c0.344,-2.915 1.265,-5.661 2.614,-8.287c1.96,-3.81 5.049,-6.309 8.907,-7.946c1.783,-0.757 3.658,-0.632 5.522,-0.314c0.477,0.081 0.947,0.211 1.646,0.369c0.072,-0.675 0.186,-1.239 0.184,-1.803c-0.015,-5.277 -0.066,-10.554 -0.065,-15.831c-0,-0.98 0.078,-1.985 0.303,-2.936c0.427,-1.806 1.752,-2.925 3.297,-2.962c1.517,-0.037 2.738,0.898 3.359,2.674c0.252,0.721 0.351,1.495 0.543,2.385m-12.517,39.054c0.352,-0.262 0.687,-0.552 1.06,-0.782c3.864,-2.385 4.977,-5.926 4.285,-10.213c-0.461,-2.859 -3.615,-4.39 -6.043,-2.878c-1.786,1.111 -3.33,2.487 -4.251,4.476c-0.909,1.964 -1.598,3.978 -1.766,6.139c-0.076,0.976 -0.166,1.989 0.008,2.938c0.36,1.961 1.822,2.791 3.671,2.08c1.008,-0.388 1.905,-1.063 3.036,-1.76Z" style="fill:#993115;fill-rule:nonzero;"/><path d="M206.851,552.992c-0.172,1.006 -0.232,1.902 -0.508,2.725c-0.613,1.83 -2.168,2.832 -3.905,2.65c-1.645,-0.172 -3.055,-1.61 -3.281,-3.433c-0.208,-1.69 -0.418,-3.386 -0.501,-5.085c-0.183,-3.734 -0.297,-7.471 -0.417,-11.207c-0.124,-3.846 -0.277,-7.693 -0.311,-11.541c-0.025,-2.801 0.096,-5.605 0.202,-8.405c0.072,-1.876 1.156,-3.157 2.633,-3.274c1.351,-0.107 2.29,0.572 2.699,1.74c0.541,1.543 0.863,3.164 1.251,4.758c0.121,0.495 0.15,1.012 0.221,1.519c0.125,0.034 0.251,0.069 0.376,0.104c0.345,-0.381 0.703,-0.75 1.032,-1.144c0.707,-0.843 1.35,-1.744 2.106,-2.538c1.387,-1.455 2.995,-2.593 5.001,-3.046c1.447,-0.326 2.892,-0.676 4.352,-0.939c5.527,-0.993 11.448,3.475 12.919,8.35c2.127,7.048 2.077,14.207 1.432,21.422c-0.069,0.766 -0.148,1.533 -0.265,2.293c-0.109,0.702 -0.193,1.427 -0.435,2.088c-0.606,1.655 -2.12,2.577 -3.736,2.372c-1.68,-0.214 -3.014,-1.574 -3.118,-3.343c-0.065,-1.092 -0.04,-2.212 0.122,-3.293c0.741,-4.931 0.708,-9.872 0.174,-14.806c-0.17,-1.57 -0.594,-3.145 -1.131,-4.635c-0.883,-2.448 -3.263,-3.411 -5.833,-3.093c-3.377,0.419 -5.404,2.43 -6.649,5.24c-1.061,2.393 -1.916,4.947 -2.383,7.516c-0.685,3.778 -0.94,7.634 -1.384,11.455c-0.209,1.803 -0.432,3.604 -0.663,5.55Z" style="fill:#9a3215;fill-rule:nonzero;"/><path d="M565.465,555.246c-4.528,-2.031 -7.129,-6.625 -6.539,-11.405c0.411,-3.34 1.447,-6.425 3.724,-8.993c1.819,-2.051 3.999,-3.68 6.546,-4.603c3.193,-1.157 6.5,-2 9.76,-2.967c0.314,-0.093 0.649,-0.153 0.975,-0.157c5.699,-0.061 11.212,0.815 16.044,4.015c3.141,2.079 4.459,5.224 3.9,9.009c-0.603,4.079 -2.803,7.231 -5.994,9.709c-1.558,1.21 -3.208,2.31 -4.877,3.364c-6.639,4.193 -13.756,4.869 -21.224,2.773c-0.74,-0.207 -1.466,-0.465 -2.315,-0.745m7.036,-7.121c3.087,0.487 6.113,0.334 9.089,-0.719c3.164,-1.118 5.754,-3.171 8.374,-5.142c0.772,-0.581 1.244,-1.658 1.656,-2.594c0.498,-1.134 0.2,-1.695 -0.917,-2.252c-0.34,-0.169 -0.711,-0.333 -1.082,-0.373c-2.719,-0.288 -5.441,-0.745 -8.164,-0.757c-3.158,-0.013 -6.159,1.018 -8.994,2.377c-1.066,0.512 -2.038,1.294 -2.921,2.098c-1.195,1.087 -1.632,2.583 -1.717,4.158c-0.074,1.358 0.395,2.049 1.683,2.479c0.88,0.295 1.803,0.46 2.993,0.725Z" style="fill:#993014;fill-rule:nonzero;"/><path d="M346.695,532.248c4.559,-4.928 10.089,-6.866 16.59,-5.862c2.667,0.412 4.887,1.942 7.028,3.476c1.271,0.91 1.737,2.374 1.84,3.91c0.229,3.397 -1.426,6.049 -4.685,7.363c-3.515,1.419 -7.065,2.752 -10.595,4.136c-0.851,0.334 -1.681,0.725 -2.589,1.119c0.665,1.351 1.73,1.701 2.89,1.841c2.25,0.271 4.366,-0.172 6.367,-1.243c1.55,-0.83 3.093,-1.692 4.711,-2.367c0.876,-0.365 1.94,-0.625 2.853,-0.488c3.073,0.462 4.37,3.811 2.461,6.284c-0.587,0.761 -1.394,1.444 -2.243,1.893c-2.423,1.282 -4.832,2.678 -7.407,3.566c-4.228,1.46 -8.595,1.584 -12.635,-0.633c-4.062,-2.23 -6.915,-5.627 -8.02,-10.203c-1.008,-4.178 -0.128,-8.062 2.446,-11.533c0.295,-0.397 0.613,-0.776 0.988,-1.259m9.059,6.211c2.211,-0.811 4.429,-1.604 6.628,-2.446c0.674,-0.258 1.296,-0.651 2.057,-1.041c-3.287,-2.113 -11.465,1.136 -11.997,4.656c1.144,-0.111 2.09,-0.659 3.312,-1.169Z" style="fill:#993114;fill-rule:nonzero;"/><path d="M63.598,555.142c-1.341,0.027 -2.563,0.182 -3.743,0.021c-3.959,-0.54 -6.574,-3.412 -6.943,-7.422c-0.414,-4.494 0.668,-8.609 3.064,-12.409c1.927,-3.056 4.409,-5.609 7.173,-7.897c2.532,-2.096 5.46,-2.962 8.741,-2.734c3.379,0.236 5.829,2.188 6.53,5.504c0.419,1.983 0.642,4.014 0.847,6.034c0.443,4.359 1.563,8.529 3.282,12.551c0.322,0.753 0.614,1.542 0.756,2.343c0.375,2.11 -0.544,3.896 -2.368,4.807c-1.685,0.842 -3.733,0.501 -5.055,-1.142c-0.949,-1.179 -1.58,-2.616 -2.336,-3.948c-0.261,-0.46 -0.472,-0.948 -0.831,-1.68c-0.576,0.58 -1.004,0.963 -1.377,1.393c-2.04,2.349 -4.438,4.092 -7.74,4.579m-0.971,-7.704c1.634,-0.301 2.66,-1.455 3.659,-2.633c2,-2.36 3.047,-5.192 3.847,-8.112c0.277,-1.008 0.381,-2.123 -0.218,-3.326c-0.504,0.311 -0.964,0.498 -1.298,0.817c-1.347,1.288 -2.756,2.531 -3.953,3.949c-1.907,2.258 -3.175,4.86 -3.528,7.844c-0.141,1.192 -0.022,1.331 1.491,1.461Z" style="fill:#993014;fill-rule:nonzero;"/><path d="M185.915,557.438c-1.579,-0.487 -2.556,-1.47 -3.212,-2.821c-0.619,-1.277 -1.257,-2.545 -2.009,-4.063c-0.559,0.514 -0.975,0.905 -1.4,1.284c-1.145,1.018 -2.225,2.129 -3.458,3.027c-2.141,1.558 -4.651,1.949 -7.23,1.786c-4.29,-0.272 -7.354,-3.294 -7.756,-7.59c-0.527,-5.627 1.256,-10.546 4.846,-14.795c1.659,-1.964 3.529,-3.773 5.448,-5.492c2.869,-2.571 6.324,-3.138 10.038,-2.505c2.551,0.435 4.133,2.032 4.899,4.377c0.455,1.395 0.669,2.895 0.803,4.365c0.487,5.353 1.585,10.545 3.77,15.481c0.2,0.451 0.362,0.924 0.485,1.402c0.909,3.532 -1.493,6.151 -5.224,5.544m-11.117,-12.034c1.483,-2.141 2.51,-4.494 3.201,-6.995c0.322,-1.164 0.367,-2.335 0.024,-3.512c-4.024,0.924 -9.344,9.223 -8.805,13.592c1.323,0.456 2.333,0.285 3.432,-0.726c0.723,-0.665 1.343,-1.441 2.148,-2.359Z" style="fill:#993014;fill-rule:nonzero;"/><path d="M548.793,538.983c1.492,0.945 2.983,1.705 4.23,2.755c2.618,2.204 2.978,6.134 1.06,8.984c-1.454,2.161 -3.579,3.362 -5.877,4.351c-3.314,1.428 -6.841,2.032 -10.362,2.675c-1.4,0.256 -2.77,0.671 -4.16,0.988c-0.747,0.17 -1.503,0.381 -2.261,0.406c-2.237,0.075 -3.861,-1.081 -4.53,-3.117c-0.617,-1.88 0.153,-3.992 1.972,-5.155c1.731,-1.106 3.62,-1.86 5.662,-2.173c2.066,-0.317 4.142,-0.573 6.202,-0.922c1.115,-0.189 2.266,-0.358 3.177,-1.085c0.002,-0.825 -0.625,-0.907 -1.103,-1.105c-3.354,-1.383 -6.717,-2.743 -10.07,-4.129c-0.76,-0.315 -1.54,-0.626 -2.224,-1.073c-4.243,-2.774 -5.256,-7.505 -2.535,-11.794c1.117,-1.76 2.161,-3.58 3.969,-4.789c1.741,-1.165 3.617,-1.911 5.72,-1.809c1.747,0.085 3.517,0.203 5.22,0.572c1.804,0.391 3.342,1.388 4.436,2.952c0.826,1.18 1.014,2.436 0.342,3.733c-0.661,1.277 -1.75,2.023 -3.195,1.948c-1.029,-0.054 -2.037,-0.426 -3.067,-0.547c-1.021,-0.12 -2.076,-0.247 -3.083,-0.114c-1.526,0.2 -2.373,1.227 -2.659,2.803c4.167,2.331 8.718,3.681 13.136,5.645Z" style="fill:#9a3115;fill-rule:nonzero;"/><path d="M244.714,532.626c1.748,-1.509 3.299,-3.105 5.104,-4.325c3.018,-2.038 6.418,-2.274 9.786,-1.028c2.27,0.84 3.499,2.802 3.955,5.125c0.36,1.828 0.501,3.701 0.703,5.558c0.447,4.126 1.442,8.108 3.012,11.952c0.414,1.014 0.827,2.047 1.069,3.11c0.448,1.97 -0.419,3.722 -2.192,4.722c-1.55,0.875 -3.586,0.549 -5.025,-0.769c-1.218,-1.116 -1.784,-2.62 -2.482,-4.049c-0.257,-0.525 -0.509,-1.053 -0.889,-1.841c-0.534,0.554 -0.906,0.911 -1.245,1.297c-1.807,2.059 -3.836,3.787 -6.585,4.446c-1.951,0.468 -3.934,0.579 -5.884,0.131c-3.454,-0.794 -5.348,-3.171 -5.941,-6.528c-0.79,-4.465 0.205,-8.666 2.557,-12.483c1.144,-1.857 2.639,-3.497 4.057,-5.318m6.169,14.597c2.168,-2.301 3.26,-5.168 4.205,-8.098c0.383,-1.189 0.527,-2.429 -0.028,-3.77c-0.409,0.178 -0.799,0.252 -1.064,0.476c-2.44,2.057 -4.779,4.262 -6.224,7.132c-0.794,1.579 -1.136,3.408 -1.522,5.16c-0.217,0.986 0.184,1.289 1.194,1.22c1.412,-0.098 2.453,-0.852 3.439,-2.12Z" style="fill:#993014;fill-rule:nonzero;"/><path d="M387.399,556.142c-2.697,1.003 -4.551,0.333 -5.593,-2.2c-0.555,-1.346 -0.866,-2.848 -0.988,-4.305c-0.225,-2.683 -0.26,-5.383 -0.318,-8.078c-0.191,-8.908 -0.36,-17.817 -0.531,-26.726c-0.043,-2.252 -0.111,-4.507 -0.067,-6.758c0.021,-1.091 0.205,-2.193 0.441,-3.262c0.324,-1.467 1.311,-2.43 2.742,-2.797c1.425,-0.364 2.681,0.206 3.487,1.343c0.648,0.914 1.154,2.01 1.414,3.1c0.367,1.542 0.528,3.147 0.639,4.734c0.397,5.65 0.871,11.298 1.062,16.955c0.244,7.254 0.273,14.516 0.318,21.776c0.008,1.185 -0.289,2.396 -0.604,3.551c-0.291,1.07 -0.894,2.009 -2.002,2.667Z" style="fill:#993114;fill-rule:nonzero;"/><path d="M397.549,550.599c-0.144,-3.66 -0.306,-7.175 -0.397,-10.691c-0.241,-9.345 -0.489,-18.689 -0.644,-28.035c-0.038,-2.296 0.221,-4.602 0.445,-6.894c0.126,-1.29 0.923,-2.217 2.096,-2.772c1.819,-0.862 4.053,0.108 4.975,2.275c0.424,0.997 0.712,2.1 0.814,3.179c0.495,5.252 1.061,10.504 1.31,15.77c0.338,7.138 0.436,14.287 0.579,21.432c0.043,2.14 0.005,4.296 -0.216,6.422c-0.122,1.166 -0.53,2.382 -1.112,3.403c-1.472,2.59 -4.909,2.591 -6.532,0.097c-0.801,-1.23 -1.165,-2.6 -1.318,-4.186Z" style="fill:#9a3115;fill-rule:nonzero;"/><path d="M493.965,547.379c-0.515,-5.798 -0.863,-11.447 -0.727,-17.115c0.021,-0.868 0.13,-1.755 0.356,-2.591c0.31,-1.147 1.078,-1.893 2.327,-2.032c1.35,-0.151 2.355,0.386 3.043,1.531c0.303,0.503 0.56,1.032 0.923,1.708c0.513,-0.441 0.905,-0.725 1.234,-1.069c2.772,-2.898 6.054,-3.047 9.565,-1.725c1.021,0.385 1.961,0.987 2.936,1.493c1.458,0.755 2.905,1.534 4.376,2.265c1.105,0.55 2.123,1.195 2.677,2.341c0.652,1.346 0.601,2.717 -0.321,3.898c-1.042,1.335 -2.46,2.043 -4.198,1.758c-1.976,-0.323 -3.799,-1.063 -5.459,-2.205c-0.859,-0.59 -1.733,-1.173 -2.655,-1.653c-1.278,-0.666 -1.826,-0.514 -2.192,0.911c-0.75,2.921 -1.435,5.87 -1.918,8.845c-0.509,3.143 -0.721,6.333 -1.128,9.493c-0.111,0.857 -0.321,1.756 -0.725,2.508c-0.826,1.54 -2.562,2.299 -4.186,2.022c-1.524,-0.26 -3.011,-1.656 -3.246,-3.342c-0.318,-2.282 -0.455,-4.589 -0.682,-7.041Z" style="fill:#9a3115;fill-rule:nonzero;"/><path d="M410.78,498.976c0.165,-0.729 0.254,-1.336 0.474,-1.891c0.878,-2.217 3.411,-2.981 5.252,-1.48c0.774,0.631 1.477,1.53 1.838,2.453c1.278,3.264 1.527,6.71 1.445,10.186c-0.003,0.109 -0.026,0.218 -0.045,0.325c-0.403,2.215 -1.925,3.821 -3.796,4.01c-1.88,0.189 -3.906,-1.2 -4.575,-3.323c-0.342,-1.084 -0.506,-2.254 -0.552,-3.393c-0.093,-2.244 -0.047,-4.495 -0.041,-6.887Z" style="fill:#9c3519;fill-rule:nonzero;"/><path d="M339.541,426.192c-1.583,-0 -3.015,0.042 -4.444,-0.013c-1.365,-0.053 -2.731,-0.342 -4.087,-0.287c-3.059,0.123 -6.111,0.402 -9.167,0.599c-0.657,0.043 -1.321,0.032 -1.98,0.007c-2.463,-0.093 -4.943,-0.439 -7.385,-0.261c-8.46,0.615 -16.925,0.09 -25.384,0.287c-4.334,0.1 -8.668,0.331 -13.001,0.291c-3.332,-0.031 -6.661,-0.395 -9.991,-0.604c-0.384,-0.025 -0.772,0.007 -1.155,-0.02c-3.004,-0.207 -6.007,-0.422 -9.01,-0.634c-0.11,-0.008 -0.22,-0.014 -0.33,-0.018c-2.959,-0.114 -5.92,-0.206 -8.878,-0.349c-1.31,-0.063 -2.613,-0.257 -3.922,-0.341c-1.968,-0.126 -3.938,-0.206 -5.907,-0.309c-0.438,-0.023 -0.888,-0.002 -1.31,-0.098c-1.912,-0.438 -3.078,-1.848 -3.225,-3.839c-0.097,-1.308 -0.308,-2.618 -0.275,-3.922c0.049,-1.967 0.246,-3.932 0.42,-5.893c0.14,-1.579 0.339,-3.154 0.514,-4.73c0.193,-1.738 0.401,-3.474 0.579,-5.214c0.15,-1.468 0.296,-2.939 0.395,-4.411c0.316,-4.711 1.206,-9.32 2.396,-13.879c0.29,-1.111 0.563,-2.228 0.792,-3.353c0.48,-2.359 -1.071,-5.063 -3.379,-5.608c-4.52,-1.065 -8.171,-3.529 -11.612,-6.541c-2.332,-2.041 -4.282,-4.38 -6.32,-6.672c-1.412,-1.587 -2.983,-3.034 -4.675,-4.737c-0.397,0.87 -0.705,1.489 -0.966,2.127c-0.924,2.258 -2.131,4.357 -3.869,6.072c-2.766,2.729 -6.11,4.211 -10.035,4.241c-2.85,0.021 -5.716,0.169 -8.498,-0.654c-1.784,-0.528 -3.607,-0.985 -5.313,-1.708c-3.091,-1.311 -6.039,-2.946 -8.691,-5.01c-2.33,-1.813 -4.16,-4.01 -4.698,-7.105c-0.224,-1.286 0.165,-2.392 0.454,-3.528c0.593,-2.323 1.884,-4.341 3.352,-6.179c1.778,-2.224 3.725,-4.318 5.681,-6.391c2.58,-2.735 5.738,-4.728 8.866,-6.771c3.578,-2.337 7.071,-4.807 10.579,-7.25c1.284,-0.894 2.343,-2.027 2.743,-3.586c0.139,-0.539 0.123,-1.212 -0.076,-1.725c-0.573,-1.479 -1.29,-2.9 -1.923,-4.356c-2.068,-4.755 -2.017,-9.472 0.253,-14.155c0.766,-1.582 1.463,-3.197 2.241,-4.772c0.394,-0.799 0.476,-1.558 0.101,-2.37c-0.345,-0.747 -0.648,-1.514 -1.008,-2.253c-2.436,-4.997 -4.464,-10.153 -5.766,-15.56c-0.997,-4.142 -1.846,-8.32 -2.243,-12.58c-0.186,-2.008 -0.59,-3.996 -0.889,-5.994c-0.04,-0.271 -0.058,-0.547 -0.064,-0.821c-0.114,-4.883 -0.246,-9.767 -0.328,-14.651c-0.046,-2.75 -0.007,-5.502 -0.011,-8.253c-0,-0.44 0.101,-0.936 -0.064,-1.308c-0.585,-1.312 0.022,-2.34 0.649,-3.392c3.521,-5.9 6.714,-11.969 9.595,-18.212c2.255,-4.884 4.472,-9.787 7.263,-14.419c1.611,-2.671 2.8,-5.6 4.134,-8.433c1.24,-2.633 2.446,-5.283 3.617,-7.947c0.75,-1.707 1.323,-3.496 2.131,-5.172c1.213,-2.517 2.573,-4.963 3.853,-7.448c2.026,-3.932 3.254,-8.129 4.165,-12.44c0.804,-3.802 1.493,-7.644 2.914,-11.28c1.595,-4.083 3.228,-8.155 4.989,-12.169c0.653,-1.491 1.716,-2.802 2.589,-4.197c3.436,-5.49 6.913,-10.954 9.818,-16.756c0.983,-1.965 2.025,-3.902 3.098,-5.819c0.569,-1.017 1.355,-1.816 2.524,-2.234c1.054,-0.378 2.047,-0.928 3.28,-1.502c-0.469,-0.33 -0.69,-0.582 -0.962,-0.662c-2.058,-0.606 -3.781,-1.752 -5.241,-3.283c-0.639,-0.67 -1.196,-0.781 -2.013,-0.325c-3.969,2.211 -8.347,3.327 -12.656,4.612c-4.254,1.269 -8.523,2.487 -12.796,3.693c-1.314,0.37 -2.654,0.657 -3.993,0.929c-1.049,0.213 -1.767,0.657 -2.048,1.8c-1.316,5.368 -2.689,10.722 -4.035,16.083c-0.905,3.609 -1.821,7.216 -2.69,10.833c-0.754,3.136 -1.46,6.285 -2.167,9.432c-0.263,1.168 -0.103,1.42 1.009,1.839c0.257,0.097 0.518,0.182 0.777,0.275c4.099,1.468 6.277,5.522 5.475,9.851c-0.669,3.61 -2.656,6.317 -5.43,8.52c-1.325,1.052 -2.685,2.165 -4.211,2.835c-3.442,1.512 -7.016,1.525 -10.257,-0.494c-2.229,-1.388 -3.644,-3.43 -4.06,-6.266c-0.503,-3.434 0.33,-6.415 2.114,-9.202c1.211,-1.89 3.111,-3.057 5.026,-4.166c2.066,-1.197 4.324,-1.806 6.767,-2.242c-0.022,-2.571 0.236,-5.077 -0.154,-7.589c-0.192,-1.24 -0.327,-2.492 -0.427,-3.744c-0.15,-1.855 -0.234,-3.715 -0.368,-5.571c-0.202,-2.781 -0.427,-5.559 -0.633,-8.34c-0.121,-1.637 -0.179,-3.281 -0.345,-4.914c-0.289,-2.825 -0.634,-5.643 -0.969,-8.462c-0.078,-0.652 0.147,-1.134 0.574,-1.634c2.315,-2.705 4.719,-5.347 6.847,-8.194c2.883,-3.858 5.549,-7.88 8.301,-11.837c1.972,-2.836 3.736,-5.847 5.948,-8.481c2.582,-3.076 4.677,-6.491 7.205,-9.588c1.351,-1.656 2.787,-3.242 4.15,-4.889c1.815,-2.193 3.596,-4.414 5.391,-6.623c0.07,-0.086 0.132,-0.177 0.206,-0.258c2.324,-2.558 4.667,-5.098 6.966,-7.677c1.532,-1.717 2.941,-3.547 4.516,-5.222c1.989,-2.115 4.057,-4.16 6.159,-6.163c1.027,-0.978 2.164,-1.858 3.329,-2.669c2.519,-1.754 5.316,-2.558 8.401,-2.95c8.664,-1.101 17.343,-0.368 26.011,-0.549c1.733,-0.036 3.475,0.335 5.213,0.519c3.771,0.399 7.551,0.536 11.342,0.428c0.054,-0.001 0.115,0.003 0.163,-0.018c2.114,-0.916 3.327,0.258 4.28,1.901c1.404,2.42 2.813,4.841 4.119,7.314c1.64,3.109 3.242,6.234 5.373,9.049c0.469,0.62 0.936,1.165 1.809,1.297c0.503,0.075 1.048,0.395 1.416,0.764c1.2,1.202 2.282,2.524 3.497,3.71c1.015,0.991 2.056,2.017 3.257,2.743c2.201,1.331 4.478,2.563 6.817,3.629c2.221,1.011 3.446,2.754 3.898,4.964c0.592,2.894 0.807,5.848 0.729,8.823c-0.06,2.291 0.432,2.694 2.677,3.078c2.349,0.402 4.678,0.491 7.018,-0.004c0.161,-0.034 0.374,0.009 0.482,-0.081c1.564,-1.313 3.435,-0.876 5.216,-0.929c0.935,-0.028 1.873,-0.038 2.806,0.004c1.637,0.075 2.23,0.718 2.249,2.368c0.007,0.66 -0.047,1.325 0.006,1.98c0.314,3.907 -1.539,6.976 -4.007,9.658c-2.905,3.154 -6.012,6.126 -9.099,9.107c-1.297,1.252 -2.706,2.414 -4.186,3.44c-0.831,0.575 -1.893,0.85 -2.885,1.151c-1.195,0.362 -2.165,0.935 -2.942,1.961c-2.296,3.032 -4.998,5.697 -7.842,8.206c-0.612,0.539 -0.754,0.925 -0.48,1.664c0.552,1.488 1.107,2.989 1.473,4.528c0.326,1.372 0.345,2.815 0.597,4.208c0.371,2.041 0.76,4.084 1.27,6.093c0.457,1.805 1.145,3.55 1.623,5.351c0.321,1.207 0.484,2.461 0.644,3.704c0.033,0.249 -0.204,0.669 -0.429,0.778c-0.227,0.11 -0.696,0.038 -0.881,-0.139c-0.79,-0.759 -1.51,-1.591 -2.264,-2.387c-0.308,-0.325 -0.64,-0.629 -1.212,-1.188c0.105,1.283 0.164,2.14 0.247,2.995c0.313,3.206 0.634,6.412 0.952,9.619c0.011,0.109 0.029,0.22 0.023,0.328c-0.244,4.418 1.789,8.027 4.479,11.173c1.603,1.875 3.873,3.225 6.509,3.531c1.233,0.143 2.431,0.392 3.724,0.063c1.165,-0.296 1.974,0.542 2.118,1.937c0.169,1.631 0.253,3.271 0.341,4.91c0.041,0.764 0.007,1.533 0.007,2.414c0.958,-0.043 1.641,-0.463 2.155,-1.094c1.208,-1.486 2.348,-3.028 3.547,-4.523c0.422,-0.526 0.936,-0.979 1.361,-1.418c1.426,0.584 1.62,1.707 1.916,2.751c0.294,1.036 0.549,2.083 0.878,3.342c0.467,-0.294 0.858,-0.456 1.14,-0.731c1.536,-1.498 3.03,-3.04 4.57,-4.534c0.617,-0.598 0.684,-1.072 0.177,-1.84c-0.984,-1.49 -0.757,-1.899 0.661,-2.907c1.558,-1.109 3.011,-2.368 4.496,-3.58c0.514,-0.419 0.765,-0.883 0.275,-1.552c-0.941,-1.283 -1.804,-2.564 -1.78,-4.323c0.008,-0.562 -0.832,-1.236 -1.416,-1.688c-2.061,-1.599 -4.472,-2.55 -6.879,-3.478c-1.382,-0.532 -2.814,-0.935 -4.207,-1.441c-1.359,-0.493 -1.666,-1.659 -0.584,-2.615c1.804,-1.594 3.643,-3.171 5.612,-4.548c1.701,-1.191 3.593,-2.113 5.422,-3.114c0.974,-0.533 2.026,-0.86 3.163,-0.74c1.36,0.144 2.605,-0.188 3.756,-0.876l-0,-8.565c-0.995,0.055 -1.246,1.194 -2.156,1.417c-0.746,-0.274 -0.639,-0.822 -0.394,-1.436c0.834,-2.083 1.591,-4.2 2.516,-6.241c0.46,-1.014 0.627,-1.715 -0.315,-2.587c-1.245,-1.152 -1.78,-2.785 -2.06,-4.408c-0.153,-0.89 -0.519,-1.334 -1.262,-1.72c-1.558,-0.808 -2.931,-1.868 -4.115,-3.292c0.734,-0.849 1.563,-1.314 2.481,-1.684c2.306,-0.93 4.489,-1.983 5.999,-4.151c0.594,-0.853 1.622,-1.486 2.572,-1.994c2.931,-1.569 6.011,-1.505 9.085,-0.467c3.027,1.023 5.329,2.99 7.015,5.693c0.261,0.419 0.532,0.835 0.827,1.23c0.691,0.927 1.519,1.562 2.784,1.355c1.305,-0.213 2.519,0.245 3.676,0.724c6.13,2.533 10.74,6.755 13.73,12.682c1.294,2.566 1.874,5.368 2.367,8.179c0.17,0.966 0.303,1.938 0.476,3.058c2.581,0.357 5.079,-0.498 7.612,-0.645c2.526,-0.147 5.013,-0.97 7.713,-1.538c-0.079,0.451 -0.054,0.774 -0.187,1.004c-1.224,2.106 -3.215,3.308 -5.367,4.162c-1.612,0.64 -3.352,0.978 -5.058,1.347c-0.669,0.145 -1.087,0.413 -1.359,1.018c-0.718,1.597 -2.133,2.112 -3.718,2.343c-1.514,0.22 -3.025,0.475 -4.546,0.635c-1.143,0.12 -1.901,0.649 -2.017,1.79c-0.315,3.106 -2.515,4.904 -4.644,6.714c-0.787,0.668 -1.328,1.256 -1.536,2.353c-0.361,1.907 -1.37,3.568 -2.703,5.012c-0.743,0.804 -1.427,1.663 -2.165,2.472c-2.366,2.59 -2.631,5.618 -2.116,8.931c0.276,1.774 0.272,3.635 0.092,5.427c-0.272,2.712 -0.672,5.429 -1.276,8.085c-0.42,1.848 -1.134,3.665 -1.961,5.377c-1.621,3.359 -3.382,6.652 -5.143,9.941c-1.321,2.467 -2.736,4.884 -4.103,7.326c-2.038,3.64 -4.121,7.257 -6.089,10.934c-1.606,3 -3.025,6.098 -4.608,9.111c-4.06,7.73 -8.319,15.346 -13.281,22.546c-0.466,0.676 -0.877,1.393 -1.375,2.043c-0.476,0.62 -1.012,0.702 -1.68,0.137c-2.592,-2.193 -5.25,-4.31 -7.821,-6.527c-1.236,-1.067 -2.322,-2.307 -3.504,-3.44c-0.293,-0.281 -0.692,-0.451 -1.313,-0.493c0.284,0.969 0.592,1.932 0.848,2.908c0.904,3.441 1.854,6.872 2.659,10.336c0.505,2.176 0.936,4.388 1.318,6.572c0.404,2.309 0.953,4.743 0.238,7.171c-0.209,0.711 -0.068,1.532 -0.051,2.301c0.068,3.027 -0.423,5.994 -0.92,8.963c-0.162,0.969 -0.346,1.945 -0.381,2.923c-0.13,3.586 -1.158,7.006 -1.922,10.469c-0.66,2.99 -1.625,5.915 -2.249,8.912c-0.908,4.356 -2.21,8.587 -3.625,12.794c-2.006,5.964 -4.738,11.585 -8.07,16.907c-1.686,2.693 -3.545,5.279 -5.355,7.893c-0.372,0.537 -0.86,0.997 -1.319,1.47c-0.742,0.764 -1.035,1.545 -0.699,2.674c0.579,1.943 0.877,3.949 0.783,6.006c-0.035,0.751 0.311,1.52 0.272,2.27c-0.146,2.783 -0.376,5.562 -0.584,8.341c-0.111,1.472 -0.163,2.955 -0.38,4.412c-0.678,4.553 -2.085,8.869 -4.64,12.726c-1.844,2.784 -3.703,5.58 -5.808,8.164c-2.042,2.505 -4.427,4.728 -6.617,7.116c-0.81,0.884 -1.52,1.865 -2.228,2.837c-0.659,0.907 -0.66,1.859 0.084,2.725c0.892,1.038 1.709,2.186 2.764,3.03c4.918,3.936 9.892,7.802 14.883,11.647c0.948,0.73 1.996,1.426 3.11,1.825c2.715,0.972 4.698,2.765 6.293,5.072c1.465,2.119 2.926,4.24 4.356,6.382c1.26,1.889 0.709,3.022 -1.589,3.356c-0.106,0.016 -0.216,0.004 -0.477,0.006m-135.653,-289.915c0.043,0.65 0.087,1.301 0.13,1.951c0.09,-0.002 0.179,-0.003 0.269,-0.004c-0,-0.742 -0,-1.483 0.011,-2.486c0.173,-0.447 0.382,-0.885 0.514,-1.344c1.123,-3.91 2.288,-7.809 3.331,-11.741c1.434,-5.409 2.831,-10.829 4.12,-16.273c0.472,-1.994 1.411,-2.893 3.516,-3.341c8.113,-1.724 15.94,-4.493 23.825,-7.028c1.765,-0.567 3.434,-1.447 5.115,-2.251c0.4,-0.191 0.785,-0.6 0.979,-1.004c0.927,-1.923 1.701,-3.923 2.685,-5.814c3.185,-6.116 6.975,-11.855 11.367,-17.162c6.825,-8.244 14.845,-15.31 22.694,-22.532c4.534,-4.172 9.135,-8.241 12.695,-13.35c1.963,-2.818 4.051,-3.361 7.358,-2.191c1.388,0.491 2.447,-0.144 3.613,-0.591c-4.674,-0.508 -9.327,-0.956 -13.99,-1.154c-7.863,-0.334 -15.73,-0.258 -23.579,0.398c-3.334,0.278 -6.527,1.105 -9.197,3.255c-2.011,1.619 -4.055,3.227 -5.864,5.058c-2.236,2.263 -4.259,4.737 -6.345,7.144c-4.104,4.737 -8.165,9.511 -12.287,14.231c-4.813,5.511 -9.24,11.323 -13.518,17.248c-2.574,3.566 -4.969,7.26 -7.495,10.861c-2.145,3.057 -4.301,6.111 -6.568,9.078c-1.598,2.093 -3.39,4.037 -5.093,6.049c-0.495,0.586 -0.988,1.131 -0.911,2.025c0.238,2.738 0.397,5.482 0.597,8.222c0.285,3.893 0.526,7.79 0.886,11.676c0.334,3.608 0.8,7.204 1.142,11.07m158.161,-51.333c-0.615,0.067 -1.277,0.147 -1.541,-0.584c-0.251,-0.697 -0.778,-0.848 -1.401,-0.942c-0.76,-0.114 -1.513,-0.278 -2.274,-0.385c-1.469,-0.207 -1.631,-0.365 -1.67,-1.893c-0.023,-0.916 -0.004,-1.833 -0.004,-2.831c-0.55,0 -1.034,-0.008 -1.517,0.002c-2.136,0.041 -4.273,0.157 -6.407,0.113c-2.426,-0.049 -3.328,-0.876 -3.749,-3.289c-0.227,-1.299 -0.347,-2.617 -0.509,-3.927c-0.262,-2.128 -0.501,-4.259 -0.784,-6.384c-0.224,-1.684 -0.919,-3.015 -2.684,-3.601c-0.881,-0.292 -1.703,-0.763 -2.55,-1.156c-3.547,-1.646 -6.639,-3.92 -9.042,-7.005c-1.5,-1.925 -3.131,-2.992 -5.735,-2.687c-2.498,0.293 -5.055,0.18 -7.582,0.108c-2.044,-0.058 -2.298,-0.345 -2.718,-2.344c-0.943,-4.486 -3.212,-8.273 -6.142,-11.707c-1.201,-1.407 -2.742,-2.382 -4.44,-3.074c-1.754,-0.717 -2.851,-0.417 -4.134,0.977c-1.883,2.048 -3.061,4.435 -3.305,7.215c-0.23,2.619 0.193,5.027 2.406,6.839c1.486,1.216 2.815,2.609 4.603,3.44c1.122,0.522 1.25,1.367 0.367,2.205c-0.79,0.75 -1.651,1.466 -2.59,2.006c-1.665,0.957 -3.416,1.764 -5.127,2.642c-3.868,1.988 -7.664,4.105 -11.12,6.761c-5.821,4.472 -10.545,10.004 -14.63,16.021c-3.485,5.132 -6.504,10.578 -9.745,15.876c-0.428,0.699 -0.853,1.445 -1.444,1.991c-1.532,1.416 -3.185,2.682 -5.237,3.301c-1.113,0.336 -1.867,1.087 -2.4,2.118c-0.959,1.855 -2.033,3.653 -2.935,5.535c-2.429,5.068 -5.354,9.838 -8.504,14.479c-2.133,3.142 -4.16,6.343 -5.472,9.937c-0.714,1.958 -1.407,3.924 -2.134,5.877c-1.559,4.184 -2.627,8.492 -3.476,12.872c-1.081,5.573 -2.376,11.1 -5.625,15.905c-1.4,2.069 -2.389,4.319 -3.297,6.621c-2.402,6.085 -5.088,12.041 -8.084,17.859c-2.513,4.879 -4.998,9.772 -7.465,14.675c-1.925,3.827 -3.799,7.68 -5.704,11.518c-1.002,2.019 -2.13,3.983 -3.002,6.056c-0.779,1.852 -1.887,3.626 -1.986,5.706c-0.152,3.186 -0.335,6.375 -0.317,9.562c0.044,7.747 0.566,15.457 1.689,23.138c0.789,5.393 2.156,10.621 3.716,15.816c0.236,0.786 0.585,1.539 0.883,2.306c1.255,3.22 2.446,6.467 3.795,9.646c0.603,1.423 0.361,2.643 -0.22,3.936c-0.743,1.653 -1.46,3.318 -2.154,4.993c-1.859,4.488 -1.727,8.89 0.7,13.142c0.487,0.854 1.095,1.646 1.167,2.657c0.094,1.313 0.159,2.633 0.146,3.949c-0.004,0.396 -0.214,0.877 -0.49,1.168c-1.095,1.153 -2.141,2.397 -3.408,3.333c-3.093,2.285 -6.289,4.431 -9.463,6.604c-1.541,1.056 -3.188,1.964 -4.679,3.083c-3.809,2.858 -7.069,6.277 -9.928,10.08c-1.3,1.73 -2.351,3.605 -2.879,5.711c-0.221,0.883 -0.299,1.849 -0.21,2.755c0.251,2.568 1.946,4.232 3.866,5.688c6.048,4.584 12.984,6.526 20.466,6.857c2.698,0.119 5.094,-0.68 7.274,-2.208c2.451,-1.718 4.252,-3.96 5.352,-6.753c0.444,-1.125 0.872,-2.257 1.341,-3.372c0.311,-0.739 0.895,-0.955 1.58,-0.584c0.333,0.18 0.635,0.442 0.902,0.715c1.576,1.611 3.153,3.222 4.702,4.859c1.926,2.038 3.73,4.203 5.758,6.132c3.569,3.396 7.398,6.386 12.537,7.094c1.702,0.234 2.633,1.596 3.122,3.104c0.6,1.848 0.721,3.827 0.264,5.7c-0.992,4.063 -1.796,8.147 -2.231,12.309c-0.495,4.75 -1.051,9.495 -1.579,14.242c-0.14,1.252 -0.236,2.51 -0.417,3.756c-0.395,2.719 -0.661,5.444 -0.478,8.191c0.151,2.283 0.956,3.111 3.211,3.434c0.272,0.039 0.549,0.074 0.822,0.065c4.842,-0.146 9.663,0.269 14.49,0.532c1.593,0.087 3.194,0.067 4.78,0.213c4.036,0.371 8.058,0.916 12.099,1.188c3.669,0.247 7.356,0.28 11.035,0.305c2.303,0.015 4.605,-0.207 6.909,-0.241c8.58,-0.128 17.161,-0.209 25.741,-0.333c5.441,-0.078 10.881,-0.248 16.322,-0.285c3.406,-0.023 6.813,0.128 10.22,0.193c0.798,0.015 1.597,0.002 2.61,0.002c-0.249,-0.507 -0.347,-0.809 -0.525,-1.052c-1.716,-2.356 -3.414,-4.727 -5.184,-7.042c-0.948,-1.241 -2.253,-2.052 -3.656,-2.751c-1.52,-0.756 -3.025,-1.576 -4.422,-2.534c-1.857,-1.274 -3.629,-2.677 -5.391,-4.083c-3.138,-2.503 -6.288,-4.994 -9.334,-7.605c-1.195,-1.025 -2.199,-2.303 -3.154,-3.568c-1.014,-1.346 -1.035,-2.888 -0.242,-4.355c0.412,-0.763 0.981,-1.461 1.57,-2.104c2.119,-2.311 4.234,-4.628 6.429,-6.865c2.955,-3.011 5.267,-6.489 7.388,-10.092c1.59,-2.7 2.78,-5.602 3.522,-8.662c0.453,-1.864 0.739,-3.747 0.799,-5.685c0.075,-2.456 0.501,-4.903 0.551,-7.358c0.046,-2.245 -0.169,-4.499 -0.342,-6.743c-0.128,-1.668 -0.203,-3.353 -1.119,-4.865c-0.375,-0.618 -0.166,-1.273 0.392,-1.778c2.184,-1.978 3.83,-4.384 5.369,-6.862c1.594,-2.567 3.073,-5.206 4.681,-7.764c2.208,-3.515 3.888,-7.295 5.165,-11.201c3.246,-9.938 6.495,-19.892 7.739,-30.346c0.452,-3.795 0.868,-7.594 1.264,-11.395c0.176,-1.687 0.106,-3.413 0.427,-5.068c0.432,-2.228 0.079,-4.411 -0.281,-6.536c-0.701,-4.14 -1.723,-8.225 -2.63,-12.329c-0.472,-2.134 -1.148,-4.236 -1.433,-6.393c-0.314,-2.383 -1.174,-4.325 -2.918,-6.02c-1.635,-1.588 -3.021,-3.431 -4.596,-5.254c-0.231,1.23 -0.417,2.308 -0.637,3.38c-1.146,5.579 -2.288,11.16 -3.457,16.734c-0.416,1.984 -0.866,3.963 -1.386,5.92c-0.107,0.401 -0.553,0.774 -0.937,1.001c-0.119,0.071 -0.602,-0.333 -0.826,-0.597c-5.387,-6.35 -10.23,-13.073 -14.025,-20.511c-2.098,-4.111 -4.122,-8.263 -6.672,-12.125c-0.277,-0.419 -0.41,-1.01 -1.136,-1.114c0,0.412 -0.037,0.74 0.006,1.056c0.604,4.518 1.216,9.035 1.835,13.551c0.089,0.65 0.3,1.295 0.3,1.942c-0,0.305 -0.308,0.761 -0.586,0.872c-0.276,0.109 -0.766,-0.035 -1.026,-0.24c-0.329,-0.26 -0.535,-0.685 -0.767,-1.056c-0.409,-0.651 -0.766,-1.336 -1.201,-1.969c-4.402,-6.402 -7.593,-13.354 -9.563,-20.871c-0.674,-2.573 -1.41,-5.129 -2.164,-7.858c-1.318,1.249 -2.041,2.643 -2.754,4.049c-0.396,0.783 -0.767,1.59 -1.268,2.303c-0.194,0.276 -0.736,0.463 -1.082,0.415c-0.206,-0.028 -0.497,-0.602 -0.476,-0.912c0.084,-1.251 0.202,-2.509 0.441,-3.739c0.48,-2.471 1.084,-4.918 1.569,-7.389c0.359,-1.835 0.654,-3.635 -0.936,-5.216c-0.767,-0.763 -0.973,-1.927 -0.929,-3.084c0.056,-1.477 0.013,-2.958 0.013,-4.455c-0.216,-0.112 -0.397,-0.27 -0.599,-0.302c-3.943,-0.613 -7.873,-1.374 -11.884,-1.363c-1.588,0.004 -3.176,0.135 -4.764,0.216c-0.528,0.027 -1.107,-0.016 -1.094,-0.654c0.006,-0.306 0.476,-0.622 0.773,-0.891c0.101,-0.091 0.316,-0.065 0.48,-0.075c1.534,-0.096 3.074,-0.318 4.601,-0.254c2.736,0.114 5.47,0.352 8.194,0.635c1.522,0.159 3.037,0.456 4.532,0.793c1.312,0.296 1.52,0.625 1.529,1.945c0.006,0.825 0.004,1.653 -0.066,2.474c-0.152,1.785 0.317,3.361 1.425,4.77c0.672,0.853 1.002,1.85 0.844,2.934c-0.229,1.567 -0.512,3.128 -0.802,4.686c-0.193,1.034 -0.44,2.058 -0.663,3.086c0.917,-0.626 1.588,-1.337 2.16,-2.119c0.427,-0.585 0.868,-1.004 1.631,-0.798c0.684,0.184 0.622,0.812 0.758,1.331c1.056,4.04 2.032,8.105 3.209,12.11c1.668,5.678 4.366,10.897 7.485,15.905c0.062,0.099 0.246,0.122 0.429,0.206c-0.27,-2.406 -0.539,-4.736 -0.79,-7.068c-0.117,-1.088 -0.225,-2.179 -0.292,-3.272c-0.105,-1.695 -0.217,-3.392 -0.22,-5.088c-0,-0.392 0.34,-0.968 0.683,-1.137c0.603,-0.298 0.994,0.203 1.261,0.731c0.447,0.883 0.845,1.795 1.359,2.636c4.188,6.851 8.378,13.7 12.611,20.523c2.203,3.552 4.488,7.053 6.749,10.569c0.304,0.473 0.681,0.899 1.137,1.495c0.149,-0.416 0.218,-0.555 0.249,-0.702c1.103,-5.207 2.208,-10.413 3.299,-15.622c0.676,-3.223 1.328,-6.45 1.995,-9.674c0.255,-1.229 0.854,-1.467 1.794,-0.658c0.538,0.463 0.98,1.038 1.464,1.563c2.458,2.67 4.798,5.461 7.404,7.979c3.082,2.978 6.375,5.741 9.614,8.554c1.055,0.916 2.225,1.699 3.459,2.631c1.493,-2.48 2.951,-4.744 4.253,-7.094c3.94,-7.111 7.838,-14.244 11.719,-21.388c4.3,-7.916 8.587,-15.841 12.831,-23.788c1.809,-3.388 3.592,-6.796 5.2,-10.281c1.172,-2.54 1.813,-5.278 2.025,-8.088c0.136,-1.8 0.251,-3.602 0.329,-5.406c0.041,-0.921 0.116,-1.873 -0.058,-2.766c-0.691,-3.531 -0.083,-6.76 2.078,-9.648c1.218,-1.629 2.552,-3.172 3.758,-4.81c0.509,-0.692 1.091,-1.503 1.166,-2.305c0.169,-1.798 1.206,-2.887 2.521,-3.847c2.154,-1.573 3.845,-3.403 4.128,-6.25c0.113,-1.137 0.733,-1.498 1.932,-1.627c1.475,-0.158 2.947,-0.361 4.426,-0.476c2.607,-0.201 4.159,-1.805 5.286,-3.943c0.194,-0.368 0.086,-0.896 0.118,-1.373c-1.901,0.13 -3.595,0.363 -5.284,0.335c-3.579,-0.058 -7,0.691 -10.346,1.833c-3.799,1.297 -7.555,2.72 -11.355,4.014c-0.915,0.312 -1.935,0.495 -2.896,0.459c-2.74,-0.104 -5.472,-0.427 -8.211,-0.509c-1.171,-0.034 -2.524,0.013 -3.497,0.557c-2.018,1.127 -4.141,1.343 -6.338,1.425c-0.292,0.011 -0.59,-0.122 -0.885,-0.189c-0.026,-0.107 -0.052,-0.214 -0.078,-0.321c0.392,-0.189 0.766,-0.465 1.179,-0.55c0.968,-0.201 1.969,-0.247 2.929,-0.472c1.647,-0.387 3.067,-1.105 3.625,-3.113c-2.092,-0.059 -1.649,-1.5 -1.49,-2.899c-0.488,0.222 -0.861,0.323 -1.153,0.536c-1.794,1.308 -3.801,1.918 -6.01,2.002c-0.695,0.026 -1.436,0.173 -2.061,0.466c-3.655,1.707 -7.015,3.891 -10.121,6.463c-0.229,0.189 -0.376,0.478 -0.542,0.697c2.455,1.059 4.866,1.977 7.16,3.129c1.758,0.881 3.415,1.991 5.029,3.123c1.274,0.894 1.442,1.581 0.856,2.936c-0.317,0.731 -0.173,1.292 0.264,1.823c0.558,0.677 1.187,1.295 1.77,1.952c0.309,0.349 0.587,0.726 0.957,1.189c-2.411,1.905 -4.676,3.695 -7.062,5.581c0.38,0.335 0.642,0.529 0.857,0.765c0.856,0.934 0.952,1.357 0.051,2.247c-2.5,2.472 -5.053,4.893 -7.653,7.261c-0.86,0.783 -1.762,0.478 -2.237,-0.612c-0.217,-0.498 -0.287,-1.058 -0.438,-1.586c-0.219,-0.763 -0.452,-1.522 -0.773,-2.597c-0.626,0.744 -1.021,1.247 -1.451,1.718c-0.853,0.931 -1.695,1.875 -2.598,2.756c-0.896,0.875 -2.032,1.309 -3.266,1.427c-1.074,0.102 -1.556,-0.29 -1.651,-1.354c-0.063,-0.709 0.018,-1.429 0.001,-2.143c-0.047,-1.959 -0.112,-3.918 -0.166,-5.77c-0.293,-0.117 -0.344,-0.154 -0.395,-0.155c-0.27,-0.002 -0.541,0.006 -0.812,0.008c-3.146,0.018 -6.025,-0.57 -8.581,-2.694c-2.102,-1.747 -4.415,-3.325 -6.838,-4.585c-6.243,-3.246 -12.484,-6.51 -19.013,-9.175c-4.078,-1.664 -8.215,-2.397 -12.556,-1.202c-0.526,0.145 -1.08,0.256 -1.622,0.259c-0.621,0.004 -0.86,-0.522 -0.471,-1.018c0.22,-0.281 0.57,-0.613 0.886,-0.64c2.296,-0.202 4.599,-0.466 6.898,-0.452c3.14,0.018 6.04,1.154 8.832,2.477c5.764,2.732 11.49,5.544 17.233,8.318c0.501,0.242 1.016,0.454 1.887,0.84c-0.413,-0.943 -0.638,-1.488 -0.888,-2.022c-0.969,-2.069 -1.502,-4.247 -1.623,-6.524c-0.085,-1.593 -0.086,-3.192 -0.226,-4.779c-0.309,-3.493 -0.406,-7.02 -1.624,-10.381c-0.247,-0.683 -0.203,-1.472 -0.298,-2.251c1.495,-0.209 2.027,0.827 2.738,1.516c0.762,0.739 1.459,1.544 2.185,2.32c0.101,-0.066 0.202,-0.132 0.303,-0.198c-0.24,-0.769 -0.457,-1.547 -0.725,-2.306c-1.077,-3.053 -2.128,-6.082 -2.236,-9.397c-0.079,-2.458 -0.598,-4.884 -1.711,-7.156c-0.397,-0.808 -0.515,-1.786 -0.595,-2.701c-0.035,-0.407 0.223,-0.999 0.546,-1.251c3.33,-2.595 5.981,-5.842 8.636,-9.06c1.078,-1.305 2.281,-2.018 3.863,-2.204c1.14,-0.134 2.108,-0.582 2.966,-1.311c0.963,-0.818 1.964,-1.6 2.872,-2.476c3.087,-2.981 6.18,-5.956 9.181,-9.021c0.94,-0.96 1.596,-2.198 2.497,-3.471c-0.172,-0.055 -0.345,-0.11 -0.753,-0.197m29.583,44.75c-2.029,2.55 -4.348,4.791 -7.056,6.625c-0.049,0.624 -0.098,1.249 -0.139,1.772c2.883,0.181 5.673,0.407 8.467,0.506c1.244,0.045 2.485,-0.002 3.719,-0.494c2.851,-1.137 5.75,-2.158 8.653,-3.159c4.513,-1.554 9.023,-3.152 13.913,-2.948c0.198,0.008 0.4,-0.102 0.724,-0.19c-0.256,-1.444 -0.48,-2.839 -0.753,-4.224c-1.53,-7.752 -5.793,-13.524 -12.691,-17.337c-1.873,-1.035 -3.848,-1.971 -6.046,-1.912c-1.44,0.038 -2.397,-0.505 -3.16,-1.639c-0.491,-0.729 -1.135,-1.366 -1.553,-2.13c-0.828,-1.515 -2.126,-2.516 -3.519,-3.403c-4.027,-2.564 -9.915,-2.767 -13.33,1.365c-0.728,0.882 -1.304,1.957 -2.191,2.622c-0.924,0.694 -2.14,0.999 -3.387,1.542c1.479,0.485 1.479,0.485 1.177,1.601c-0.459,0.039 -0.922,0.078 -1.386,0.117c0.631,0.772 1.365,1.295 2.148,1.73c0.622,0.347 0.914,0.765 1.068,1.507c0.334,1.614 0.903,3.173 2.093,4.405c1.247,1.291 1.35,1.843 0.574,3.563c-0.406,0.901 -0.881,1.771 -1.288,2.671c-0.191,0.422 -0.295,0.883 -0.496,1.503c1.614,-1.048 1.614,-1.048 2.575,-0.742c-0.303,1.714 -0.761,3.413 -0.862,5.132c-0.099,1.694 -0.338,3.468 0.364,4.998c2.279,-0.739 4.436,-1.361 6.534,-2.14c2.077,-0.771 4.094,-1.701 6.42,-2.68c-0.222,0.586 -0.329,0.869 -0.572,1.339m-130.072,-59.427c-1.845,2.532 -3.693,5.061 -5.534,7.596c-2.886,3.975 -5.018,8.391 -7.37,12.677c-0.208,0.379 -0.341,0.813 -0.432,1.238c-0.237,1.109 -0.029,2.043 1.021,2.71c1.16,0.737 2.243,1.592 3.406,2.322c0.679,0.427 1.448,0.711 2.183,1.062c1.056,-1.882 1.939,-3.653 2.999,-5.31c4.386,-6.855 8.816,-13.686 14.044,-19.947c3.072,-3.679 6.389,-7.085 10.364,-9.856c4.576,-3.19 9.495,-5.74 14.412,-8.316c0.65,-0.34 1.287,-0.706 1.973,-1.084c-1.711,-1.515 -3.298,-2.868 -4.817,-4.295c-0.546,-0.513 -1.068,-1.146 -1.351,-1.829c-0.673,-1.623 -1.262,-3.295 -0.963,-5.12c0.027,-0.164 -0.082,-0.351 -0.14,-0.574c-2.978,2.719 -5.866,5.332 -8.726,7.976c-2.462,2.276 -4.82,4.671 -7.352,6.866c-4.873,4.227 -9.393,8.791 -13.717,13.884m-52.384,78.508c-0.756,-0.527 -1.445,-1.25 -2.283,-1.538c-1.497,-0.513 -3.067,-0.902 -4.637,-1.097c-4.135,-0.513 -7.468,1.174 -9.881,4.388c-1.116,1.488 -1.631,3.439 -2.359,5.204c-0.524,1.272 -0.391,2.594 -0.013,3.878c1.396,4.742 6.684,7.166 11.433,5.171c3.321,-1.395 6.018,-3.617 7.929,-6.697c1.876,-3.026 1.988,-6.087 -0.189,-9.309m96.612,-114.85c3.415,3.461 5.902,7.478 7.27,12.161c0.257,0.877 0.477,1.765 0.686,2.545c1.603,-0 3.026,-0.004 4.449,0.001c1.387,0.005 2.778,0.21 4.329,0.112c-0.818,-1.346 -1.526,-2.449 -2.174,-3.586c-2.367,-4.152 -4.704,-8.321 -7.08,-12.467c-0.45,-0.786 -1.031,-1.497 -1.571,-2.271c-2.282,1.026 -4.367,1.963 -6.64,2.984c0.273,0.182 0.409,0.273 0.731,0.521m57.313,46.233c0.933,-0.772 0.143,-1.65 0.29,-2.568c-1.169,-0.101 -2.207,-0.191 -3.639,-0.314c1.131,1.256 1.931,2.239 3.349,2.882Z" style="fill:#412a1d;fill-rule:nonzero;"/><path d="M362.687,85.303c-0.786,1.111 -1.442,2.349 -2.382,3.309c-3.001,3.065 -6.094,6.04 -9.181,9.021c-0.908,0.876 -1.909,1.658 -2.872,2.476c-0.858,0.729 -1.826,1.177 -2.966,1.311c-1.582,0.186 -2.785,0.899 -3.863,2.204c-2.655,3.218 -5.306,6.465 -8.636,9.06c-0.323,0.252 -0.581,0.844 -0.546,1.251c0.08,0.915 0.198,1.893 0.595,2.701c1.113,2.272 1.632,4.698 1.711,7.156c0.108,3.315 1.159,6.344 2.236,9.397c0.268,0.759 0.485,1.537 0.725,2.306c-0.101,0.066 -0.202,0.132 -0.303,0.198c-0.726,-0.776 -1.423,-1.581 -2.185,-2.32c-0.711,-0.689 -1.243,-1.725 -2.738,-1.516c0.095,0.779 0.051,1.568 0.298,2.251c1.218,3.361 1.315,6.888 1.624,10.381c0.14,1.587 0.141,3.186 0.226,4.779c0.121,2.277 0.654,4.455 1.623,6.524c0.25,0.534 0.475,1.079 0.888,2.022c-0.871,-0.386 -1.386,-0.598 -1.887,-0.84c-5.743,-2.774 -11.469,-5.586 -17.233,-8.318c-2.792,-1.323 -5.692,-2.459 -8.832,-2.477c-2.299,-0.014 -4.602,0.25 -6.898,0.452c-0.316,0.027 -0.666,0.359 -0.886,0.64c-0.389,0.496 -0.15,1.022 0.471,1.018c0.542,-0.003 1.096,-0.114 1.622,-0.259c4.341,-1.195 8.478,-0.462 12.556,1.202c6.529,2.665 12.77,5.929 19.013,9.175c2.423,1.26 4.736,2.838 6.838,4.585c2.556,2.124 5.435,2.712 8.581,2.694c0.271,-0.002 0.542,-0.01 0.812,-0.008c0.051,0.001 0.102,0.038 0.395,0.155c0.054,1.852 0.119,3.811 0.166,5.77c0.017,0.714 -0.064,1.434 -0.001,2.143c0.095,1.064 0.577,1.456 1.651,1.354c1.234,-0.118 2.37,-0.552 3.266,-1.427c0.903,-0.881 1.745,-1.825 2.598,-2.756c0.43,-0.471 0.825,-0.974 1.451,-1.718c0.321,1.075 0.554,1.834 0.773,2.597c0.151,0.528 0.221,1.088 0.438,1.586c0.475,1.09 1.377,1.395 2.237,0.612c2.6,-2.368 5.153,-4.789 7.653,-7.261c0.901,-0.89 0.805,-1.313 -0.051,-2.247c-0.215,-0.236 -0.477,-0.43 -0.857,-0.765c2.386,-1.886 4.651,-3.676 7.062,-5.581c-0.37,-0.463 -0.648,-0.84 -0.957,-1.189c-0.583,-0.657 -1.212,-1.275 -1.77,-1.952c-0.437,-0.531 -0.581,-1.092 -0.264,-1.823c0.586,-1.355 0.418,-2.042 -0.856,-2.936c-1.614,-1.132 -3.271,-2.242 -5.029,-3.123c-2.294,-1.152 -4.705,-2.07 -7.16,-3.129c0.166,-0.219 0.313,-0.508 0.542,-0.697c3.106,-2.572 6.466,-4.756 10.121,-6.463c0.625,-0.293 1.366,-0.44 2.061,-0.466c2.209,-0.084 4.216,-0.694 6.01,-2.002c0.292,-0.213 0.665,-0.314 1.153,-0.536c-0.159,1.399 -0.602,2.84 1.49,2.899c-0.558,2.008 -1.978,2.726 -3.625,3.113c-0.96,0.225 -1.961,0.271 -2.929,0.472c-0.413,0.085 -0.787,0.361 -1.179,0.55c0.026,0.107 0.052,0.214 0.078,0.321c0.295,0.067 0.593,0.2 0.885,0.189c2.197,-0.082 4.32,-0.298 6.338,-1.425c0.973,-0.544 2.326,-0.591 3.497,-0.557c2.739,0.082 5.471,0.405 8.211,0.509c0.961,0.036 1.981,-0.147 2.896,-0.459c3.8,-1.294 7.556,-2.717 11.355,-4.014c3.346,-1.142 6.767,-1.891 10.346,-1.833c1.689,0.028 3.383,-0.205 5.284,-0.335c-0.032,0.477 0.076,1.005 -0.118,1.373c-1.127,2.138 -2.679,3.742 -5.286,3.943c-1.479,0.115 -2.951,0.318 -4.426,0.476c-1.199,0.129 -1.819,0.49 -1.932,1.627c-0.283,2.847 -1.974,4.677 -4.128,6.25c-1.315,0.96 -2.352,2.049 -2.521,3.847c-0.075,0.802 -0.657,1.613 -1.166,2.305c-1.206,1.638 -2.54,3.181 -3.758,4.81c-2.161,2.888 -2.769,6.117 -2.078,9.648c0.174,0.893 0.099,1.845 0.058,2.766c-0.078,1.804 -0.193,3.606 -0.329,5.406c-0.212,2.81 -0.853,5.548 -2.025,8.088c-1.608,3.485 -3.391,6.893 -5.2,10.281c-4.244,7.947 -8.531,15.872 -12.831,23.788c-3.881,7.144 -7.779,14.277 -11.719,21.388c-1.302,2.35 -2.76,4.614 -4.253,7.094c-1.234,-0.932 -2.404,-1.715 -3.459,-2.631c-3.239,-2.813 -6.532,-5.576 -9.614,-8.554c-2.606,-2.518 -4.946,-5.309 -7.404,-7.979c-0.484,-0.525 -0.926,-1.1 -1.464,-1.563c-0.94,-0.809 -1.539,-0.571 -1.794,0.658c-0.667,3.224 -1.319,6.451 -1.995,9.674c-1.091,5.209 -2.196,10.415 -3.299,15.622c-0.031,0.147 -0.1,0.286 -0.249,0.702c-0.456,-0.596 -0.833,-1.022 -1.137,-1.495c-2.261,-3.516 -4.546,-7.017 -6.749,-10.569c-4.233,-6.823 -8.423,-13.672 -12.611,-20.523c-0.514,-0.841 -0.912,-1.753 -1.359,-2.636c-0.267,-0.528 -0.658,-1.029 -1.261,-0.731c-0.343,0.169 -0.683,0.745 -0.683,1.137c0.003,1.696 0.115,3.393 0.22,5.088c0.067,1.093 0.175,2.184 0.292,3.272c0.251,2.332 0.52,4.662 0.79,7.068c-0.183,-0.084 -0.367,-0.107 -0.429,-0.206c-3.119,-5.008 -5.817,-10.227 -7.485,-15.905c-1.177,-4.005 -2.153,-8.07 -3.209,-12.11c-0.136,-0.519 -0.074,-1.147 -0.758,-1.331c-0.763,-0.206 -1.204,0.213 -1.631,0.798c-0.572,0.782 -1.243,1.493 -2.16,2.119c0.223,-1.028 0.47,-2.052 0.663,-3.086c0.29,-1.558 0.573,-3.119 0.802,-4.686c0.158,-1.084 -0.172,-2.081 -0.844,-2.934c-1.108,-1.409 -1.577,-2.985 -1.425,-4.77c0.07,-0.821 0.072,-1.649 0.066,-2.474c-0.009,-1.32 -0.217,-1.649 -1.529,-1.945c-1.495,-0.337 -3.01,-0.634 -4.532,-0.793c-2.724,-0.283 -5.458,-0.521 -8.194,-0.635c-1.527,-0.064 -3.067,0.158 -4.601,0.254c-0.164,0.01 -0.379,-0.016 -0.48,0.075c-0.297,0.269 -0.767,0.585 -0.773,0.891c-0.013,0.638 0.566,0.681 1.094,0.654c1.588,-0.081 3.176,-0.212 4.764,-0.216c4.011,-0.011 7.941,0.75 11.884,1.363c0.202,0.032 0.383,0.19 0.599,0.302c0,1.497 0.043,2.978 -0.013,4.455c-0.044,1.157 0.162,2.321 0.929,3.084c1.59,1.581 1.295,3.381 0.936,5.216c-0.485,2.471 -1.089,4.918 -1.569,7.389c-0.239,1.23 -0.357,2.488 -0.441,3.739c-0.021,0.31 0.27,0.884 0.476,0.912c0.346,0.048 0.888,-0.139 1.082,-0.415c0.501,-0.713 0.872,-1.52 1.268,-2.303c0.713,-1.406 1.436,-2.8 2.754,-4.049c0.754,2.729 1.49,5.285 2.164,7.858c1.97,7.517 5.161,14.469 9.563,20.871c0.435,0.633 0.792,1.318 1.201,1.969c0.232,0.371 0.438,0.796 0.767,1.056c0.26,0.205 0.75,0.349 1.026,0.24c0.278,-0.111 0.586,-0.567 0.586,-0.872c0,-0.647 -0.211,-1.292 -0.3,-1.942c-0.619,-4.516 -1.231,-9.033 -1.835,-13.551c-0.043,-0.316 -0.006,-0.644 -0.006,-1.056c0.726,0.104 0.859,0.695 1.136,1.114c2.55,3.862 4.574,8.014 6.672,12.125c3.795,7.438 8.638,14.161 14.025,20.511c0.224,0.264 0.707,0.668 0.826,0.597c0.384,-0.227 0.83,-0.6 0.937,-1.001c0.52,-1.957 0.97,-3.936 1.386,-5.92c1.169,-5.574 2.311,-11.155 3.457,-16.734c0.22,-1.072 0.406,-2.15 0.637,-3.38c1.575,1.823 2.961,3.666 4.596,5.254c1.744,1.695 2.604,3.637 2.918,6.02c0.285,2.157 0.961,4.259 1.433,6.393c0.907,4.104 1.929,8.189 2.63,12.329c0.36,2.125 0.713,4.308 0.281,6.536c-0.321,1.655 -0.251,3.381 -0.427,5.068c-0.396,3.801 -0.812,7.6 -1.264,11.395c-1.244,10.454 -4.493,20.408 -7.739,30.346c-1.277,3.906 -2.957,7.686 -5.165,11.201c-1.608,2.558 -3.087,5.197 -4.681,7.764c-1.539,2.478 -3.185,4.884 -5.369,6.862c-0.558,0.505 -0.767,1.16 -0.392,1.778c0.916,1.512 0.991,3.197 1.119,4.865c0.173,2.244 0.388,4.498 0.342,6.743c-0.05,2.455 -0.476,4.902 -0.551,7.358c-0.06,1.938 -0.346,3.821 -0.799,5.685c-0.742,3.06 -1.932,5.962 -3.522,8.662c-2.121,3.603 -4.433,7.081 -7.388,10.092c-2.195,2.237 -4.31,4.554 -6.429,6.865c-0.589,0.643 -1.158,1.341 -1.57,2.104c-0.793,1.467 -0.772,3.009 0.242,4.355c0.955,1.265 1.959,2.543 3.154,3.568c3.046,2.611 6.196,5.102 9.334,7.605c1.762,1.406 3.534,2.809 5.391,4.083c1.397,0.958 2.902,1.778 4.422,2.534c1.403,0.699 2.708,1.51 3.656,2.751c1.77,2.315 3.468,4.686 5.184,7.042c0.178,0.243 0.276,0.545 0.525,1.052c-1.013,0 -1.812,0.013 -2.61,-0.002c-3.407,-0.065 -6.814,-0.216 -10.22,-0.193c-5.441,0.037 -10.881,0.207 -16.322,0.285c-8.58,0.124 -17.161,0.205 -25.741,0.333c-2.304,0.034 -4.606,0.256 -6.909,0.241c-3.679,-0.025 -7.366,-0.058 -11.035,-0.305c-4.041,-0.272 -8.063,-0.817 -12.099,-1.188c-1.586,-0.146 -3.187,-0.126 -4.78,-0.213c-4.827,-0.263 -9.648,-0.678 -14.49,-0.532c-0.273,0.009 -0.55,-0.026 -0.822,-0.065c-2.255,-0.323 -3.06,-1.151 -3.211,-3.434c-0.183,-2.747 0.083,-5.472 0.478,-8.191c0.181,-1.246 0.277,-2.504 0.417,-3.756c0.528,-4.747 1.084,-9.492 1.579,-14.242c0.435,-4.162 1.239,-8.246 2.231,-12.309c0.457,-1.873 0.336,-3.852 -0.264,-5.7c-0.489,-1.508 -1.42,-2.87 -3.122,-3.104c-5.139,-0.708 -8.968,-3.698 -12.537,-7.094c-2.028,-1.929 -3.832,-4.094 -5.758,-6.132c-1.549,-1.637 -3.126,-3.248 -4.702,-4.859c-0.267,-0.273 -0.569,-0.535 -0.902,-0.715c-0.685,-0.371 -1.269,-0.155 -1.58,0.584c-0.469,1.115 -0.897,2.247 -1.341,3.372c-1.1,2.793 -2.901,5.035 -5.352,6.753c-2.18,1.528 -4.576,2.327 -7.274,2.208c-7.482,-0.331 -14.418,-2.273 -20.466,-6.857c-1.92,-1.456 -3.615,-3.12 -3.866,-5.688c-0.089,-0.906 -0.011,-1.872 0.21,-2.755c0.528,-2.106 1.579,-3.981 2.879,-5.711c2.859,-3.803 6.119,-7.222 9.928,-10.08c1.491,-1.119 3.138,-2.027 4.679,-3.083c3.174,-2.173 6.37,-4.319 9.463,-6.604c1.267,-0.936 2.313,-2.18 3.408,-3.333c0.276,-0.291 0.486,-0.772 0.49,-1.168c0.013,-1.316 -0.052,-2.636 -0.146,-3.949c-0.072,-1.011 -0.68,-1.803 -1.167,-2.657c-2.427,-4.252 -2.559,-8.654 -0.7,-13.142c0.694,-1.675 1.411,-3.34 2.154,-4.993c0.581,-1.293 0.823,-2.513 0.22,-3.936c-1.349,-3.179 -2.54,-6.426 -3.795,-9.646c-0.298,-0.767 -0.647,-1.52 -0.883,-2.306c-1.56,-5.195 -2.927,-10.423 -3.716,-15.816c-1.123,-7.681 -1.645,-15.391 -1.689,-23.138c-0.018,-3.187 0.165,-6.376 0.317,-9.562c0.099,-2.08 1.207,-3.854 1.986,-5.706c0.872,-2.073 2,-4.037 3.002,-6.056c1.905,-3.838 3.779,-7.691 5.704,-11.518c2.467,-4.903 4.952,-9.796 7.465,-14.675c2.996,-5.818 5.682,-11.774 8.084,-17.859c0.908,-2.302 1.897,-4.552 3.297,-6.621c3.249,-4.805 4.544,-10.332 5.625,-15.905c0.849,-4.38 1.917,-8.688 3.476,-12.872c0.727,-1.953 1.42,-3.919 2.134,-5.877c1.312,-3.594 3.339,-6.795 5.472,-9.937c3.15,-4.641 6.075,-9.411 8.504,-14.479c0.902,-1.882 1.976,-3.68 2.935,-5.535c0.533,-1.031 1.287,-1.782 2.4,-2.118c2.052,-0.619 3.705,-1.885 5.237,-3.301c0.591,-0.546 1.016,-1.292 1.444,-1.991c3.241,-5.298 6.26,-10.744 9.745,-15.876c4.085,-6.017 8.809,-11.549 14.63,-16.021c3.456,-2.656 7.252,-4.773 11.12,-6.761c1.711,-0.878 3.462,-1.685 5.127,-2.642c0.939,-0.54 1.8,-1.256 2.59,-2.006c0.883,-0.838 0.755,-1.683 -0.367,-2.205c-1.788,-0.831 -3.117,-2.224 -4.603,-3.44c-2.213,-1.812 -2.636,-4.22 -2.406,-6.839c0.244,-2.78 1.422,-5.167 3.305,-7.215c1.283,-1.394 2.38,-1.694 4.134,-0.977c1.698,0.692 3.239,1.667 4.44,3.074c2.93,3.434 5.199,7.221 6.142,11.707c0.42,1.999 0.674,2.286 2.718,2.344c2.527,0.072 5.084,0.185 7.582,-0.108c2.604,-0.305 4.235,0.762 5.735,2.687c2.403,3.085 5.495,5.359 9.042,7.005c0.847,0.393 1.669,0.864 2.55,1.156c1.765,0.586 2.46,1.917 2.684,3.601c0.283,2.125 0.522,4.256 0.784,6.384c0.162,1.31 0.282,2.628 0.509,3.927c0.421,2.413 1.323,3.24 3.749,3.289c2.134,0.044 4.271,-0.072 6.407,-0.113c0.483,-0.01 0.967,-0.002 1.517,-0.002c0,0.998 -0.019,1.915 0.004,2.831c0.039,1.528 0.201,1.686 1.67,1.893c0.761,0.107 1.514,0.271 2.274,0.385c0.623,0.094 1.15,0.245 1.401,0.942c0.264,0.731 0.926,0.651 1.756,0.686c0.284,0.154 0.353,0.205 0.423,0.257m-26.3,-5.128c1.25,-0.67 1.77,-1.708 1.648,-3.12c-0.18,-2.074 -0.273,-4.155 -0.492,-6.224c-0.11,-1.031 -0.374,-2.053 -0.649,-3.056c-0.277,-1.012 -0.888,-1.806 -1.986,-1.972c-1.055,-0.16 -1.841,0.467 -2.298,1.296c-0.437,0.794 -0.772,1.716 -0.869,2.612c-0.307,2.847 0.346,5.576 1.497,8.153c0.531,1.189 1.334,2.306 3.149,2.311Z" style="fill:#fefefe;fill-rule:nonzero;"/><path d="M203.953,136.012c-0.407,-3.601 -0.873,-7.197 -1.207,-10.805c-0.36,-3.886 -0.601,-7.783 -0.886,-11.676c-0.2,-2.74 -0.359,-5.484 -0.597,-8.222c-0.077,-0.894 0.416,-1.439 0.911,-2.025c1.703,-2.012 3.495,-3.956 5.093,-6.049c2.267,-2.967 4.423,-6.021 6.568,-9.078c2.526,-3.601 4.921,-7.295 7.495,-10.861c4.278,-5.925 8.705,-11.737 13.518,-17.248c4.122,-4.72 8.183,-9.494 12.287,-14.231c2.086,-2.407 4.109,-4.881 6.345,-7.144c1.809,-1.831 3.853,-3.439 5.864,-5.058c2.67,-2.15 5.863,-2.977 9.197,-3.255c7.849,-0.656 15.716,-0.732 23.579,-0.398c4.663,0.198 9.316,0.646 13.99,1.154c-1.166,0.447 -2.225,1.082 -3.613,0.591c-3.307,-1.17 -5.395,-0.627 -7.358,2.191c-3.56,5.109 -8.161,9.178 -12.695,13.35c-7.849,7.222 -15.869,14.288 -22.694,22.532c-4.392,5.307 -8.182,11.046 -11.367,17.162c-0.984,1.891 -1.758,3.891 -2.685,5.814c-0.194,0.404 -0.579,0.813 -0.979,1.004c-1.681,0.804 -3.35,1.684 -5.115,2.251c-7.885,2.535 -15.712,5.304 -23.825,7.028c-2.105,0.448 -3.044,1.347 -3.516,3.341c-1.289,5.444 -2.686,10.864 -4.12,16.273c-1.043,3.932 -2.208,7.831 -3.331,11.741c-0.132,0.459 -0.341,0.897 -0.603,1.486c-0.144,0.138 -0.2,0.135 -0.256,0.132Z" style="fill:#fdfdfd;fill-rule:nonzero;"/><path d="M391.7,129.6c0.175,-0.376 0.282,-0.659 0.504,-1.245c-2.326,0.979 -4.343,1.909 -6.42,2.68c-2.098,0.779 -4.255,1.401 -6.534,2.14c-0.702,-1.53 -0.463,-3.304 -0.364,-4.998c0.101,-1.719 0.559,-3.418 0.862,-5.132c-0.961,-0.306 -0.961,-0.306 -2.575,0.742c0.201,-0.62 0.305,-1.081 0.496,-1.503c0.407,-0.9 0.882,-1.77 1.288,-2.671c0.776,-1.72 0.673,-2.272 -0.574,-3.563c-1.19,-1.232 -1.759,-2.791 -2.093,-4.405c-0.154,-0.742 -0.446,-1.16 -1.068,-1.507c-0.783,-0.435 -1.517,-0.958 -2.148,-1.73c0.464,-0.039 0.927,-0.078 1.386,-0.117c0.302,-1.116 0.302,-1.116 -1.177,-1.601c1.247,-0.543 2.463,-0.848 3.387,-1.542c0.887,-0.665 1.463,-1.74 2.191,-2.622c3.415,-4.132 9.303,-3.929 13.33,-1.365c1.393,0.887 2.691,1.888 3.519,3.403c0.418,0.764 1.062,1.401 1.553,2.13c0.763,1.134 1.72,1.677 3.16,1.639c2.198,-0.059 4.173,0.877 6.046,1.912c6.898,3.813 11.161,9.585 12.691,17.337c0.273,1.385 0.497,2.78 0.753,4.224c-0.324,0.088 -0.526,0.198 -0.724,0.19c-4.89,-0.204 -9.4,1.394 -13.913,2.948c-2.903,1.001 -5.802,2.022 -8.653,3.159c-1.234,0.492 -2.475,0.539 -3.719,0.494c-2.794,-0.099 -5.584,-0.325 -8.467,-0.506c0.041,-0.523 0.09,-1.148 0.139,-1.772c2.708,-1.834 5.027,-4.075 7.124,-6.719m8.111,-2.043c2.86,1.652 5.964,2.187 9.203,1.836c1.063,-0.116 2.098,-0.568 3.117,-0.944c0.209,-0.077 0.29,-0.5 0.429,-0.764c-0.085,-0.109 -0.171,-0.217 -0.256,-0.326c-1.568,0.703 -3.154,1.172 -4.884,1.089c-1.701,-0.081 -3.397,0.037 -4.981,-0.798c-1.482,-0.782 -3.002,-1.492 -4.845,-2.401c0.194,1.265 0.34,2.218 0.51,3.331c-2.204,-1.222 -3.977,-2.66 -5.308,-4.592c-0.748,-1.084 -1.411,-2.225 -2.117,-3.338c-0.252,-0.397 -0.389,-0.961 -1.237,-0.758c0.074,0.396 0.064,0.84 0.237,1.195c1.165,2.389 2.61,4.581 4.661,6.324c1.436,1.221 3.014,2.207 4.792,2.838c0.339,0.12 0.757,0.017 1.415,0.017c-0.52,-0.996 -0.891,-1.707 -1.108,-2.586c0.046,-0.06 0.093,-0.121 0.372,-0.123m-16.026,-18.937c0.546,-1.307 1.238,-2.577 1.583,-3.936c0.197,-0.773 0.004,-1.766 -0.326,-2.525c-0.582,-1.341 -1.704,-1.481 -2.779,-0.488c-1.87,1.728 -2.691,3.986 -2.954,6.424c-0.07,0.651 0.32,1.615 0.827,1.996c0.613,0.461 1.588,0.401 2.311,-0.153c0.431,-0.329 0.792,-0.748 1.338,-1.318Z" style="fill:#fcfcfc;fill-rule:nonzero;"/><path d="M261.636,70.178c4.248,-5.004 8.768,-9.568 13.641,-13.795c2.532,-2.195 4.89,-4.59 7.352,-6.866c2.86,-2.644 5.748,-5.257 8.726,-7.976c0.058,0.223 0.167,0.41 0.14,0.574c-0.299,1.825 0.29,3.497 0.963,5.12c0.283,0.683 0.805,1.316 1.351,1.829c1.519,1.427 3.106,2.78 4.817,4.295c-0.686,0.378 -1.323,0.744 -1.973,1.084c-4.917,2.576 -9.836,5.126 -14.412,8.316c-3.975,2.771 -7.292,6.177 -10.364,9.856c-5.228,6.261 -9.658,13.092 -14.044,19.947c-1.06,1.657 -1.943,3.428 -2.999,5.31c-0.735,-0.351 -1.504,-0.635 -2.183,-1.062c-1.163,-0.73 -2.246,-1.585 -3.406,-2.322c-1.05,-0.667 -1.258,-1.601 -1.021,-2.71c0.091,-0.425 0.224,-0.859 0.432,-1.238c2.352,-4.286 4.484,-8.702 7.37,-12.677c1.841,-2.535 3.689,-5.064 5.61,-7.685Z" style="fill:#fbfbfb;fill-rule:nonzero;"/><path d="M209.251,148.871c2.102,3.126 1.99,6.187 0.114,9.213c-1.911,3.08 -4.608,5.302 -7.929,6.697c-4.749,1.995 -10.037,-0.429 -11.433,-5.171c-0.378,-1.284 -0.511,-2.606 0.013,-3.878c0.728,-1.765 1.243,-3.716 2.359,-5.204c2.413,-3.214 5.746,-4.901 9.881,-4.388c1.57,0.195 3.14,0.584 4.637,1.097c0.838,0.288 1.527,1.011 2.358,1.634Z" style="fill:#fbfcfb;fill-rule:nonzero;"/><path d="M305.695,33.847c-0.229,-0.17 -0.365,-0.261 -0.638,-0.443c2.273,-1.021 4.358,-1.958 6.64,-2.984c0.54,0.774 1.121,1.485 1.571,2.271c2.376,4.146 4.713,8.315 7.08,12.467c0.648,1.137 1.356,2.24 2.174,3.586c-1.551,0.098 -2.942,-0.107 -4.329,-0.112c-1.423,-0.005 -2.846,-0.001 -4.449,-0.001c-0.209,-0.78 -0.429,-1.668 -0.686,-2.545c-1.368,-4.683 -3.855,-8.7 -7.363,-12.239Z" style="fill:#f8f8f7;fill-rule:nonzero;"/><path d="M362.968,80.148c-1.285,-0.633 -2.085,-1.616 -3.216,-2.872c1.432,0.123 2.47,0.213 3.639,0.314c-0.147,0.918 0.643,1.796 -0.423,2.558Z" style="fill:#e3e0dd;fill-rule:nonzero;"/><path d="M203.92,136.145c0.089,-0.13 0.145,-0.127 0.284,-0.135c0.083,0.731 0.083,1.472 0.083,2.214c-0.09,0.001 -0.179,0.002 -0.269,0.004c-0.043,-0.65 -0.087,-1.301 -0.098,-2.083Z" style="fill:#cfa193;fill-rule:nonzero;"/><path d="M362.382,85.062c0.075,-0.031 0.248,0.024 0.362,0.16c-0.127,0.029 -0.196,-0.022 -0.362,-0.16Z" style="fill:#fefefe;fill-rule:nonzero;"/><path d="M336.26,80.197c-1.688,-0.027 -2.491,-1.144 -3.022,-2.333c-1.151,-2.577 -1.804,-5.306 -1.497,-8.153c0.097,-0.896 0.432,-1.818 0.869,-2.612c0.457,-0.829 1.243,-1.456 2.298,-1.296c1.098,0.166 1.709,0.96 1.986,1.972c0.275,1.003 0.539,2.025 0.649,3.056c0.219,2.069 0.312,4.15 0.492,6.224c0.122,1.412 -0.398,2.45 -1.775,3.142m-2.516,-11.873c-0.214,1.338 -0.705,2.673 -0.161,4.036c0.714,-1.099 1.381,-2.126 2.211,-3.402c-0.204,-0.377 -0.543,-1.005 -0.963,-1.783c-0.444,0.422 -0.708,0.673 -1.087,1.149Z" style="fill:#402c1f;fill-rule:nonzero;"/><path d="M399.285,127.849c0.371,0.71 0.742,1.421 1.262,2.417c-0.658,-0 -1.076,0.103 -1.415,-0.017c-1.778,-0.631 -3.356,-1.617 -4.792,-2.838c-2.051,-1.743 -3.496,-3.935 -4.661,-6.324c-0.173,-0.355 -0.163,-0.799 -0.237,-1.195c0.848,-0.203 0.985,0.361 1.237,0.758c0.706,1.113 1.369,2.254 2.117,3.338c1.331,1.932 3.104,3.37 5.308,4.592c-0.17,-1.113 -0.316,-2.066 -0.51,-3.331c1.843,0.909 3.363,1.619 4.845,2.401c1.584,0.835 3.28,0.717 4.981,0.798c1.73,0.083 3.316,-0.386 4.884,-1.089c0.085,0.109 0.171,0.217 0.256,0.326c-0.139,0.264 -0.22,0.687 -0.429,0.764c-1.019,0.376 -2.054,0.828 -3.117,0.944c-3.239,0.351 -6.343,-0.184 -9.403,-1.919c-0.242,0.069 -0.284,0.222 -0.326,0.375Z" style="fill:#4c392d;fill-rule:nonzero;"/><path d="M383.708,108.716c-0.469,0.474 -0.83,0.893 -1.261,1.222c-0.723,0.554 -1.698,0.614 -2.311,0.153c-0.507,-0.381 -0.897,-1.345 -0.827,-1.996c0.263,-2.438 1.084,-4.696 2.954,-6.424c1.075,-0.993 2.197,-0.853 2.779,0.488c0.33,0.759 0.523,1.752 0.326,2.525c-0.345,1.359 -1.037,2.629 -1.66,4.032m-0.115,-5.465c-0.583,1.434 -1.158,2.876 -2.893,3.213c-0.386,1.869 -0.386,1.869 0.172,2.903c1.817,-0.351 2.426,-1.841 3.02,-3.298c0.844,-2.073 0.821,-2.45 0.033,-3.458c-0.085,0.143 -0.168,0.283 -0.332,0.64Z" style="fill:#473428;fill-rule:nonzero;"/><path d="M333.801,68.211c0.322,-0.363 0.586,-0.614 1.03,-1.036c0.42,0.778 0.759,1.406 0.963,1.783c-0.83,1.276 -1.497,2.303 -2.211,3.402c-0.544,-1.363 -0.053,-2.698 0.218,-4.149Z" style="fill:#e3e0dd;fill-rule:nonzero;"/><path d="M399.362,127.764c-0.035,-0.068 0.007,-0.221 0.133,-0.32c0.037,0.115 -0.01,0.176 -0.133,0.32Z" style="fill:#fcfcfc;fill-rule:nonzero;"/><path d="M383.633,103.142c0.124,-0.248 0.207,-0.388 0.292,-0.531c0.788,1.008 0.811,1.385 -0.033,3.458c-0.594,1.457 -1.203,2.947 -3.02,3.298c-0.558,-1.034 -0.558,-1.034 -0.172,-2.903c1.735,-0.337 2.31,-1.779 2.933,-3.322Z" style="fill:#f9f3f2;fill-rule:nonzero;"/></g></svg>