<?xml version="1.0" encoding="UTF-8" standalone="no"?><!DOCTYPE svg PUBLIC "-//W3C//DTD SVG 1.1//EN" "http://www.w3.org/Graphics/SVG/1.1/DTD/svg11.dtd"><svg width="100%" height="100%" viewBox="0 0 813 678" version="1.1" xmlns="http://www.w3.org/2000/svg" xmlns:xlink="http://www.w3.org/1999/xlink" xml:space="preserve" xmlns:serif="http://www.serif.com/" style="fill-rule:evenodd;clip-rule:evenodd;stroke-linejoin:round;stroke-miterlimit:2;"><path d="M378.5,240.5c-0.111,0.617 -0.444,1.117 -1,1.5c-7.461,0.963 -14.795,0.463 -22,-1.5c0.505,-1.419 1.505,-2.085 3,-2c3.266,-1.548 6.599,-3.215 10,-5c0.473,-1.406 1.473,-2.073 3,-2c3.316,-1.993 6.649,-3.993 10,-6c4.639,-4.974 9.305,-9.974 14,-15c-1.763,-0.834 -3.43,-0.334 -5,1.5c-2.982,0.498 -5.982,0.665 -9,0.5c-4.532,0.318 -8.866,-0.015 -13,-1c-1.788,0.285 -3.455,-0.048 -5,-1c1.864,-2.1 4.197,-3.433 7,-4c5.542,-4.263 11.209,-8.263 17,-12c3.76,-4.491 7.76,-8.824 12,-13c-0.073,-1.527 0.594,-2.527 2,-3c1.667,-3.667 0.667,-4.667 -3,-3c-15.115,2.832 -16.781,0.499 -5,-7c1.391,-2.39 3.391,-4.057 6,-5c0.333,-1 1,-1.667 2,-2c0.919,-2.589 2.586,-4.589 5,-6l5,-8c-1.419,-0.951 -3.085,-1.284 -5,-1c-1.419,0.951 -3.085,1.284 -5,1c-2.448,0.973 -5.115,1.306 -8,1c-0.215,-1.679 0.452,-2.679 2,-3c3.641,-3.305 7.308,-6.638 11,-10c-0.073,-1.527 0.594,-2.527 2,-3c2.212,-3.158 4.545,-6.158 7,-9c-0.073,-1.527 0.594,-2.527 2,-3l0,-2c-3.398,0.32 -6.732,-0.013 -10,-1c0.457,-0.798 1.124,-1.131 2,-1c0,-0.667 0.333,-1 1,-1c0.58,-2.249 1.913,-3.915 4,-5c0.61,-1.934 1.61,-3.601 3,-5c0.51,-3.174 2.177,-5.508 5,-7c5.279,-14.583 10.279,-14.583 15,0l1,0c4.584,6.593 9.584,12.927 15,19c-1.843,0.783 -3.843,1.45 -6,2c-0.792,1.2 -0.792,2.533 0,4c1.602,3.595 3.602,6.929 6,10c3.692,3.362 7.359,6.695 11,10c1.604,0.787 2.271,2.12 2,4c-4.532,0.318 -8.866,-0.015 -13,-1l-1,0c-1.333,0 -2,0.667 -2,2c3.583,5.919 7.916,11.252 13,16c3.264,1.594 5.931,3.927 8,7c3.883,0.251 5.883,2.251 6,6c-5.344,-0.166 -10.677,0.001 -16,0.5c0.752,0.671 1.086,1.504 1,2.5l0,2c2.473,1.643 4.473,3.81 6,6.5c1.4,1.438 3.067,2.271 5,2.5c0.499,2.764 2.165,4.431 5,5c3.863,1.194 6.863,3.527 9,7c2.746,1.819 5.413,3.819 8,6c-0.124,0.607 -0.457,0.94 -1,1c-3.05,1.435 -6.383,2.102 -10,2c-2.196,-0.005 -4.196,-0.338 -6,-1l-3,0c-2.652,0.09 -4.985,-0.576 -7,-2c-1.679,-0.215 -2.679,0.452 -3,2c9.589,11.21 21.089,19.877 34.5,26c2.273,1.352 4.106,3.019 5.5,5c-8.573,5.188 -17.24,5.188 -26,0c-2.027,-0.162 -4.027,0.005 -6,0.5c0.752,0.671 1.086,1.504 1,2.5l4,5c0.978,0.311 1.645,0.978 2,2c-4.956,0.994 -9.956,1.327 -15,1c-4.455,0.604 -8.789,1.937 -13,4c-1.802,0.958 -3.802,1.625 -6,2c-1.723,1.718 -3.723,3.051 -6,4c-1.534,1.869 -3.534,3.202 -6,4c-0.79,1.294 -1.79,2.461 -3,3.5c-7.241,0.885 -14.241,0.385 -21,-1.5l-4,0c-16.67,0.167 -33.337,0 -50,-0.5c0.971,-1.481 2.304,-2.315 4,-2.5c2.391,-1.482 4.724,-3.149 7,-5c2.3,-2.484 4.967,-4.484 8,-6c1.333,-2 3,-3.667 5,-5c1.085,-2.087 2.751,-3.42 5,-4c1.655,-2.653 3.655,-4.986 6,-7c0.131,-0.876 -0.202,-1.543 -1,-2c-2.95,1.205 -5.95,2.205 -9,3l-3,0Zm152,6c-1.446,1.113 -3.113,1.28 -5,0.5c0.873,-1.045 1.873,-1.878 3,-2.5c1.105,-1.1 2.438,-1.767 4,-2c1.642,-1.303 3.309,-2.636 5,-4c2.333,-1.667 4.333,-3.667 6,-6c1.975,-1.637 3.975,-3.304 6,-5c2.36,-3.027 5.027,-5.694 8,-8c3.446,-5.015 6.78,-10.015 10,-15c-1.57,-1.059 -2.903,-0.559 -4,1.5c-2.24,0.977 -4.573,1.477 -7,1.5c-4.515,1.312 -9.182,1.312 -14,0c-0.209,-0.586 -0.543,-1.086 -1,-1.5c3.21,-2.717 6.544,-5.217 10,-7.5c1.411,-2.414 3.411,-4.081 6,-5c0.333,-1 1,-1.667 2,-2c3.674,-4.672 7.34,-9.339 11,-14c0.61,-0.891 0.943,-1.891 1,-3c-3.606,0.289 -7.106,-0.044 -10.5,-1c-0.667,-0.667 -0.667,-1.333 0,-2c1.517,-1.74 3.017,-3.406 4.5,-5c1.329,-3.046 3.329,-5.379 6,-7l0,-1c-0.073,-1.527 0.594,-2.527 2,-3c2.041,-3.691 4.041,-7.358 6,-11l0,-1c0.236,-3.121 1.569,-5.454 4,-7c0.543,-2.718 1.209,-5.385 2,-8c0.357,-2.089 1.023,-4.089 2,-6c1.717,1.168 2.384,2.835 2,5c1.364,4.119 3.031,8.119 5,12c1.565,2.009 2.565,4.343 3,7c4.606,7.937 9.606,15.603 15,23c1.604,0.787 2.271,2.12 2,4c-2.955,0.659 -5.955,0.992 -9,1c6.57,12.238 15.903,21.905 28,29c0.904,0.709 1.237,1.709 1,3c-6.297,1.039 -12.63,1.206 -19,0.5c-0.916,-0.278 -1.582,-0.778 -2,-1.5c-1.437,-1.225 -3.104,-2.225 -5,-3c-0.792,1.2 -0.792,2.533 0,4c8.678,11.011 18.678,20.678 30,29c1.527,-0.073 2.527,0.594 3,2c5.955,3.657 11.621,7.824 17,12.5c-2.119,2.393 -4.785,3.726 -8,4c-4.321,0.499 -8.654,0.666 -13,0.5c-3.026,-0.674 -6.026,-1.507 -9,-2.5c-0.881,-0.708 -1.547,-1.542 -2,-2.5l-2,-3c-1.39,-1.399 -2.39,-3.066 -3,-5c-1.933,-4.594 -4.933,-8.26 -9,-11c-1.88,0.271 -3.213,-0.396 -4,-2c-5.735,-2.934 -11.735,-3.6 -18,-2c-4.481,1.148 -9.148,1.315 -14,0.5c-0.916,-0.278 -1.582,-0.778 -2,-1.5c-1.291,0.237 -2.291,-0.096 -3,-1c-4.346,-0.166 -8.679,0.001 -13,0.5c-1.558,0.21 -2.891,0.71 -4,1.5c-3.059,2.153 -6.059,4.487 -9,7c-2.413,2.406 -4.413,5.072 -6,8c-1,1.667 -2.333,3 -4,4c-1.419,0.951 -3.085,1.284 -5,1Zm63,203c-0.764,-2.24 -1.598,-4.573 -2.5,-7c-0.476,-14.339 -0.309,-28.673 0.5,-43c-0.555,-3.512 0.112,-6.512 2,-9c1.109,-0.057 2.109,-0.39 3,-1c1.159,-1.75 2.826,-2.75 5,-3c1.716,-1.525 3.716,-2.525 6,-3c1.943,-2.971 4.609,-4.971 8,-6c0.333,-1 1,-1.667 2,-2c1.333,-2 3,-3.667 5,-5l2,-2c9.871,-0.841 19.871,-1.841 30,-3l2,0c1.159,-1.75 2.826,-2.75 5,-3c2.967,-1.859 5.967,-3.359 9,-4.5c5.21,5.706 10.21,11.539 15,17.5c6.035,6.037 12.369,11.704 19,17c1.653,0.16 2.986,0.826 4,2c5.934,1.494 6.934,4.327 3,8.5c-1.293,0.49 -2.627,0.657 -4,0.5c-0.111,0.617 -0.444,1.117 -1,1.5c-11.19,2.153 -22.19,1.986 -33,-0.5l0,-1l-8,-1c-0.739,-0.131 -1.406,0.036 -2,0.5c0.752,0.671 1.086,1.504 1,2.5c6.973,7.64 14.306,14.973 22,22c2.589,0.919 4.589,2.586 6,5c0.806,1.228 1.806,2.228 3,3l2,1c2.249,0.58 3.915,1.913 5,4c3.282,1.64 6.282,3.64 9,6c1.295,0.988 2.628,1.988 4,3c1.527,-0.073 2.527,0.594 3,2c1.676,0.683 2.343,2.017 2,4l-4,0c-1.109,0.057 -2.109,0.39 -3,1c-2.436,1.371 -5.103,2.371 -8,3c-8.877,1.579 -17.543,1.245 -26,-1c-2.357,-0.163 -4.69,0.003 -7,0.5c0.881,0.708 1.547,1.542 2,2.5c2.391,1.482 4.724,3.149 7,5c1.679,0.392 3.346,0.892 5,1.5c2.299,2.817 4.965,4.983 8,6.5c1.527,-0.073 2.527,0.594 3,2c0.667,0 1,0.333 1,1l2,0c3.895,0.962 7.561,2.296 11,4c2.436,1.371 5.103,2.371 8,3c1.273,0.577 1.273,1.243 0,2c-1.571,0.809 -3.238,1.143 -5,1c-1.613,1.588 -3.613,2.588 -6,3c-0.847,1.466 -2.18,2.3 -4,2.5c-2.982,0.498 -5.982,0.665 -9,0.5c-2.448,0.973 -5.115,1.306 -8,1c-5.374,0.997 -10.708,0.664 -16,-1c-4.549,-0.124 -8.882,-0.791 -13,-2c-1.291,-0.237 -2.291,0.096 -3,1c0.333,1 1,1.667 2,2c1.527,-0.073 2.527,0.594 3,2c1.527,-0.073 2.527,0.594 3,2l1,0c4.524,1.543 8.524,3.877 12,7c6.102,4.035 12.769,6.702 20,8c2.567,0.221 4.901,0.888 7,2l6,0c0.215,1.679 -0.452,2.679 -2,3c-2.044,1.008 -4.044,2.008 -6,3c-0.111,0.617 -0.444,1.117 -1,1.5c-4.812,0.706 -9.646,1.206 -14.5,1.5c-3.782,0.121 -7.282,-0.546 -10.5,-2c-1.208,-0.734 -2.541,-1.067 -4,-1c-2.198,0.38 -3.865,-0.287 -5,-2c-3.37,-1.355 -6.703,-2.689 -10,-4c-1.512,1.817 -3.512,2.817 -6,3l-1,0c-7.83,2.026 -15.83,2.526 -24,1.5c-0.544,-0.717 -1.211,-1.217 -2,-1.5c-1.527,0.073 -2.527,-0.594 -3,-2c-3.948,-2.108 -7.781,-4.441 -11.5,-7c-0.905,-5.847 -2.072,-11.514 -3.5,-17c-1.737,-4.042 -2.737,-8.376 -3,-13l0,-1c-0.958,-1.802 -1.625,-3.802 -2,-6c-0.104,-2.203 -0.77,-4.203 -2,-6c-1.424,-2.015 -2.09,-4.348 -2,-7c0.268,-1.599 -0.066,-2.932 -1,-4c-1.037,-1.43 -1.704,-3.097 -2,-5l0,-1Zm-513,37c-3.893,-0.613 -7.226,-2.28 -10,-5c3.819,-2.268 7.819,-3.935 12,-5c6.314,-2.099 12.314,-4.766 18,-8c2.322,-2.164 4.989,-3.831 8,-5c9.645,-6.983 18.978,-14.316 28,-22c-0.342,-0.838 -1.008,-1.172 -2,-1c-1.21,0.432 -2.21,1.099 -3,2c-6.599,4.146 -13.932,5.813 -22,5c-6.582,0.344 -12.916,-0.323 -19,-2c-3.432,-0.257 -6.766,-0.924 -10,-2c-1.88,0.271 -3.213,-0.396 -4,-2c-1.274,-0.689 -1.274,-1.523 0,-2.5c4.244,-2.428 8.578,-4.594 13,-6.5c1.085,-2.087 2.751,-3.42 5,-4c1.422,-1.425 3.089,-2.425 5,-3c1.411,-2.414 3.411,-4.081 6,-5c1.333,-2 3,-3.667 5,-5c2.306,-2.973 4.973,-5.64 8,-8c2.409,-3.075 5.075,-5.742 8,-8c0.84,-2.353 2.174,-4.353 4,-6c0,-0.667 0.333,-1 1,-1c0.224,-4.015 -0.943,-4.681 -3.5,-2c-2.724,1.187 -5.557,1.853 -8.5,2c-0.111,0.617 -0.444,1.117 -1,1.5c-6.693,2.393 -13.36,2.893 -20,1.5c-5.66,0.059 -10.994,-0.941 -16,-3c0.453,-0.958 1.12,-1.792 2,-2.5c4.47,-1.989 8.803,-4.155 13,-6.5c2.031,-2.022 4.365,-3.689 7,-5c0.79,-0.901 1.79,-1.568 3,-2c1.411,-2.414 3.411,-4.081 6,-5c3,-3.667 6.333,-7 10,-10c0.919,-2.589 2.586,-4.589 5,-6c2.418,-3.084 4.418,-6.418 6,-10c-2.104,0.299 -4.104,-0.034 -6,-1c2.376,-4.376 5.71,-7.71 10,-10c-0.652,-1.225 -1.819,-1.892 -3.5,-2c-7.538,1.426 -15.038,1.259 -22.5,-0.5c-1.507,-0.837 -2.007,-2.004 -1.5,-3.5c1.725,-0.964 3.559,-1.631 5.5,-2c2.62,-1.662 5.287,-3.328 8,-5c4.053,-3.383 8.386,-6.383 13,-9c1.667,-2.333 3.667,-4.333 6,-6c1.622,-2.955 3.622,-5.622 6,-8c0.641,-0.982 1.307,-1.982 2,-3c-0.457,-0.798 -1.124,-1.131 -2,-1c-2.009,1.565 -4.343,2.565 -7,3l-1,0c-0.418,0.722 -1.084,1.222 -2,1.5c-5,0.667 -10,0.667 -15,0c-0.556,-0.383 -0.889,-0.883 -1,-1.5c-1.773,-0.814 -2.273,-2.148 -1.5,-4c1.584,-1.361 3.418,-2.028 5.5,-2c9.928,-7.259 18.928,-15.592 27,-25c0.941,-1.55 1.607,-3.216 2,-5c-6.308,0.148 -12.641,-0.185 -19,-1c-2.515,-1.36 -2.182,-2.36 1,-3c7.014,-7.014 13.681,-14.347 20,-22c1.374,-2.358 2.707,-4.692 4,-7c0.838,-0.342 1.172,-1.008 1,-2c-3.184,-1.914 -6.851,-2.58 -11,-2c-0.237,-1.291 0.096,-2.291 1,-3c3.695,-4.689 7.361,-9.355 11,-14c1.457,-2.128 2.457,-4.462 3,-7c-0.073,-1.527 0.594,-2.527 2,-3c-0.271,-1.88 0.396,-3.213 2,-4c1.012,-2.757 2.012,-5.424 3,-8c-0.034,-2.699 0.633,-5.199 2,-7.5c0.949,-0.617 1.782,-0.451 2.5,0.5c0.49,1.293 0.657,2.627 0.5,4l1,2c1.238,1.714 1.905,3.714 2,6c2.264,5.758 4.93,11.424 8,17c3.911,4.822 7.578,9.822 11,15c-3.607,0.913 -6.94,2.247 -10,4c5.17,8.187 11.17,15.854 18,23c1.683,1.353 3.016,3.02 4,5l1,2c0.904,0.709 1.237,1.709 1,3c-5.375,-0.328 -10.708,0.005 -16,1c0.746,1.236 1.079,2.57 1,4c5.054,5.721 10.387,11.054 16,16c2.249,0.58 3.915,1.913 5,4c0.641,0.982 1.307,1.982 2,3c-2.351,1.729 -5.018,2.396 -8,2c-1.052,-0.149 -2.052,0.017 -3,0.5c1.964,1.451 3.297,3.284 4,5.5l1,2c4.494,3.311 9.161,6.478 14,9.5c2.118,0.635 4.118,1.469 6,2.5c0.916,-0.043 1.583,-0.376 2,-1c2.163,-1.583 4.496,-2.916 7,-4c2.304,-1.999 4.637,-3.999 7,-6c2,-1.333 3.667,-3 5,-5c-5.513,-1.484 -11.18,-2.817 -17,-4c-2.436,-0.249 -4.436,-1.249 -6,-3c0.82,-1.611 2.154,-2.278 4,-2c0.342,-0.838 1.008,-1.172 2,-1c1.302,-2.322 3.302,-3.655 6,-4c1.014,-1.174 2.347,-1.84 4,-2c2.334,-3.329 5.334,-5.996 9,-8c1.333,-2 3,-3.667 5,-5c2.427,-3.605 5.093,-7.105 8,-10.5c-5.211,1.129 -10.544,1.962 -16,2.5c-2.795,0.047 -5.461,-0.453 -8,-1.5c3.919,-3.966 8.252,-7.466 13,-10.5c3,-3.667 6.333,-7 10,-10c0,-0.667 0.333,-1 1,-1c0.58,-2.249 1.913,-3.915 4,-5c0.057,-1.109 0.39,-2.109 1,-3c0,-1.333 -0.667,-2 -2,-2c-4.055,0.324 -8.055,-0.009 -12,-1c0.124,-0.607 0.457,-0.94 1,-1c0.58,-2.249 1.913,-3.915 4,-5c6.432,-6.762 12.098,-14.096 17,-22c-1.809,-0.791 -3.809,-0.791 -6,0c0.223,-3.662 1.223,-6.995 3,-10l1,0c0.255,-2.467 1.255,-4.467 3,-6c0.25,-2.174 1.25,-3.841 3,-5c-0.073,-1.527 0.594,-2.527 2,-3l0,-1c-0.053,-3.638 1.613,-5.638 5,-6l0,3c1.471,3.052 3.138,6.052 5,9c1.174,1.014 1.84,2.347 2,4c1.104,3.31 2.771,6.31 5,9c1.756,1.052 2.423,2.719 2,5c-2.582,-0.475 -4.582,0.192 -6,2c2.663,3.319 4.83,6.986 6.5,11c4.455,4.966 9.289,9.3 14.5,13c0.904,0.709 1.237,1.709 1,3c-5.011,-0.166 -10.011,0.001 -15,0.5c0.556,0.383 0.889,0.883 1,1.5c6.285,8.285 13.618,15.618 22,22c-4.358,2.47 -8.692,2.47 -13,0c-1.478,-0.262 -2.811,0.071 -4,1c1.72,2.702 3.387,5.368 5,8c3.027,2.36 5.694,5.027 8,8c2.249,0.58 3.915,1.913 5,4c0.983,1.35 2.316,2.35 4,3c-0.124,0.607 -0.457,0.94 -1,1c-2.405,1.268 -5.072,1.935 -8,2c-0.709,0.904 -1.709,1.237 -3,1c-5.57,2.851 -11.57,4.518 -18,5c-1.802,0.958 -3.802,1.625 -6,2c-0.667,0 -1,0.333 -1,1c-3.564,2.419 -7.564,4.086 -12,5l-5,2c-0.844,2.259 -2.511,3.259 -5,3c-2.353,0.84 -4.353,2.174 -6,4c-2.403,2.709 -5.403,4.709 -9,6c-2.973,1.647 -5.64,3.647 -8,6c-3.063,4.066 -6.729,7.399 -11,10c-12.023,3.024 -23.69,2.024 -35,-3c1.849,4.194 4.516,7.861 8,11c3.376,3.111 6.876,6.111 10.5,9c0.483,0.948 0.649,1.948 0.5,3c-0.201,3.63 -1.868,6.297 -5,8c0.157,1.373 -0.01,2.707 -0.5,4c-1.067,2.192 -2.567,3.858 -4.5,5c-0.61,1.934 -1.61,3.601 -3,5l-1,2c0.334,2.991 -0.666,5.324 -3,7c-0.61,0.891 -0.943,1.891 -1,3c-1.158,3.489 -2.491,6.822 -4,10c-0.065,2.928 -0.732,5.595 -2,8c-1.96,4.509 -3.293,9.175 -4,14c0.05,5.889 -0.616,11.556 -2,17c-0.828,6.153 -1.328,12.487 -1.5,19c-0.698,2.504 -1.531,4.837 -2.5,7l0,4c-1.287,4.205 -2.954,8.205 -5,12c-1.438,3.573 -2.772,7.239 -4,11c-0.253,3.54 -0.919,6.873 -2,10c0.22,4.6 -0.446,8.933 -2,13l-1,0c-0.32,7.844 -0.987,15.511 -2,23c-10.339,0.166 -20.672,0 -31,-0.5c-1.824,-0.66 -3.157,-1.827 -4,-3.5c-0.667,0 -1,-0.333 -1,-1c-2.584,0.069 -4.584,1.235 -6,3.5c-1.293,0.49 -2.627,0.657 -4,0.5c-0.992,-0.172 -1.658,0.162 -2,1c-3.531,3.503 -7.864,4.837 -13,4c-5.676,0.166 -11.343,-0.001 -17,-0.5c-1.882,-0.198 -3.548,-0.698 -5,-1.5l-11,-5.5c3.682,-1.178 7.349,-2.344 11,-3.5c7.236,-1.899 14.236,-4.565 21,-8c2.308,-1.293 4.642,-2.626 7,-4c2.644,-2.223 5.644,-3.889 9,-5c2.89,-3.125 6.223,-5.792 10,-8l0,-1c-0.683,-1.676 -2.017,-2.343 -4,-2c-0.111,0.617 -0.444,1.117 -1,1.5c-3.851,0.414 -7.517,1.248 -11,2.5c-7.524,0.336 -15.024,1.003 -22.5,2c-7.297,-0.434 -14.464,-1.434 -21.5,-3c-1.903,-0.296 -3.57,-0.963 -5,-2Zm7,81c-1.251,-0.972 -0.918,-1.639 1,-2c3.283,-0.827 6.617,-1.16 10,-1l1,0c4.734,-1.645 9.734,-2.311 15,-2c3.28,-1.212 6.613,-2.212 10,-3c6.15,-1.043 12.484,-1.71 19,-2c7.807,-1.217 15.807,-1.884 24,-2c3.564,-0.923 7.231,-1.256 11,-1c6.479,-0.991 13.146,-1.324 20,-1c6.502,-0.883 13.168,-1.549 20,-2c-0.25,-2.174 -1.25,-3.841 -3,-5c-3.913,-2.244 -6.247,-5.577 -7,-10c0.134,-1.792 -0.199,-3.458 -1,-5c-0.722,-0.418 -1.222,-1.084 -1.5,-2c-0.667,-8.333 -0.667,-16.667 0,-25c0.21,-1.558 0.71,-2.891 1.5,-4c-0.054,-3.492 0.946,-6.492 3,-9c1.599,-7.794 3.599,-15.46 6,-23c1.216,-5.217 2.883,-10.217 5,-15c0.551,-3.307 0.884,-6.64 1,-10c0.553,-10.684 1.386,-21.351 2.5,-32c0.21,-1.558 0.71,-2.891 1.5,-4c1.595,-5.842 3.095,-11.842 4.5,-18c0.377,-1.442 1.21,-2.442 2.5,-3c0.953,-5.543 2.953,-10.543 6,-15c0.154,-2.47 1.154,-4.47 3,-6c-0.073,-1.527 0.594,-2.527 2,-3c-0.073,-1.527 0.594,-2.527 2,-3c1.765,-3.209 3.765,-6.209 6,-9c0.919,-2.589 2.586,-4.589 5,-6c1.676,-3.848 4.342,-6.848 8,-9c1.924,-2.591 4.258,-4.925 7,-7c2.378,-2.378 5.045,-4.378 8,-6c1.448,-2.764 3.781,-4.431 7,-5c0,-0.667 0.333,-1 1,-1c1.836,-2.088 4.169,-3.421 7,-4c1.187,-2.475 3.187,-3.475 6,-3c2.289,-1.887 4.955,-3.221 8,-4c2.129,-0.703 4.129,-1.703 6,-3c3.407,-1.574 7.073,-2.574 11,-3c3.092,-0.684 6.092,-1.684 9,-3c6.089,-1.736 12.422,-2.736 19,-3l1,0c8.948,-1.532 18.115,-2.198 27.5,-2c11.036,-0.111 21.869,0.555 32.5,2c6.936,2.063 13.936,2.396 21,1c1.956,-0.992 3.956,-1.992 6,-3l1,-2c1.411,-2.414 3.411,-4.081 6,-5c0.79,-0.901 1.79,-1.568 3,-2c1.159,-1.75 2.826,-2.75 5,-3c2.015,-1.424 4.348,-2.09 7,-2c0.73,-1.545 2.063,-2.378 4,-2.5c5.667,-0.667 11.333,-0.667 17,0c0.916,0.278 1.582,0.778 2,1.5c1.109,0.057 2.109,0.39 3,1c4.693,-0.04 9.359,-0.373 14,-1c6.81,-2.077 13.81,-3.743 21,-5c6.766,-2.361 13.766,-4.361 21,-6c3.899,-1.291 7.899,-1.291 12,0c-0.726,-4.179 -0.726,-8.179 0,-12c0.67,-3.844 3.004,-6.344 7,-7.5c2.31,-0.497 4.643,-0.663 7,-0.5c1.527,-0.073 2.527,0.594 3,2c3.004,1.676 5.338,4.01 7,7c2.59,-2.132 5.257,-4.298 8,-6.5c2.441,-1.392 4.774,-1.559 7,-0.5c2.174,0.25 3.841,1.25 5,3l1,0c0.722,0.418 1.222,1.084 1.5,2c0.233,4.085 0.733,8.085 1.5,12c0.992,-0.172 1.658,0.162 2,1c2.467,0.255 4.467,1.255 6,3c5.316,2.972 10.65,5.972 16,9c2.249,0.58 3.915,1.913 5,4c0.845,1.171 1.511,2.505 2,4c0.617,0.111 1.117,0.444 1.5,1c0.497,2.31 0.663,4.643 0.5,7c2.073,3.076 4.739,5.41 8,7c2.467,0.255 4.467,1.255 6,3c2.135,1.571 4.468,2.904 7,4c1.527,-0.073 2.527,0.594 3,2c2.813,-0.475 4.813,0.525 6,3c0.342,0.838 1.008,1.172 2,1c1.225,0.652 1.892,1.819 2,3.5c-0.014,1.385 -0.348,2.551 -1,3.5c-2.373,7.792 -7.04,13.792 -14,18c-2.421,1.738 -5.088,3.071 -8,4c-0.111,0.617 -0.444,1.117 -1,1.5c-7.424,0.768 -14.757,1.935 -22,3.5l-3,0c-2.015,1.424 -4.348,2.09 -7,2l-8,4c-1.904,0.238 -3.238,1.238 -4,3c-1.333,2 -3,3.667 -5,5c-1.517,0.011 -2.684,0.677 -3.5,2c-1.067,-1.783 -2.567,-2.283 -4.5,-1.5c-3.457,2.387 -6.457,5.22 -9,8.5c-1.656,3.238 -4.323,5.238 -8,6c-0.992,-0.172 -1.658,0.162 -2,1c-1.667,2.333 -3.667,4.333 -6,6c1.166,12.825 1.166,25.491 0,38l0,19l-1,0c0.049,3.578 0.715,6.911 2,10c0.849,2.388 1.849,4.721 3,7c-0.206,2.995 0.46,5.662 2,8c-0.16,1.699 0.006,3.366 0.5,5c2.394,4.57 4.227,9.236 5.5,14c1.268,2.405 1.935,5.072 2,8c0.904,0.709 1.237,1.709 1,3c2.192,7.458 3.859,15.125 5,23c1.517,2.535 2.85,5.202 4,8c1.105,1.1 2.438,1.767 4,2c3.566,0.292 6.566,1.626 9,4c1.373,-0.157 2.707,0.01 4,0.5c1.898,1.417 3.564,2.917 5,4.5c0.333,1 1,1.667 2,2c2.792,0.892 4.125,2.892 4,6c0.888,2.554 1.221,5.221 1,8c12.676,1.705 25.343,3.038 38,4c6.846,0.318 13.513,0.985 20,2c6.554,1.978 13.221,3.311 20,4c4.233,0.039 8.233,0.705 12,2l2,0c1.052,-0.149 2.052,0.017 3,0.5c1.333,0.667 1.333,1.333 0,2c-209.5,0.833 -418.834,0.666 -628,-0.5Zm408,-122l2,-2c1.619,-2.458 3.452,-4.791 5.5,-7c0.749,-1.135 0.583,-2.135 -0.5,-3c-3.757,2.751 -6.757,6.085 -9,10c-3.365,2.349 -6.531,5.016 -9.5,8c-1.332,2.16 -2.832,4.16 -4.5,6c-0.548,2.584 -2.215,3.584 -5,3c0.237,-1.291 -0.096,-2.291 -1,-3c-4.162,3.501 -7.162,7.835 -9,13c-0.58,2.249 -1.913,3.915 -4,5c-0.057,1.109 -0.39,2.109 -1,3c0.073,1.527 -0.594,2.527 -2,3c-1.008,2.044 -2.008,4.044 -3,6c0.155,3.216 -0.845,5.883 -3,8c-0.846,3.048 -1.846,6.048 -3,9c-0.741,5.971 -1.075,11.971 -1,18c1.143,3.482 3.476,5.482 7,6c3.018,-0.165 6.018,0.002 9,0.5c0.916,0.278 1.582,0.778 2,1.5c2.238,1.616 4.571,2.949 7,4c3.706,2.405 6.206,5.738 7.5,10c0.671,0.752 1.504,1.086 2.5,1c24.19,-0.408 48.19,0.259 72,2c5.766,1.304 11.433,1.304 17,0c-2.927,-1.257 -5.261,-3.257 -7,-6c-3.794,-3.57 -7.127,-7.57 -10,-12l-11,-5.5c-1.74,-1.517 -3.406,-3.017 -5,-4.5c-1,-0.333 -1.667,-1 -2,-2c-6.369,-4.523 -12.369,-9.523 -18,-15c-5.578,-5.075 -11.078,-10.409 -16.5,-16c-1.122,-1.907 -1.955,-3.907 -2.5,-6c-1.406,-0.473 -2.073,-1.473 -2,-3c-2.158,-7.766 -4.158,-15.599 -6,-23.5c0.632,-3.141 1.965,-5.974 4,-8.5Zm-193,21c-1.928,-1.974 -4.261,-3.474 -7,-4.5c-3.52,-3.853 -7.353,-7.353 -11.5,-10.5c-1.03,0.336 -1.53,1.003 -1.5,2l14,15l3,2c2.552,3.121 4.552,6.455 6,10c-0.667,1.333 -1.667,2.333 -3,3c-1.333,0 -2,0.667 -2,2c-1.017,2.411 -2.684,4.078 -5,5c-1,0.333 -1.667,1 -2,2c-3.385,5.719 -8.052,10.052 -14,13c-1.562,0.233 -2.895,0.9 -4,2c-5.867,5.104 -11.534,10.437 -17,16c-1.264,4.021 -1.264,8.021 0,12c2.586,0.98 5.253,1.313 8,1c2.991,-0.334 5.324,0.666 7,3c1.527,-0.073 2.527,0.594 3,2c0.333,1 1,1.667 2,2c1.422,0.25 2.422,1.083 3,2.5c19.706,0.675 39.373,0.175 59,-1.5l0,-3c-2.667,-0.667 -4.333,-2.333 -5,-5c-2.442,-1.621 -3.775,-3.954 -4,-7c-2.775,-4.132 -5.108,-8.465 -7,-13c-1.565,-2.009 -2.565,-4.343 -3,-7l0,-4c-1.177,-2.179 -2.177,-4.513 -3,-7c-0.722,-0.418 -1.222,-1.084 -1.5,-2c-0.497,-2.646 -0.664,-5.313 -0.5,-8l0,-1c-0.907,-2.157 -1.573,-4.49 -2,-7c0.172,-0.992 -0.162,-1.658 -1,-2c-2.932,-4.602 -6.599,-8.602 -11,-12Zm93,11l0,-29l-3,0c0.295,2.235 -0.039,4.235 -1,6c0.08,3.281 -0.587,6.281 -2,9c0.313,3.542 -0.021,6.875 -1,10c0.138,4.914 -0.528,9.581 -2,14c-0.951,1.419 -1.284,3.085 -1,5c-0.375,2.198 -1.042,4.198 -2,6c-0.166,9.339 0,18.673 0.5,28c4.496,2.337 9.329,3.837 14.5,4.5c0.556,0.383 0.889,0.883 1,1.5c4.193,0.866 7.193,3.199 9,7c2.259,0.844 3.259,2.511 3,5c3.991,0.628 5.324,-0.705 4,-4c-0.667,0 -1,-0.333 -1,-1c-1.762,-0.762 -2.762,-2.096 -3,-4c-1.406,-0.473 -2.073,-1.473 -2,-3c-1.069,-2.469 -2.402,-4.802 -4,-7c-0.992,-1.956 -1.992,-3.956 -3,-6l0,-2c-1.424,-2.015 -2.09,-4.348 -2,-7c-0.934,-1.068 -1.268,-2.401 -1,-4c-1.54,-2.338 -2.206,-5.005 -2,-8c-0.79,-1.109 -1.29,-2.442 -1.5,-4c-0.499,-5.657 -0.666,-11.324 -0.5,-17Z" style="fill:#1b1a1a;"/></svg>