<?xml version="1.0" encoding="UTF-8" standalone="no"?><!DOCTYPE svg PUBLIC "-//W3C//DTD SVG 1.1//EN" "http://www.w3.org/Graphics/SVG/1.1/DTD/svg11.dtd"><svg width="100%" height="100%" viewBox="0 0 400 400" version="1.1" xmlns="http://www.w3.org/2000/svg" xmlns:xlink="http://www.w3.org/1999/xlink" xml:space="preserve" xmlns:serif="http://www.serif.com/" style="fill-rule:evenodd;clip-rule:evenodd;stroke-linejoin:round;stroke-miterlimit:2;"><path d="M5.629,239.964c-0.47,-2.672 -0.949,-5.223 -1.338,-7.788c-0.381,-2.517 -0.69,-5.046 -0.994,-7.575c-0.288,-2.39 -0.548,-4.784 -0.781,-7.181c-0.143,-1.476 -0.273,-2.958 -0.304,-4.439c-0.114,-5.48 -0.249,-10.961 -0.242,-16.441c0.002,-2.636 0.299,-5.273 0.468,-7.909c0.092,-1.434 0.178,-2.869 0.297,-4.3c0.189,-2.263 0.336,-4.532 0.625,-6.782c0.371,-2.892 0.786,-5.783 1.324,-8.648c0.915,-4.872 1.799,-9.758 2.947,-14.578c3.831,-16.077 9.749,-31.374 17.496,-45.968c6.828,-12.863 15,-24.806 24.454,-35.878c12.772,-14.961 27.437,-27.748 44.014,-38.338c16.759,-10.706 34.742,-18.668 53.899,-23.983c7.969,-2.212 16.042,-3.952 24.239,-5.067c3.951,-0.538 7.92,-0.959 11.887,-1.372c6.989,-0.726 14.005,-0.95 21.023,-0.771c4.269,0.108 8.537,0.408 12.792,0.779c4.297,0.374 8.603,0.782 12.858,1.465c5.265,0.845 10.519,1.833 15.714,3.036c11.652,2.698 22.947,6.51 33.922,11.281c18.869,8.202 36.014,19.103 51.465,32.68c13.21,11.608 24.723,24.708 34.432,39.369c12.318,18.601 21.303,38.697 26.86,60.316c1.595,6.205 2.953,12.458 3.866,18.8c0.574,3.99 1.181,7.978 1.595,11.986c0.338,3.274 0.478,6.572 0.59,9.864c0.154,4.504 0.287,9.013 0.259,13.518c-0.019,3.2 -0.295,6.399 -0.499,9.595c-0.166,2.592 -0.331,5.186 -0.61,7.767c-0.315,2.902 -0.694,5.8 -1.158,8.682c-0.944,5.863 -2.101,11.685 -3.549,17.447c-5.752,22.887 -15.176,44.126 -28.455,63.654c-12.675,18.64 -28.135,34.592 -46.216,48.012c-16.163,11.997 -33.793,21.244 -52.792,27.885c-8.333,2.912 -16.837,5.221 -25.484,6.967c-4.399,0.888 -8.839,1.593 -13.282,2.239c-2.974,0.433 -5.981,0.659 -8.98,0.9c-3.002,0.24 -6.02,0.297 -9.015,0.588c-4.921,0.477 -9.847,0.281 -14.766,0.182c-3.606,-0.072 -7.208,-0.461 -10.807,-0.761c-3.044,-0.253 -6.096,-0.482 -9.12,-0.894c-6.287,-0.859 -12.529,-1.98 -18.713,-3.423c-19.407,-4.527 -37.711,-11.824 -54.93,-21.843c-21.254,-12.366 -39.601,-28.12 -55.008,-47.289c-13.538,-16.843 -24.087,-35.383 -31.542,-55.674c-3.593,-9.777 -6.359,-19.786 -8.441,-30.11m234.961,123.194c0.092,-0.001 0.185,0.009 0.275,-0.004c1.943,-0.283 2.408,-1.24 1.343,-2.837c-1.208,-1.811 -2.444,-3.604 -3.682,-5.395c-1.349,-1.95 -3.025,-3.466 -5.32,-4.288c-0.942,-0.337 -1.828,-0.925 -2.629,-1.543c-4.219,-3.249 -8.424,-6.518 -12.581,-9.845c-0.892,-0.713 -1.582,-1.684 -2.336,-2.561c-0.629,-0.732 -0.628,-1.537 -0.071,-2.303c0.598,-0.822 1.198,-1.651 1.883,-2.399c1.851,-2.018 3.868,-3.897 5.593,-6.015c1.78,-2.185 3.351,-4.548 4.91,-6.901c2.16,-3.261 3.35,-6.909 3.923,-10.758c0.183,-1.232 0.227,-2.485 0.32,-3.73c0.177,-2.349 0.371,-4.698 0.494,-7.051c0.034,-0.633 -0.259,-1.284 -0.23,-1.918c0.08,-1.739 -0.172,-3.435 -0.661,-5.077c-0.285,-0.955 -0.037,-1.615 0.59,-2.261c0.388,-0.399 0.801,-0.788 1.116,-1.242c1.53,-2.21 3.101,-4.396 4.526,-6.672c2.816,-4.499 5.126,-9.251 6.822,-14.292c1.196,-3.557 2.297,-7.133 3.064,-10.816c0.528,-2.533 1.344,-5.005 1.902,-7.533c0.645,-2.928 1.514,-5.818 1.624,-8.85c0.03,-0.827 0.185,-1.652 0.322,-2.471c0.421,-2.509 0.836,-5.018 0.778,-7.576c-0.014,-0.651 -0.134,-1.345 0.043,-1.946c0.605,-2.052 0.14,-4.11 -0.201,-6.061c-0.323,-1.846 -0.687,-3.716 -1.114,-5.555c-0.681,-2.929 -1.484,-5.829 -2.248,-8.738c-0.217,-0.825 -0.477,-1.639 -0.717,-2.459c0.525,0.037 0.863,0.18 1.11,0.418c0.999,0.957 1.917,2.006 2.962,2.907c2.174,1.875 4.42,3.664 6.611,5.518c0.565,0.478 1.018,0.408 1.42,-0.116c0.422,-0.55 0.769,-1.155 1.163,-1.727c4.194,-6.087 7.794,-12.524 11.227,-19.059c1.337,-2.547 2.538,-5.166 3.895,-7.701c1.664,-3.109 3.425,-6.166 5.147,-9.243c1.156,-2.065 2.352,-4.108 3.469,-6.193c1.488,-2.78 2.977,-5.564 4.347,-8.403c0.699,-1.448 1.303,-2.984 1.658,-4.546c0.51,-2.245 0.849,-4.542 1.079,-6.835c0.151,-1.514 0.155,-3.087 -0.078,-4.587c-0.435,-2.801 -0.212,-5.36 1.788,-7.549c0.624,-0.684 1.202,-1.411 1.83,-2.091c1.128,-1.22 1.98,-2.624 2.286,-4.236c0.175,-0.928 0.633,-1.424 1.298,-1.989c1.8,-1.53 3.659,-3.05 3.926,-5.675c0.098,-0.965 0.738,-1.412 1.705,-1.513c1.285,-0.136 2.562,-0.352 3.842,-0.538c1.34,-0.195 2.536,-0.63 3.143,-1.98c0.23,-0.512 0.583,-0.738 1.149,-0.861c1.442,-0.311 2.913,-0.598 4.275,-1.138c1.82,-0.723 3.503,-1.738 4.537,-3.518c0.113,-0.195 0.092,-0.468 0.158,-0.849c-2.282,0.48 -4.384,1.176 -6.519,1.3c-2.141,0.124 -4.254,0.847 -6.435,0.545c-0.146,-0.947 -0.259,-1.768 -0.402,-2.585c-0.417,-2.376 -0.907,-4.745 -2.001,-6.914c-2.528,-5.01 -6.425,-8.579 -11.607,-10.721c-0.978,-0.404 -2.004,-0.792 -3.107,-0.611c-1.069,0.175 -1.769,-0.363 -2.354,-1.145c-0.249,-0.335 -0.478,-0.686 -0.698,-1.04c-1.426,-2.286 -3.371,-3.948 -5.93,-4.813c-2.599,-0.878 -5.202,-0.931 -7.68,0.395c-0.804,0.429 -1.672,0.964 -2.174,1.685c-1.277,1.833 -3.122,2.724 -5.072,3.509c-0.776,0.313 -1.476,0.706 -2.097,1.424c1.001,1.203 2.162,2.1 3.479,2.783c0.628,0.326 0.937,0.701 1.067,1.454c0.236,1.372 0.688,2.752 1.74,3.726c0.797,0.737 0.656,1.33 0.267,2.186c-0.782,1.726 -1.421,3.516 -2.126,5.277c-0.208,0.518 -0.298,0.982 0.332,1.214c0.769,-0.19 0.982,-1.152 1.823,-1.199l-0,7.241c-0.973,0.582 -2.025,0.862 -3.175,0.74c-0.962,-0.101 -1.85,0.175 -2.674,0.626c-1.546,0.846 -3.145,1.626 -4.583,2.632c-1.665,1.164 -3.219,2.498 -4.744,3.845c-0.915,0.808 -0.655,1.793 0.494,2.21c1.177,0.428 2.388,0.768 3.556,1.218c2.035,0.784 4.072,1.589 5.814,2.94c0.494,0.383 1.204,0.952 1.198,1.428c-0.02,1.486 0.709,2.569 1.504,3.654c0.415,0.565 0.202,0.957 -0.232,1.312c-1.255,1.024 -2.483,2.088 -3.801,3.025c-1.199,0.853 -1.39,1.199 -0.559,2.458c0.429,0.649 0.373,1.05 -0.149,1.556c-1.302,1.262 -2.565,2.566 -3.863,3.832c-0.238,0.232 -0.569,0.37 -0.964,0.618c-0.278,-1.064 -0.494,-1.949 -0.742,-2.825c-0.25,-0.882 -0.414,-1.832 -1.62,-2.325c-0.359,0.37 -0.794,0.753 -1.151,1.198c-1.013,1.264 -1.976,2.567 -2.998,3.824c-0.434,0.533 -1.011,0.888 -1.821,0.925c-0,-0.746 0.029,-1.395 -0.006,-2.042c-0.075,-1.384 -0.146,-2.771 -0.288,-4.15c-0.122,-1.179 -0.806,-1.887 -1.79,-1.637c-1.094,0.278 -2.107,0.067 -3.149,-0.054c-2.228,-0.258 -4.147,-1.399 -5.502,-2.984c-2.274,-2.66 -3.993,-5.711 -3.786,-9.445c0.005,-0.092 -0.011,-0.185 -0.02,-0.277c-0.268,-2.711 -0.54,-5.421 -0.804,-8.132c-0.071,-0.722 -0.121,-1.446 -0.21,-2.531c0.484,0.472 0.765,0.729 1.025,1.004c0.638,0.673 1.246,1.376 1.914,2.017c0.156,0.151 0.553,0.212 0.745,0.119c0.19,-0.093 0.39,-0.448 0.363,-0.659c-0.136,-1.05 -0.273,-2.11 -0.545,-3.131c-0.404,-1.522 -0.985,-2.997 -1.372,-4.523c-0.431,-1.698 -0.76,-3.425 -1.073,-5.15c-0.214,-1.178 -0.229,-2.397 -0.505,-3.557c-0.31,-1.302 -0.779,-2.57 -1.245,-3.828c-0.232,-0.625 -0.111,-0.951 0.405,-1.407c2.405,-2.121 4.689,-4.373 6.629,-6.936c0.657,-0.868 1.478,-1.352 2.488,-1.658c0.838,-0.254 1.736,-0.487 2.438,-0.973c1.251,-0.868 2.442,-1.85 3.539,-2.908c2.609,-2.52 5.236,-5.032 7.691,-7.699c2.087,-2.266 3.653,-4.861 3.387,-8.163c-0.044,-0.555 0.001,-1.116 -0.005,-1.674c-0.016,-1.395 -0.517,-1.939 -1.9,-2.002c-0.79,-0.036 -1.582,-0.027 -2.372,-0.004c-1.506,0.045 -3.088,-0.324 -4.41,0.786c-0.091,0.076 -0.271,0.04 -0.407,0.068c-1.978,0.419 -3.947,0.343 -5.933,0.003c-1.898,-0.324 -2.313,-0.665 -2.263,-2.602c0.066,-2.514 -0.115,-5.012 -0.616,-7.457c-0.382,-1.868 -1.418,-3.342 -3.295,-4.197c-1.978,-0.901 -3.902,-1.943 -5.762,-3.068c-1.016,-0.614 -1.896,-1.48 -2.754,-2.318c-1.027,-1.003 -1.942,-2.12 -2.956,-3.137c-0.311,-0.311 -0.771,-0.581 -1.197,-0.645c-0.737,-0.111 -1.132,-0.572 -1.529,-1.096c-1.801,-2.38 -3.155,-5.022 -4.542,-7.65c-1.104,-2.091 -2.295,-4.137 -3.482,-6.183c-0.805,-1.389 -1.831,-2.38 -3.618,-1.607c-0.041,0.018 -0.092,0.015 -0.138,0.016c-3.204,0.091 -6.4,-0.025 -9.588,-0.362c-1.469,-0.156 -2.941,-0.469 -4.406,-0.439c-7.327,0.153 -14.664,-0.467 -21.988,0.464c-2.608,0.332 -4.972,1.011 -7.101,2.494c-0.985,0.685 -1.947,1.429 -2.814,2.256c-1.778,1.693 -3.526,3.422 -5.207,5.21c-1.332,1.415 -2.522,2.962 -3.817,4.414c-1.944,2.18 -3.925,4.328 -5.889,6.49c-0.062,0.068 -0.115,0.145 -0.174,0.217c-1.518,1.868 -3.023,3.746 -4.558,5.6c-1.151,1.391 -2.365,2.732 -3.507,4.132c-2.137,2.618 -3.908,5.505 -6.091,8.105c-1.87,2.227 -3.361,4.772 -5.028,7.17c-2.326,3.345 -4.58,6.744 -7.017,10.006c-1.799,2.406 -3.831,4.64 -5.788,6.926c-0.361,0.422 -0.551,0.83 -0.485,1.381c0.283,2.383 0.575,4.766 0.819,7.153c0.141,1.381 0.189,2.77 0.292,4.155c0.174,2.35 0.364,4.699 0.534,7.05c0.114,1.569 0.185,3.141 0.311,4.709c0.086,1.058 0.199,2.116 0.362,3.165c0.329,2.123 0.111,4.242 0.129,6.415c-2.064,0.368 -3.973,0.883 -5.719,1.895c-1.62,0.938 -3.226,1.924 -4.249,3.522c-1.508,2.356 -2.212,4.876 -1.787,7.778c0.352,2.398 1.548,4.124 3.432,5.298c2.74,1.706 5.761,1.695 8.671,0.417c1.29,-0.566 2.439,-1.508 3.559,-2.397c2.345,-1.862 4.025,-4.15 4.59,-7.202c0.678,-3.659 -1.163,-7.087 -4.628,-8.328c-0.219,-0.078 -0.44,-0.149 -0.657,-0.231c-0.94,-0.355 -1.075,-0.568 -0.853,-1.555c0.598,-2.661 1.194,-5.322 1.832,-7.973c0.735,-3.058 1.509,-6.107 2.274,-9.158c1.138,-4.532 2.299,-9.057 3.411,-13.595c0.237,-0.966 0.844,-1.342 1.731,-1.522c1.132,-0.23 2.265,-0.472 3.376,-0.785c3.611,-1.02 7.22,-2.049 10.816,-3.122c3.643,-1.086 7.343,-2.03 10.699,-3.899c0.691,-0.385 1.162,-0.291 1.702,0.275c1.234,1.294 2.69,2.263 4.43,2.775c0.23,0.068 0.417,0.281 0.813,0.56c-1.042,0.485 -1.881,0.95 -2.773,1.269c-0.988,0.354 -1.652,1.03 -2.133,1.889c-0.907,1.621 -1.788,3.258 -2.619,4.919c-2.456,4.905 -5.395,9.524 -8.299,14.165c-0.738,1.179 -1.637,2.287 -2.189,3.547c-1.488,3.394 -2.869,6.836 -4.217,10.287c-1.201,3.074 -1.784,6.322 -2.464,9.535c-0.77,3.644 -1.807,7.192 -3.52,10.516c-1.082,2.101 -2.232,4.168 -3.258,6.296c-0.683,1.417 -1.167,2.929 -1.801,4.372c-0.99,2.252 -2.009,4.492 -3.057,6.718c-1.128,2.395 -2.134,4.871 -3.495,7.129c-2.359,3.915 -4.233,8.06 -6.139,12.188c-2.436,5.278 -5.135,10.408 -8.111,15.396c-0.531,0.889 -1.044,1.758 -0.549,2.867c0.14,0.314 0.054,0.734 0.054,1.105c0.004,2.326 -0.03,4.652 0.009,6.977c0.069,4.129 0.181,8.257 0.277,12.385c0.006,0.232 0.021,0.465 0.055,0.694c0.253,1.689 0.594,3.369 0.752,5.067c0.335,3.601 1.052,7.133 1.895,10.634c1.101,4.571 2.815,8.93 4.874,13.153c0.305,0.625 0.561,1.273 0.853,1.905c0.316,0.686 0.248,1.328 -0.086,2.003c-0.658,1.332 -1.247,2.697 -1.895,4.034c-1.918,3.959 -1.961,7.947 -0.213,11.965c0.535,1.231 1.141,2.433 1.625,3.683c0.169,0.434 0.182,1.003 0.065,1.458c-0.339,1.318 -1.234,2.275 -2.319,3.031c-2.966,2.066 -5.918,4.153 -8.943,6.129c-2.644,1.727 -5.313,3.412 -7.494,5.724c-1.654,1.752 -3.3,3.523 -4.802,5.403c-1.242,1.553 -2.333,3.259 -2.834,5.223c-0.245,0.96 -0.574,1.895 -0.384,2.982c0.455,2.616 2.001,4.473 3.971,6.006c2.242,1.745 4.734,3.126 7.347,4.235c1.442,0.611 2.983,0.997 4.492,1.444c2.351,0.695 4.773,0.571 7.183,0.552c3.318,-0.025 6.144,-1.278 8.482,-3.584c1.47,-1.45 2.49,-3.224 3.271,-5.134c0.221,-0.539 0.481,-1.061 0.817,-1.797c1.43,1.44 2.758,2.663 3.952,4.005c1.722,1.937 3.371,3.914 5.343,5.64c2.908,2.545 5.994,4.628 9.815,5.529c1.951,0.46 3.262,2.746 2.856,4.74c-0.193,0.951 -0.424,1.895 -0.669,2.835c-1.006,3.854 -1.758,7.749 -2.026,11.731c-0.083,1.245 -0.206,2.488 -0.333,3.73c-0.151,1.47 -0.326,2.938 -0.489,4.407c-0.148,1.333 -0.317,2.663 -0.435,3.998c-0.148,1.659 -0.314,3.319 -0.356,4.982c-0.027,1.102 0.151,2.21 0.233,3.315c0.124,1.683 1.11,2.876 2.727,3.245c0.356,0.082 0.736,0.064 1.106,0.083c1.665,0.087 3.331,0.155 4.994,0.261c1.107,0.071 2.208,0.235 3.315,0.289c2.501,0.121 5.004,0.199 7.506,0.295c0.093,0.003 0.185,0.009 0.278,0.015c2.539,0.18 5.077,0.361 7.616,0.536c0.325,0.023 0.652,-0.004 0.977,0.017c2.815,0.177 5.629,0.484 8.446,0.51c3.662,0.034 7.326,-0.161 10.989,-0.246c7.151,-0.166 14.307,0.278 21.459,-0.243c2.064,-0.15 4.16,0.143 6.242,0.221c0.558,0.021 1.118,0.031 1.674,-0.005c2.583,-0.167 5.163,-0.403 7.749,-0.507c1.146,-0.046 2.301,0.198 3.455,0.243c1.208,0.046 2.419,0.01 3.885,0.01Z" style="fill:#7f1900;fill-rule:nonzero;"/><path d="M240.462,363.158c-1.338,0 -2.549,0.036 -3.757,-0.01c-1.154,-0.045 -2.309,-0.289 -3.455,-0.243c-2.586,0.104 -5.166,0.34 -7.749,0.507c-0.556,0.036 -1.116,0.026 -1.674,0.005c-2.082,-0.078 -4.178,-0.371 -6.242,-0.221c-7.152,0.521 -14.308,0.077 -21.459,0.243c-3.663,0.085 -7.327,0.28 -10.989,0.246c-2.817,-0.026 -5.631,-0.333 -8.446,-0.51c-0.325,-0.021 -0.652,0.006 -0.977,-0.017c-2.539,-0.175 -5.077,-0.356 -7.616,-0.536c-0.093,-0.006 -0.185,-0.012 -0.278,-0.015c-2.502,-0.096 -5.005,-0.174 -7.506,-0.295c-1.107,-0.054 -2.208,-0.218 -3.315,-0.289c-1.663,-0.106 -3.329,-0.174 -4.994,-0.261c-0.37,-0.019 -0.75,-0.001 -1.106,-0.083c-1.617,-0.369 -2.603,-1.562 -2.727,-3.245c-0.082,-1.105 -0.26,-2.213 -0.233,-3.315c0.042,-1.663 0.208,-3.323 0.356,-4.982c0.118,-1.335 0.287,-2.665 0.435,-3.998c0.163,-1.469 0.338,-2.937 0.489,-4.407c0.127,-1.242 0.25,-2.485 0.333,-3.73c0.268,-3.982 1.02,-7.877 2.026,-11.731c0.245,-0.94 0.476,-1.884 0.669,-2.835c0.406,-1.994 -0.905,-4.28 -2.856,-4.74c-3.821,-0.901 -6.907,-2.984 -9.815,-5.529c-1.972,-1.726 -3.621,-3.703 -5.343,-5.64c-1.194,-1.342 -2.522,-2.565 -3.952,-4.005c-0.336,0.736 -0.596,1.258 -0.817,1.797c-0.781,1.91 -1.801,3.684 -3.271,5.134c-2.338,2.306 -5.164,3.559 -8.482,3.584c-2.41,0.019 -4.832,0.143 -7.183,-0.552c-1.509,-0.447 -3.05,-0.833 -4.492,-1.444c-2.613,-1.109 -5.105,-2.49 -7.347,-4.235c-1.97,-1.533 -3.516,-3.39 -3.971,-6.006c-0.19,-1.087 0.139,-2.022 0.384,-2.982c0.501,-1.964 1.592,-3.67 2.834,-5.223c1.502,-1.88 3.148,-3.651 4.802,-5.403c2.181,-2.312 4.85,-3.997 7.494,-5.724c3.025,-1.976 5.977,-4.063 8.943,-6.129c1.085,-0.756 1.98,-1.713 2.319,-3.031c0.117,-0.455 0.104,-1.024 -0.065,-1.458c-0.484,-1.25 -1.09,-2.452 -1.625,-3.683c-1.748,-4.018 -1.705,-8.006 0.213,-11.965c0.648,-1.337 1.237,-2.702 1.895,-4.034c0.334,-0.675 0.402,-1.317 0.086,-2.003c-0.292,-0.632 -0.548,-1.28 -0.853,-1.905c-2.059,-4.223 -3.773,-8.582 -4.874,-13.153c-0.843,-3.501 -1.56,-7.033 -1.895,-10.634c-0.158,-1.698 -0.499,-3.378 -0.752,-5.067c-0.034,-0.229 -0.049,-0.462 -0.055,-0.694c-0.096,-4.128 -0.208,-8.256 -0.277,-12.385c-0.039,-2.325 -0.005,-4.651 -0.009,-6.977c-0,-0.371 0.086,-0.791 -0.054,-1.105c-0.495,-1.109 0.018,-1.978 0.549,-2.867c2.976,-4.988 5.675,-10.118 8.111,-15.396c1.906,-4.128 3.78,-8.273 6.139,-12.188c1.361,-2.258 2.367,-4.734 3.495,-7.129c1.048,-2.226 2.067,-4.466 3.057,-6.718c0.634,-1.443 1.118,-2.955 1.801,-4.372c1.026,-2.128 2.176,-4.195 3.258,-6.296c1.713,-3.324 2.75,-6.872 3.52,-10.516c0.68,-3.213 1.263,-6.461 2.464,-9.535c1.348,-3.451 2.729,-6.893 4.217,-10.287c0.552,-1.26 1.451,-2.368 2.189,-3.547c2.904,-4.641 5.843,-9.26 8.299,-14.165c0.831,-1.661 1.712,-3.298 2.619,-4.919c0.481,-0.859 1.145,-1.535 2.133,-1.889c0.892,-0.319 1.731,-0.784 2.773,-1.269c-0.396,-0.279 -0.583,-0.492 -0.813,-0.56c-1.74,-0.512 -3.196,-1.481 -4.43,-2.775c-0.54,-0.566 -1.011,-0.66 -1.702,-0.275c-3.356,1.869 -7.056,2.813 -10.699,3.899c-3.596,1.073 -7.205,2.102 -10.816,3.122c-1.111,0.313 -2.244,0.555 -3.376,0.785c-0.887,0.18 -1.494,0.556 -1.731,1.522c-1.112,4.538 -2.273,9.063 -3.411,13.595c-0.765,3.051 -1.539,6.1 -2.274,9.158c-0.638,2.651 -1.234,5.312 -1.832,7.973c-0.222,0.987 -0.087,1.2 0.853,1.555c0.217,0.082 0.438,0.153 0.657,0.231c3.465,1.241 5.306,4.669 4.628,8.328c-0.565,3.052 -2.245,5.34 -4.59,7.202c-1.12,0.889 -2.269,1.831 -3.559,2.397c-2.91,1.278 -5.931,1.289 -8.671,-0.417c-1.884,-1.174 -3.08,-2.9 -3.432,-5.298c-0.425,-2.902 0.279,-5.422 1.787,-7.778c1.023,-1.598 2.629,-2.584 4.249,-3.522c1.746,-1.012 3.655,-1.527 5.719,-1.895c-0.018,-2.173 0.2,-4.292 -0.129,-6.415c-0.163,-1.049 -0.276,-2.107 -0.362,-3.165c-0.126,-1.568 -0.197,-3.14 -0.311,-4.709c-0.17,-2.351 -0.36,-4.7 -0.534,-7.05c-0.103,-1.385 -0.151,-2.774 -0.292,-4.155c-0.244,-2.387 -0.536,-4.77 -0.819,-7.153c-0.066,-0.551 0.124,-0.959 0.485,-1.381c1.957,-2.286 3.989,-4.52 5.788,-6.926c2.437,-3.262 4.691,-6.661 7.017,-10.006c1.667,-2.398 3.158,-4.943 5.028,-7.17c2.183,-2.6 3.954,-5.487 6.091,-8.105c1.142,-1.4 2.356,-2.741 3.507,-4.132c1.535,-1.854 3.04,-3.732 4.558,-5.6c0.059,-0.072 0.112,-0.149 0.174,-0.217c1.964,-2.162 3.945,-4.31 5.889,-6.49c1.295,-1.452 2.485,-2.999 3.817,-4.414c1.681,-1.788 3.429,-3.517 5.207,-5.21c0.867,-0.827 1.829,-1.571 2.814,-2.256c2.129,-1.483 4.493,-2.162 7.101,-2.494c7.324,-0.931 14.661,-0.311 21.988,-0.464c1.465,-0.03 2.937,0.283 4.406,0.439c3.188,0.337 6.384,0.453 9.588,0.362c0.046,-0.001 0.097,0.002 0.138,-0.016c1.787,-0.773 2.813,0.218 3.618,1.607c1.187,2.046 2.378,4.092 3.482,6.183c1.387,2.628 2.741,5.27 4.542,7.65c0.397,0.524 0.792,0.985 1.529,1.096c0.426,0.064 0.886,0.334 1.197,0.645c1.014,1.017 1.929,2.134 2.956,3.137c0.858,0.838 1.738,1.704 2.754,2.318c1.86,1.125 3.784,2.167 5.762,3.068c1.877,0.855 2.913,2.329 3.295,4.197c0.501,2.445 0.682,4.943 0.616,7.457c-0.05,1.937 0.365,2.278 2.263,2.602c1.986,0.34 3.955,0.416 5.933,-0.003c0.136,-0.028 0.316,0.008 0.407,-0.068c1.322,-1.11 2.904,-0.741 4.41,-0.786c0.79,-0.023 1.582,-0.032 2.372,0.004c1.383,0.063 1.884,0.607 1.9,2.002c0.006,0.558 -0.039,1.119 0.005,1.674c0.266,3.302 -1.3,5.897 -3.387,8.163c-2.455,2.667 -5.082,5.179 -7.691,7.699c-1.097,1.058 -2.288,2.04 -3.539,2.908c-0.702,0.486 -1.6,0.719 -2.438,0.973c-1.01,0.306 -1.831,0.79 -2.488,1.658c-1.94,2.563 -4.224,4.815 -6.629,6.936c-0.516,0.456 -0.637,0.782 -0.405,1.407c0.466,1.258 0.935,2.526 1.245,3.828c0.276,1.16 0.291,2.379 0.505,3.557c0.313,1.725 0.642,3.452 1.073,5.15c0.387,1.526 0.968,3.001 1.372,4.523c0.272,1.021 0.409,2.081 0.545,3.131c0.027,0.211 -0.173,0.566 -0.363,0.659c-0.192,0.093 -0.589,0.032 -0.745,-0.119c-0.668,-0.641 -1.276,-1.344 -1.914,-2.017c-0.26,-0.275 -0.541,-0.532 -1.025,-1.004c0.089,1.085 0.139,1.809 0.21,2.531c0.264,2.711 0.536,5.421 0.804,8.132c0.009,0.092 0.025,0.185 0.02,0.277c-0.207,3.734 1.512,6.785 3.786,9.445c1.355,1.585 3.274,2.726 5.502,2.984c1.042,0.121 2.055,0.332 3.149,0.054c0.984,-0.25 1.668,0.458 1.79,1.637c0.142,1.379 0.213,2.766 0.288,4.15c0.035,0.647 0.006,1.296 0.006,2.042c0.81,-0.037 1.387,-0.392 1.821,-0.925c1.022,-1.257 1.985,-2.56 2.998,-3.824c0.357,-0.445 0.792,-0.828 1.151,-1.198c1.206,0.493 1.37,1.443 1.62,2.325c0.248,0.876 0.464,1.761 0.742,2.825c0.395,-0.248 0.726,-0.386 0.964,-0.618c1.298,-1.266 2.561,-2.57 3.863,-3.832c0.522,-0.506 0.578,-0.907 0.149,-1.556c-0.831,-1.259 -0.64,-1.605 0.559,-2.458c1.318,-0.937 2.546,-2.001 3.801,-3.025c0.434,-0.355 0.647,-0.747 0.232,-1.312c-0.795,-1.085 -1.524,-2.168 -1.504,-3.654c0.006,-0.476 -0.704,-1.045 -1.198,-1.428c-1.742,-1.351 -3.779,-2.156 -5.814,-2.94c-1.168,-0.45 -2.379,-0.79 -3.556,-1.218c-1.149,-0.417 -1.409,-1.402 -0.494,-2.21c1.525,-1.347 3.079,-2.681 4.744,-3.845c1.438,-1.006 3.037,-1.786 4.583,-2.632c0.824,-0.451 1.712,-0.727 2.674,-0.626c1.15,0.122 2.202,-0.158 3.175,-0.74l-0,-7.241c-0.841,0.047 -1.054,1.009 -1.823,1.199c-0.63,-0.232 -0.54,-0.696 -0.332,-1.214c0.705,-1.761 1.344,-3.551 2.126,-5.277c0.389,-0.856 0.53,-1.449 -0.267,-2.186c-1.052,-0.974 -1.504,-2.354 -1.74,-3.726c-0.13,-0.753 -0.439,-1.128 -1.067,-1.454c-1.317,-0.683 -2.478,-1.58 -3.479,-2.783c0.621,-0.718 1.321,-1.111 2.097,-1.424c1.95,-0.785 3.795,-1.676 5.072,-3.509c0.502,-0.721 1.37,-1.256 2.174,-1.685c2.478,-1.326 5.081,-1.273 7.68,-0.395c2.559,0.865 4.504,2.527 5.93,4.813c0.22,0.354 0.449,0.705 0.698,1.04c0.585,0.782 1.285,1.32 2.354,1.145c1.103,-0.181 2.129,0.207 3.107,0.611c5.182,2.142 9.079,5.711 11.607,10.721c1.094,2.169 1.584,4.538 2.001,6.914c0.143,0.817 0.256,1.638 0.402,2.585c2.181,0.302 4.294,-0.421 6.435,-0.545c2.135,-0.124 4.237,-0.82 6.519,-1.3c-0.066,0.381 -0.045,0.654 -0.158,0.849c-1.034,1.78 -2.717,2.795 -4.537,3.518c-1.362,0.54 -2.833,0.827 -4.275,1.138c-0.566,0.123 -0.919,0.349 -1.149,0.861c-0.607,1.35 -1.803,1.785 -3.143,1.98c-1.28,0.186 -2.557,0.402 -3.842,0.538c-0.967,0.101 -1.607,0.548 -1.705,1.513c-0.267,2.625 -2.126,4.145 -3.926,5.675c-0.665,0.565 -1.123,1.061 -1.298,1.989c-0.306,1.612 -1.158,3.016 -2.286,4.236c-0.628,0.68 -1.206,1.407 -1.83,2.091c-2,2.189 -2.223,4.748 -1.788,7.549c0.233,1.5 0.229,3.073 0.078,4.587c-0.23,2.293 -0.569,4.59 -1.079,6.835c-0.355,1.562 -0.959,3.098 -1.658,4.546c-1.37,2.839 -2.859,5.623 -4.347,8.403c-1.117,2.085 -2.313,4.128 -3.469,6.193c-1.722,3.077 -3.483,6.134 -5.147,9.243c-1.357,2.535 -2.558,5.154 -3.895,7.701c-3.433,6.535 -7.033,12.972 -11.227,19.059c-0.394,0.572 -0.741,1.177 -1.163,1.727c-0.402,0.524 -0.855,0.594 -1.42,0.116c-2.191,-1.854 -4.437,-3.643 -6.611,-5.518c-1.045,-0.901 -1.963,-1.95 -2.962,-2.907c-0.247,-0.238 -0.585,-0.381 -1.11,-0.418c0.24,0.82 0.5,1.634 0.717,2.459c0.764,2.909 1.567,5.809 2.248,8.738c0.427,1.839 0.791,3.709 1.114,5.555c0.341,1.951 0.806,4.009 0.201,6.061c-0.177,0.601 -0.057,1.295 -0.043,1.946c0.058,2.558 -0.357,5.067 -0.778,7.576c-0.137,0.819 -0.292,1.644 -0.322,2.471c-0.11,3.032 -0.979,5.922 -1.624,8.85c-0.558,2.528 -1.374,5 -1.902,7.533c-0.767,3.683 -1.868,7.259 -3.064,10.816c-1.696,5.041 -4.006,9.793 -6.822,14.292c-1.425,2.276 -2.996,4.462 -4.526,6.672c-0.315,0.454 -0.728,0.843 -1.116,1.242c-0.627,0.646 -0.875,1.306 -0.59,2.261c0.489,1.642 0.741,3.338 0.661,5.077c-0.029,0.634 0.264,1.285 0.23,1.918c-0.123,2.353 -0.317,4.702 -0.494,7.051c-0.093,1.245 -0.137,2.498 -0.32,3.73c-0.573,3.849 -1.763,7.497 -3.923,10.758c-1.559,2.353 -3.13,4.716 -4.91,6.901c-1.725,2.118 -3.742,3.997 -5.593,6.015c-0.685,0.748 -1.285,1.577 -1.883,2.399c-0.557,0.766 -0.558,1.571 0.071,2.303c0.754,0.877 1.444,1.848 2.336,2.561c4.157,3.327 8.362,6.596 12.581,9.845c0.801,0.618 1.687,1.206 2.629,1.543c2.295,0.822 3.971,2.338 5.32,4.288c1.238,1.791 2.474,3.584 3.682,5.395c1.065,1.597 0.6,2.554 -1.343,2.837c-0.09,0.013 -0.183,0.003 -0.403,0.004m-114.672,-245.072c0.037,0.55 0.074,1.099 0.11,1.649c0.076,-0.001 0.152,-0.002 0.228,-0.003c-0,-0.627 -0,-1.254 0.009,-2.102c0.146,-0.378 0.323,-0.747 0.434,-1.136c0.949,-3.305 1.935,-6.601 2.816,-9.925c1.212,-4.572 2.393,-9.153 3.483,-13.756c0.399,-1.686 1.192,-2.445 2.973,-2.824c6.857,-1.458 13.473,-3.798 20.139,-5.941c1.492,-0.479 2.903,-1.223 4.324,-1.903c0.338,-0.162 0.663,-0.507 0.828,-0.848c0.783,-1.626 1.437,-3.317 2.27,-4.915c2.692,-5.171 5.896,-10.022 9.608,-14.507c5.769,-6.97 12.549,-12.943 19.184,-19.048c3.832,-3.526 7.722,-6.966 10.731,-11.285c1.66,-2.382 3.425,-2.841 6.22,-1.852c1.173,0.415 2.069,-0.122 3.055,-0.499c-3.951,-0.43 -7.885,-0.808 -11.827,-0.976c-6.647,-0.282 -13.297,-0.218 -19.931,0.336c-2.819,0.236 -5.518,0.935 -7.775,2.752c-1.7,1.369 -3.428,2.728 -4.957,4.276c-1.89,1.913 -3.6,4.004 -5.364,6.039c-3.469,4.004 -6.902,8.039 -10.387,12.029c-4.068,4.659 -7.81,9.572 -11.426,14.581c-2.176,3.014 -4.201,6.137 -6.336,9.181c-1.813,2.584 -3.636,5.166 -5.552,7.674c-1.351,1.769 -2.866,3.412 -4.305,5.114c-0.419,0.494 -0.836,0.955 -0.77,1.711c0.2,2.314 0.335,4.634 0.504,6.95c0.241,3.291 0.445,6.585 0.749,9.87c0.283,3.05 0.676,6.09 0.965,9.358m133.698,-43.394c-0.52,0.057 -1.079,0.125 -1.302,-0.493c-0.213,-0.589 -0.658,-0.717 -1.185,-0.796c-0.643,-0.096 -1.279,-0.236 -1.922,-0.326c-1.242,-0.174 -1.379,-0.308 -1.411,-1.6c-0.02,-0.774 -0.004,-1.549 -0.004,-2.393c-0.465,0 -0.874,-0.006 -1.283,0.001c-1.805,0.035 -3.612,0.133 -5.415,0.097c-2.051,-0.042 -2.814,-0.741 -3.17,-2.781c-0.192,-1.098 -0.293,-2.212 -0.43,-3.319c-0.221,-1.799 -0.423,-3.601 -0.662,-5.397c-0.19,-1.424 -0.778,-2.549 -2.27,-3.044c-0.744,-0.247 -1.439,-0.645 -2.155,-0.977c-2.999,-1.392 -5.612,-3.314 -7.644,-5.922c-1.268,-1.627 -2.646,-2.529 -4.847,-2.271c-2.112,0.247 -4.274,0.152 -6.41,0.091c-1.728,-0.049 -1.942,-0.291 -2.297,-1.982c-0.797,-3.791 -2.716,-6.993 -5.193,-9.896c-1.015,-1.189 -2.317,-2.013 -3.752,-2.598c-1.483,-0.606 -2.41,-0.353 -3.495,0.826c-1.592,1.731 -2.588,3.749 -2.794,6.099c-0.194,2.214 0.163,4.249 2.034,5.781c1.256,1.028 2.379,2.205 3.891,2.908c0.948,0.441 1.057,1.155 0.31,1.864c-0.668,0.633 -1.395,1.239 -2.189,1.696c-1.408,0.808 -2.888,1.49 -4.334,2.233c-3.27,1.68 -6.478,3.47 -9.401,5.715c-4.92,3.78 -8.913,8.457 -12.367,13.544c-2.945,4.337 -5.498,8.941 -8.237,13.419c-0.362,0.592 -0.721,1.222 -1.221,1.684c-1.295,1.197 -2.692,2.267 -4.427,2.79c-0.941,0.284 -1.578,0.919 -2.029,1.79c-0.81,1.569 -1.718,3.089 -2.481,4.679c-2.053,4.284 -4.525,8.316 -7.188,12.24c-1.803,2.656 -3.517,5.362 -4.626,8.4c-0.604,1.655 -1.189,3.317 -1.804,4.968c-1.317,3.536 -2.221,7.178 -2.938,10.881c-0.914,4.71 -2.009,9.383 -4.755,13.444c-1.183,1.749 -2.02,3.652 -2.787,5.597c-2.031,5.145 -4.301,10.179 -6.834,15.097c-2.124,4.124 -4.225,8.261 -6.31,12.405c-1.628,3.236 -3.212,6.493 -4.822,9.737c-0.847,1.706 -1.801,3.367 -2.538,5.119c-0.658,1.566 -1.595,3.066 -1.679,4.824c-0.128,2.693 -0.283,5.389 -0.268,8.083c0.038,6.549 0.479,13.066 1.429,19.559c0.666,4.559 1.822,8.978 3.141,13.37c0.2,0.664 0.494,1.3 0.746,1.949c1.061,2.721 2.068,5.466 3.208,8.154c0.51,1.203 0.306,2.234 -0.186,3.327c-0.628,1.397 -1.234,2.805 -1.82,4.22c-1.572,3.795 -1.461,7.515 0.591,11.11c0.412,0.722 0.926,1.392 0.987,2.246c0.079,1.11 0.134,2.226 0.123,3.338c-0.003,0.335 -0.181,0.742 -0.414,0.987c-0.925,0.975 -1.81,2.027 -2.881,2.818c-2.615,1.931 -5.316,3.746 -7.999,5.583c-1.303,0.892 -2.695,1.66 -3.956,2.606c-3.219,2.416 -5.975,5.306 -8.392,8.521c-1.099,1.462 -1.988,3.047 -2.434,4.827c-0.187,0.747 -0.252,1.563 -0.177,2.329c0.211,2.171 1.645,3.578 3.268,4.808c5.112,3.876 10.975,5.517 17.3,5.797c2.281,0.101 4.306,-0.575 6.149,-1.866c2.072,-1.453 3.594,-3.348 4.525,-5.709c0.374,-0.951 0.736,-1.908 1.132,-2.85c0.263,-0.625 0.757,-0.808 1.337,-0.494c0.281,0.152 0.536,0.374 0.762,0.604c1.332,1.362 2.665,2.723 3.974,4.108c1.629,1.722 3.153,3.552 4.868,5.183c3.017,2.871 6.254,5.398 10.598,5.997c1.438,0.198 2.225,1.349 2.639,2.624c0.508,1.562 0.61,3.235 0.223,4.818c-0.838,3.435 -1.518,6.887 -1.885,10.405c-0.419,4.016 -0.889,8.026 -1.336,12.039c-0.118,1.059 -0.199,2.122 -0.352,3.176c-0.334,2.298 -0.559,4.602 -0.404,6.924c0.128,1.93 0.808,2.629 2.714,2.903c0.23,0.033 0.464,0.062 0.695,0.055c4.093,-0.124 8.169,0.226 12.249,0.449c1.346,0.073 2.7,0.056 4.041,0.18c3.411,0.314 6.811,0.774 10.228,1.005c3.101,0.209 6.217,0.236 9.328,0.257c1.946,0.013 3.892,-0.175 5.84,-0.204c7.253,-0.108 14.506,-0.176 21.759,-0.281c4.599,-0.066 9.198,-0.21 13.798,-0.241c2.879,-0.02 5.759,0.108 8.639,0.163c0.675,0.013 1.35,0.002 2.206,0.002c-0.211,-0.429 -0.293,-0.684 -0.443,-0.89c-1.451,-1.991 -2.886,-3.995 -4.383,-5.952c-0.801,-1.049 -1.905,-1.735 -3.091,-2.325c-1.284,-0.64 -2.556,-1.333 -3.737,-2.143c-1.57,-1.077 -3.068,-2.263 -4.558,-3.451c-2.652,-2.116 -5.315,-4.222 -7.89,-6.429c-1.01,-0.866 -1.859,-1.947 -2.666,-3.016c-0.857,-1.138 -0.875,-2.441 -0.204,-3.682c0.348,-0.644 0.829,-1.235 1.327,-1.778c1.791,-1.954 3.578,-3.912 5.434,-5.803c2.498,-2.546 4.453,-5.485 6.246,-8.531c1.344,-2.283 2.349,-4.736 2.977,-7.322c0.382,-1.576 0.625,-3.168 0.675,-4.806c0.064,-2.076 0.424,-4.144 0.466,-6.22c0.039,-1.898 -0.143,-3.803 -0.289,-5.7c-0.108,-1.41 -0.172,-2.834 -0.946,-4.113c-0.317,-0.522 -0.14,-1.076 0.331,-1.503c1.847,-1.671 3.238,-3.706 4.539,-5.8c1.347,-2.171 2.598,-4.401 3.957,-6.564c1.867,-2.971 3.287,-6.166 4.366,-9.468c2.744,-8.401 5.49,-16.815 6.542,-25.652c0.382,-3.208 0.734,-6.419 1.068,-9.633c0.149,-1.426 0.09,-2.885 0.361,-4.284c0.365,-1.883 0.067,-3.728 -0.237,-5.525c-0.593,-3.499 -1.456,-6.953 -2.223,-10.422c-0.399,-1.803 -0.971,-3.581 -1.211,-5.404c-0.266,-2.014 -0.993,-3.656 -2.467,-5.089c-1.382,-1.342 -2.554,-2.9 -3.886,-4.441c-0.195,1.039 -0.352,1.951 -0.538,2.857c-0.969,4.716 -1.934,9.433 -2.922,14.146c-0.352,1.677 -0.732,3.349 -1.172,5.004c-0.09,0.339 -0.468,0.654 -0.792,0.846c-0.101,0.06 -0.509,-0.281 -0.698,-0.505c-4.554,-5.367 -8.648,-11.05 -11.856,-17.338c-1.773,-3.475 -3.484,-6.985 -5.64,-10.249c-0.234,-0.354 -0.346,-0.854 -0.96,-0.942c-0,0.348 -0.031,0.625 0.005,0.893c0.511,3.819 1.028,7.637 1.551,11.454c0.075,0.55 0.254,1.095 0.254,1.642c-0,0.258 -0.26,0.644 -0.496,0.737c-0.233,0.093 -0.647,-0.029 -0.867,-0.203c-0.278,-0.22 -0.452,-0.579 -0.649,-0.892c-0.345,-0.55 -0.647,-1.13 -1.015,-1.665c-3.721,-5.411 -6.418,-11.288 -8.083,-17.643c-0.57,-2.174 -1.193,-4.335 -1.83,-6.643c-1.114,1.056 -1.725,2.235 -2.327,3.424c-0.336,0.661 -0.649,1.344 -1.073,1.947c-0.163,0.232 -0.622,0.391 -0.914,0.35c-0.175,-0.024 -0.42,-0.508 -0.403,-0.771c0.071,-1.057 0.171,-2.121 0.373,-3.16c0.406,-2.089 0.917,-4.158 1.326,-6.246c0.304,-1.551 0.554,-3.073 -0.791,-4.41c-0.648,-0.644 -0.822,-1.629 -0.785,-2.607c0.047,-1.248 0.011,-2.5 0.011,-3.766c-0.182,-0.094 -0.336,-0.228 -0.507,-0.255c-3.333,-0.518 -6.654,-1.161 -10.045,-1.152c-1.343,0.003 -2.685,0.114 -4.027,0.182c-0.446,0.023 -0.936,-0.013 -0.925,-0.553c0.005,-0.258 0.402,-0.525 0.653,-0.753c0.085,-0.077 0.268,-0.055 0.406,-0.063c1.297,-0.082 2.598,-0.269 3.889,-0.215c2.313,0.097 4.624,0.298 6.927,0.537c1.287,0.134 2.567,0.386 3.831,0.671c1.109,0.25 1.285,0.528 1.293,1.644c0.005,0.697 0.003,1.397 -0.056,2.091c-0.129,1.509 0.267,2.841 1.204,4.032c0.568,0.722 0.847,1.564 0.713,2.48c-0.193,1.325 -0.432,2.644 -0.677,3.961c-0.163,0.874 -0.372,1.74 -0.561,2.609c0.775,-0.529 1.343,-1.13 1.826,-1.791c0.361,-0.494 0.734,-0.848 1.379,-0.675c0.578,0.156 0.526,0.687 0.64,1.125c0.893,3.416 1.718,6.852 2.713,10.238c1.41,4.799 3.691,9.211 6.328,13.444c0.052,0.084 0.207,0.103 0.363,0.174c-0.229,-2.033 -0.456,-4.003 -0.668,-5.974c-0.099,-0.92 -0.19,-1.843 -0.247,-2.766c-0.089,-1.433 -0.184,-2.867 -0.186,-4.301c-0,-0.332 0.287,-0.818 0.577,-0.961c0.51,-0.252 0.84,0.171 1.066,0.618c0.377,0.746 0.714,1.517 1.149,2.228c3.54,5.791 7.082,11.581 10.66,17.348c1.862,3.003 3.794,5.962 5.705,8.935c0.258,0.399 0.576,0.76 0.962,1.263c0.125,-0.351 0.184,-0.469 0.21,-0.593c0.932,-4.401 1.866,-8.802 2.789,-13.206c0.571,-2.724 1.122,-5.452 1.686,-8.177c0.215,-1.04 0.722,-1.241 1.517,-0.557c0.454,0.392 0.828,0.878 1.237,1.322c2.078,2.257 4.056,4.616 6.259,6.744c2.605,2.518 5.389,4.853 8.127,7.232c0.891,0.774 1.881,1.435 2.924,2.223c1.262,-2.096 2.494,-4.01 3.595,-5.997c3.331,-6.01 6.626,-12.04 9.906,-18.079c3.636,-6.692 7.26,-13.391 10.847,-20.109c1.529,-2.863 3.036,-5.745 4.396,-8.691c0.99,-2.146 1.532,-4.461 1.711,-6.836c0.115,-1.522 0.212,-3.046 0.279,-4.57c0.034,-0.779 0.098,-1.584 -0.05,-2.338c-0.584,-2.985 -0.069,-5.715 1.757,-8.157c1.03,-1.377 2.158,-2.681 3.176,-4.065c0.431,-0.585 0.923,-1.271 0.987,-1.948c0.142,-1.52 1.019,-2.441 2.131,-3.253c1.821,-1.329 3.25,-2.877 3.489,-5.283c0.095,-0.961 0.62,-1.266 1.633,-1.375c1.247,-0.134 2.492,-0.306 3.742,-0.402c2.203,-0.171 3.515,-1.526 4.468,-3.334c0.164,-0.311 0.072,-0.757 0.1,-1.16c-1.608,0.109 -3.039,0.306 -4.467,0.283c-3.026,-0.049 -5.918,0.584 -8.746,1.549c-3.211,1.096 -6.386,2.299 -9.598,3.394c-0.774,0.263 -1.636,0.418 -2.449,0.387c-2.316,-0.088 -4.625,-0.361 -6.94,-0.43c-0.991,-0.029 -2.134,0.011 -2.956,0.471c-1.707,0.953 -3.501,1.135 -5.358,1.204c-0.247,0.01 -0.499,-0.103 -0.748,-0.159c-0.022,-0.09 -0.044,-0.181 -0.066,-0.271c0.331,-0.16 0.647,-0.393 0.997,-0.466c0.817,-0.17 1.664,-0.208 2.475,-0.399c1.392,-0.327 2.593,-0.934 3.064,-2.631c-1.768,-0.05 -1.394,-1.268 -1.259,-2.45c-0.412,0.187 -0.728,0.272 -0.974,0.452c-1.518,1.106 -3.213,1.622 -5.081,1.693c-0.588,0.022 -1.214,0.146 -1.743,0.393c-3.089,1.444 -5.929,3.29 -8.555,5.464c-0.194,0.16 -0.318,0.405 -0.458,0.589c2.075,0.896 4.113,1.672 6.053,2.645c1.486,0.745 2.886,1.683 4.251,2.641c1.077,0.755 1.219,1.336 0.723,2.481c-0.267,0.618 -0.146,1.092 0.224,1.541c0.471,0.572 1.003,1.095 1.496,1.651c0.261,0.294 0.496,0.613 0.809,1.004c-2.039,1.611 -3.953,3.124 -5.97,4.718c0.321,0.284 0.542,0.447 0.725,0.647c0.723,0.789 0.804,1.147 0.043,1.899c-2.114,2.09 -4.272,4.137 -6.469,6.138c-0.728,0.662 -1.49,0.404 -1.892,-0.517c-0.183,-0.421 -0.242,-0.894 -0.37,-1.34c-0.185,-0.646 -0.382,-1.287 -0.654,-2.196c-0.529,0.629 -0.862,1.054 -1.226,1.452c-0.721,0.787 -1.433,1.585 -2.196,2.33c-0.758,0.74 -1.718,1.106 -2.761,1.206c-0.908,0.087 -1.315,-0.245 -1.395,-1.144c-0.054,-0.6 0.015,-1.209 0,-1.812c-0.039,-1.656 -0.094,-3.312 -0.14,-4.878c-0.248,-0.099 -0.291,-0.13 -0.334,-0.13c-0.229,-0.003 -0.457,0.005 -0.686,0.006c-2.66,0.016 -5.094,-0.482 -7.254,-2.277c-1.777,-1.477 -3.732,-2.811 -5.781,-3.876c-5.277,-2.744 -10.553,-5.503 -16.072,-7.756c-3.447,-1.407 -6.944,-2.026 -10.614,-1.016c-0.444,0.122 -0.913,0.217 -1.371,0.219c-0.525,0.003 -0.727,-0.441 -0.398,-0.861c0.186,-0.237 0.482,-0.517 0.749,-0.541c1.941,-0.17 3.888,-0.393 5.831,-0.382c2.654,0.016 5.106,0.976 7.466,2.095c4.872,2.309 9.713,4.686 14.568,7.031c0.423,0.205 0.859,0.383 1.594,0.71c-0.348,-0.797 -0.539,-1.258 -0.75,-1.71c-0.819,-1.749 -1.269,-3.59 -1.372,-5.514c-0.072,-1.347 -0.072,-2.698 -0.191,-4.04c-0.261,-2.953 -0.343,-5.934 -1.373,-8.776c-0.209,-0.577 -0.171,-1.243 -0.251,-1.902c1.263,-0.177 1.713,0.699 2.314,1.281c0.644,0.625 1.233,1.305 1.847,1.961c0.085,-0.056 0.171,-0.111 0.256,-0.167c-0.203,-0.65 -0.387,-1.308 -0.613,-1.95c-0.911,-2.58 -1.799,-5.141 -1.89,-7.943c-0.067,-2.078 -0.506,-4.129 -1.447,-6.049c-0.335,-0.683 -0.435,-1.51 -0.502,-2.284c-0.03,-0.343 0.188,-0.844 0.462,-1.057c2.814,-2.193 5.055,-4.939 7.3,-7.659c0.91,-1.103 1.927,-1.705 3.265,-1.862c0.964,-0.114 1.782,-0.493 2.507,-1.109c0.815,-0.692 1.66,-1.352 2.428,-2.093c2.609,-2.519 5.224,-5.035 7.761,-7.626c0.795,-0.811 1.349,-1.858 2.111,-2.934c-0.146,-0.046 -0.292,-0.093 -0.637,-0.167m25.008,37.829c-1.716,2.156 -3.676,4.05 -5.965,5.601c-0.042,0.527 -0.083,1.055 -0.118,1.498c2.437,0.152 4.796,0.343 7.158,0.427c1.051,0.038 2.1,-0.002 3.143,-0.417c2.41,-0.962 4.861,-1.825 7.315,-2.67c3.815,-1.315 7.628,-2.665 11.761,-2.493c0.167,0.007 0.339,-0.086 0.612,-0.161c-0.217,-1.22 -0.405,-2.399 -0.636,-3.57c-1.294,-6.553 -4.897,-11.433 -10.728,-14.655c-1.584,-0.876 -3.253,-1.667 -5.111,-1.617c-1.218,0.032 -2.027,-0.427 -2.672,-1.385c-0.414,-0.616 -0.959,-1.155 -1.312,-1.801c-0.7,-1.28 -1.797,-2.126 -2.975,-2.876c-3.404,-2.168 -8.382,-2.34 -11.268,1.153c-0.616,0.746 -1.102,1.655 -1.852,2.217c-0.782,0.586 -1.81,0.844 -2.863,1.304c1.25,0.41 1.25,0.41 0.995,1.352c-0.388,0.033 -0.78,0.067 -1.172,0.1c0.533,0.653 1.154,1.094 1.815,1.462c0.526,0.293 0.773,0.647 0.903,1.274c0.282,1.364 0.764,2.682 1.77,3.724c1.054,1.091 1.141,1.557 0.485,3.012c-0.343,0.761 -0.745,1.497 -1.089,2.258c-0.161,0.356 -0.249,0.746 -0.419,1.27c1.364,-0.886 1.364,-0.886 2.177,-0.627c-0.256,1.449 -0.644,2.885 -0.729,4.338c-0.084,1.432 -0.286,2.932 0.307,4.225c1.927,-0.625 3.75,-1.151 5.524,-1.809c1.755,-0.652 3.461,-1.438 5.427,-2.266c-0.188,0.496 -0.279,0.734 -0.483,1.132m-109.954,-50.235c-1.56,2.14 -3.122,4.278 -4.678,6.421c-2.44,3.361 -4.242,7.093 -6.23,10.716c-0.176,0.32 -0.288,0.688 -0.365,1.047c-0.2,0.937 -0.025,1.727 0.863,2.291c0.98,0.622 1.896,1.345 2.879,1.963c0.574,0.361 1.224,0.601 1.846,0.898c0.892,-1.592 1.638,-3.089 2.535,-4.489c3.708,-5.795 7.452,-11.57 11.871,-16.862c2.597,-3.11 5.401,-5.989 8.761,-8.332c3.868,-2.696 8.027,-4.852 12.183,-7.029c0.55,-0.288 1.088,-0.598 1.668,-0.917c-1.446,-1.28 -2.788,-2.424 -4.072,-3.63c-0.462,-0.434 -0.903,-0.969 -1.142,-1.546c-0.569,-1.373 -1.067,-2.786 -0.814,-4.329c0.023,-0.139 -0.069,-0.296 -0.118,-0.485c-2.517,2.299 -4.959,4.507 -7.377,6.742c-2.081,1.925 -4.074,3.949 -6.214,5.805c-4.12,3.573 -7.941,7.43 -11.596,11.736m-44.281,66.365c-0.639,-0.446 -1.222,-1.057 -1.93,-1.3c-1.266,-0.434 -2.593,-0.763 -3.92,-0.927c-3.496,-0.434 -6.313,0.992 -8.352,3.709c-0.945,1.257 -1.379,2.907 -1.995,4.399c-0.443,1.075 -0.331,2.193 -0.011,3.278c1.18,4.008 5.65,6.057 9.665,4.371c2.807,-1.179 5.087,-3.057 6.702,-5.661c1.586,-2.558 1.681,-5.145 -0.159,-7.869m81.669,-97.086c2.886,2.926 4.988,6.321 6.145,10.28c0.217,0.742 0.403,1.492 0.58,2.151c1.355,0 2.558,-0.003 3.761,0.001c1.172,0.004 2.347,0.177 3.659,0.095c-0.692,-1.138 -1.29,-2.07 -1.838,-3.031c-2.001,-3.51 -3.976,-7.034 -5.985,-10.539c-0.38,-0.664 -0.871,-1.266 -1.328,-1.92c-1.929,0.867 -3.691,1.659 -5.613,2.523c0.231,0.154 0.346,0.231 0.619,0.44m48.448,39.082c0.788,-0.653 0.12,-1.395 0.245,-2.17c-0.989,-0.086 -1.866,-0.162 -3.076,-0.266c0.955,1.062 1.632,1.892 2.831,2.436Z" style="fill:#412a1d;fill-rule:nonzero;"/><path d="M260.027,74.996c-0.664,0.939 -1.218,1.986 -2.013,2.797c-2.537,2.591 -5.152,5.107 -7.761,7.626c-0.768,0.741 -1.613,1.401 -2.428,2.093c-0.725,0.616 -1.543,0.995 -2.507,1.109c-1.338,0.157 -2.355,0.759 -3.265,1.862c-2.245,2.72 -4.486,5.466 -7.3,7.659c-0.274,0.213 -0.492,0.714 -0.462,1.057c0.067,0.774 0.167,1.601 0.502,2.284c0.941,1.92 1.38,3.971 1.447,6.049c0.091,2.802 0.979,5.363 1.89,7.943c0.226,0.642 0.41,1.3 0.613,1.95c-0.085,0.056 -0.171,0.111 -0.256,0.167c-0.614,-0.656 -1.203,-1.336 -1.847,-1.961c-0.601,-0.582 -1.051,-1.458 -2.314,-1.281c0.08,0.659 0.042,1.325 0.251,1.902c1.03,2.842 1.112,5.823 1.373,8.776c0.119,1.342 0.119,2.693 0.191,4.04c0.103,1.924 0.553,3.765 1.372,5.514c0.211,0.452 0.402,0.913 0.75,1.71c-0.735,-0.327 -1.171,-0.505 -1.594,-0.71c-4.855,-2.345 -9.696,-4.722 -14.568,-7.031c-2.36,-1.119 -4.812,-2.079 -7.466,-2.095c-1.943,-0.011 -3.89,0.212 -5.831,0.382c-0.267,0.024 -0.563,0.304 -0.749,0.541c-0.329,0.42 -0.127,0.864 0.398,0.861c0.458,-0.002 0.927,-0.097 1.371,-0.219c3.67,-1.01 7.167,-0.391 10.614,1.016c5.519,2.253 10.795,5.012 16.072,7.756c2.049,1.065 4.004,2.399 5.781,3.876c2.16,1.795 4.594,2.293 7.254,2.277c0.229,-0.001 0.457,-0.009 0.686,-0.006c0.043,-0 0.086,0.031 0.334,0.13c0.046,1.566 0.101,3.222 0.14,4.878c0.015,0.603 -0.054,1.212 -0,1.812c0.08,0.899 0.487,1.231 1.395,1.144c1.043,-0.1 2.003,-0.466 2.761,-1.206c0.763,-0.745 1.475,-1.543 2.196,-2.33c0.364,-0.398 0.697,-0.823 1.226,-1.452c0.272,0.909 0.469,1.55 0.654,2.196c0.128,0.446 0.187,0.919 0.37,1.34c0.402,0.921 1.164,1.179 1.892,0.517c2.197,-2.001 4.355,-4.048 6.469,-6.138c0.761,-0.752 0.68,-1.11 -0.043,-1.899c-0.183,-0.2 -0.404,-0.363 -0.725,-0.647c2.017,-1.594 3.931,-3.107 5.97,-4.718c-0.313,-0.391 -0.548,-0.71 -0.809,-1.004c-0.493,-0.556 -1.025,-1.079 -1.496,-1.651c-0.37,-0.449 -0.491,-0.923 -0.224,-1.541c0.496,-1.145 0.354,-1.726 -0.723,-2.481c-1.365,-0.958 -2.765,-1.896 -4.251,-2.641c-1.94,-0.973 -3.978,-1.749 -6.053,-2.645c0.14,-0.184 0.264,-0.429 0.458,-0.589c2.626,-2.174 5.466,-4.02 8.555,-5.464c0.529,-0.247 1.155,-0.371 1.743,-0.393c1.868,-0.071 3.563,-0.587 5.081,-1.693c0.246,-0.18 0.562,-0.265 0.974,-0.452c-0.135,1.182 -0.509,2.4 1.259,2.45c-0.471,1.697 -1.672,2.304 -3.064,2.631c-0.811,0.191 -1.658,0.229 -2.475,0.399c-0.35,0.073 -0.666,0.306 -0.997,0.466c0.022,0.09 0.044,0.181 0.066,0.271c0.249,0.056 0.501,0.169 0.748,0.159c1.857,-0.069 3.651,-0.251 5.358,-1.204c0.822,-0.46 1.965,-0.5 2.956,-0.471c2.315,0.069 4.624,0.342 6.94,0.43c0.813,0.031 1.675,-0.124 2.449,-0.387c3.212,-1.095 6.387,-2.298 9.598,-3.394c2.828,-0.965 5.72,-1.598 8.746,-1.549c1.428,0.023 2.859,-0.174 4.467,-0.283c-0.028,0.403 0.064,0.849 -0.1,1.16c-0.953,1.808 -2.265,3.163 -4.468,3.334c-1.25,0.096 -2.495,0.268 -3.742,0.402c-1.013,0.109 -1.538,0.414 -1.633,1.375c-0.239,2.406 -1.668,3.954 -3.489,5.283c-1.112,0.812 -1.989,1.733 -2.131,3.253c-0.064,0.677 -0.556,1.363 -0.987,1.948c-1.018,1.384 -2.146,2.688 -3.176,4.065c-1.826,2.442 -2.341,5.172 -1.757,8.157c0.148,0.754 0.084,1.559 0.05,2.338c-0.067,1.524 -0.164,3.048 -0.279,4.57c-0.179,2.375 -0.721,4.69 -1.711,6.836c-1.36,2.946 -2.867,5.828 -4.396,8.691c-3.587,6.718 -7.211,13.417 -10.847,20.109c-3.28,6.039 -6.575,12.069 -9.906,18.079c-1.101,1.987 -2.333,3.901 -3.595,5.997c-1.043,-0.788 -2.033,-1.449 -2.924,-2.223c-2.738,-2.379 -5.522,-4.714 -8.127,-7.232c-2.203,-2.128 -4.181,-4.487 -6.259,-6.744c-0.409,-0.444 -0.783,-0.93 -1.237,-1.322c-0.795,-0.684 -1.302,-0.483 -1.517,0.557c-0.564,2.725 -1.115,5.453 -1.686,8.177c-0.923,4.404 -1.857,8.805 -2.789,13.206c-0.026,0.124 -0.085,0.242 -0.21,0.593c-0.386,-0.503 -0.704,-0.864 -0.962,-1.263c-1.911,-2.973 -3.843,-5.932 -5.705,-8.935c-3.578,-5.767 -7.12,-11.557 -10.66,-17.348c-0.435,-0.711 -0.772,-1.482 -1.149,-2.228c-0.226,-0.447 -0.556,-0.87 -1.066,-0.618c-0.29,0.143 -0.577,0.629 -0.577,0.961c0.002,1.434 0.097,2.868 0.186,4.301c0.057,0.923 0.148,1.846 0.247,2.766c0.212,1.971 0.439,3.941 0.668,5.974c-0.156,-0.071 -0.311,-0.09 -0.363,-0.174c-2.637,-4.233 -4.918,-8.645 -6.328,-13.444c-0.995,-3.386 -1.82,-6.822 -2.713,-10.238c-0.114,-0.438 -0.062,-0.969 -0.64,-1.125c-0.645,-0.173 -1.018,0.181 -1.379,0.675c-0.483,0.661 -1.051,1.262 -1.826,1.791c0.189,-0.869 0.398,-1.735 0.561,-2.609c0.245,-1.317 0.484,-2.636 0.677,-3.961c0.134,-0.916 -0.145,-1.758 -0.713,-2.48c-0.937,-1.191 -1.333,-2.523 -1.204,-4.032c0.059,-0.694 0.061,-1.394 0.056,-2.091c-0.008,-1.116 -0.184,-1.394 -1.293,-1.644c-1.264,-0.285 -2.544,-0.537 -3.831,-0.671c-2.303,-0.239 -4.614,-0.44 -6.927,-0.537c-1.291,-0.054 -2.592,0.133 -3.889,0.215c-0.138,0.008 -0.321,-0.014 -0.406,0.063c-0.251,0.228 -0.648,0.495 -0.653,0.753c-0.011,0.54 0.479,0.576 0.925,0.553c1.342,-0.068 2.684,-0.179 4.027,-0.182c3.391,-0.009 6.712,0.634 10.045,1.152c0.171,0.027 0.325,0.161 0.507,0.255c0,1.266 0.036,2.518 -0.011,3.766c-0.037,0.978 0.137,1.963 0.785,2.607c1.345,1.337 1.095,2.859 0.791,4.41c-0.409,2.088 -0.92,4.157 -1.326,6.246c-0.202,1.039 -0.302,2.103 -0.373,3.16c-0.017,0.263 0.228,0.747 0.403,0.771c0.292,0.041 0.751,-0.118 0.914,-0.35c0.424,-0.603 0.737,-1.286 1.073,-1.947c0.602,-1.189 1.213,-2.368 2.327,-3.424c0.637,2.308 1.26,4.469 1.83,6.643c1.665,6.355 4.362,12.232 8.083,17.643c0.368,0.535 0.67,1.115 1.015,1.665c0.197,0.313 0.371,0.672 0.649,0.892c0.22,0.174 0.634,0.296 0.867,0.203c0.236,-0.093 0.496,-0.479 0.496,-0.737c-0,-0.547 -0.179,-1.092 -0.254,-1.642c-0.523,-3.817 -1.04,-7.635 -1.551,-11.454c-0.036,-0.268 -0.005,-0.545 -0.005,-0.893c0.614,0.088 0.726,0.588 0.96,0.942c2.156,3.264 3.867,6.774 5.64,10.249c3.208,6.288 7.302,11.971 11.856,17.338c0.189,0.224 0.597,0.565 0.698,0.505c0.324,-0.192 0.702,-0.507 0.792,-0.846c0.44,-1.655 0.82,-3.327 1.172,-5.004c0.988,-4.713 1.953,-9.43 2.922,-14.146c0.186,-0.906 0.343,-1.818 0.538,-2.857c1.332,1.541 2.504,3.099 3.886,4.441c1.474,1.433 2.201,3.075 2.467,5.089c0.24,1.823 0.812,3.601 1.211,5.404c0.767,3.469 1.63,6.923 2.223,10.422c0.304,1.797 0.602,3.642 0.237,5.525c-0.271,1.399 -0.212,2.858 -0.361,4.284c-0.334,3.214 -0.686,6.425 -1.068,9.633c-1.052,8.837 -3.798,17.251 -6.542,25.652c-1.079,3.302 -2.499,6.497 -4.366,9.468c-1.359,2.163 -2.61,4.393 -3.957,6.564c-1.301,2.094 -2.692,4.129 -4.539,5.8c-0.471,0.427 -0.648,0.981 -0.331,1.503c0.774,1.279 0.838,2.703 0.946,4.113c0.146,1.897 0.328,3.802 0.289,5.7c-0.042,2.076 -0.402,4.144 -0.466,6.22c-0.05,1.638 -0.293,3.23 -0.675,4.806c-0.628,2.586 -1.633,5.039 -2.977,7.322c-1.793,3.046 -3.748,5.985 -6.246,8.531c-1.856,1.891 -3.643,3.849 -5.434,5.803c-0.498,0.543 -0.979,1.134 -1.327,1.778c-0.671,1.241 -0.653,2.544 0.204,3.682c0.807,1.069 1.656,2.15 2.666,3.016c2.575,2.207 5.238,4.313 7.89,6.429c1.49,1.188 2.988,2.374 4.558,3.451c1.181,0.81 2.453,1.503 3.737,2.143c1.186,0.59 2.29,1.276 3.091,2.325c1.497,1.957 2.932,3.961 4.383,5.952c0.15,0.206 0.232,0.461 0.443,0.89c-0.856,0 -1.531,0.011 -2.206,-0.002c-2.88,-0.055 -5.76,-0.183 -8.639,-0.163c-4.6,0.031 -9.199,0.175 -13.798,0.241c-7.253,0.105 -14.506,0.173 -21.759,0.281c-1.948,0.029 -3.894,0.217 -5.84,0.204c-3.111,-0.021 -6.227,-0.048 -9.328,-0.257c-3.417,-0.231 -6.817,-0.691 -10.228,-1.005c-1.341,-0.124 -2.695,-0.107 -4.041,-0.18c-4.08,-0.223 -8.156,-0.573 -12.249,-0.449c-0.231,0.007 -0.465,-0.022 -0.695,-0.055c-1.906,-0.274 -2.586,-0.973 -2.714,-2.903c-0.155,-2.322 0.07,-4.626 0.404,-6.924c0.153,-1.054 0.234,-2.117 0.352,-3.176c0.447,-4.013 0.917,-8.023 1.336,-12.039c0.367,-3.518 1.047,-6.97 1.885,-10.405c0.387,-1.583 0.285,-3.256 -0.223,-4.818c-0.414,-1.275 -1.201,-2.426 -2.639,-2.624c-4.344,-0.599 -7.581,-3.126 -10.598,-5.997c-1.715,-1.631 -3.239,-3.461 -4.868,-5.183c-1.309,-1.385 -2.642,-2.746 -3.974,-4.108c-0.226,-0.23 -0.481,-0.452 -0.762,-0.604c-0.58,-0.314 -1.074,-0.131 -1.337,0.494c-0.396,0.942 -0.758,1.899 -1.132,2.85c-0.931,2.361 -2.453,4.256 -4.525,5.709c-1.843,1.291 -3.868,1.967 -6.149,1.866c-6.325,-0.28 -12.188,-1.921 -17.3,-5.797c-1.623,-1.23 -3.057,-2.637 -3.268,-4.808c-0.075,-0.766 -0.01,-1.582 0.177,-2.329c0.446,-1.78 1.335,-3.365 2.434,-4.827c2.417,-3.215 5.173,-6.105 8.392,-8.521c1.261,-0.946 2.653,-1.714 3.956,-2.606c2.683,-1.837 5.384,-3.652 7.999,-5.583c1.071,-0.791 1.956,-1.843 2.881,-2.818c0.233,-0.245 0.411,-0.652 0.414,-0.987c0.011,-1.112 -0.044,-2.228 -0.123,-3.338c-0.061,-0.854 -0.575,-1.524 -0.987,-2.246c-2.052,-3.595 -2.163,-7.315 -0.591,-11.11c0.586,-1.415 1.192,-2.823 1.82,-4.22c0.492,-1.093 0.696,-2.124 0.186,-3.327c-1.14,-2.688 -2.147,-5.433 -3.208,-8.154c-0.252,-0.649 -0.546,-1.285 -0.746,-1.949c-1.319,-4.392 -2.475,-8.811 -3.141,-13.37c-0.95,-6.493 -1.391,-13.01 -1.429,-19.559c-0.015,-2.694 0.14,-5.39 0.268,-8.083c0.084,-1.758 1.021,-3.258 1.679,-4.824c0.737,-1.752 1.691,-3.413 2.538,-5.119c1.61,-3.244 3.194,-6.501 4.822,-9.737c2.085,-4.144 4.186,-8.281 6.31,-12.405c2.533,-4.918 4.803,-9.952 6.834,-15.097c0.767,-1.945 1.604,-3.848 2.787,-5.597c2.746,-4.061 3.841,-8.734 4.755,-13.444c0.717,-3.703 1.621,-7.345 2.938,-10.881c0.615,-1.651 1.2,-3.313 1.804,-4.968c1.109,-3.038 2.823,-5.744 4.626,-8.4c2.663,-3.924 5.135,-7.956 7.188,-12.24c0.763,-1.59 1.671,-3.11 2.481,-4.679c0.451,-0.871 1.088,-1.506 2.029,-1.79c1.735,-0.523 3.132,-1.593 4.427,-2.79c0.5,-0.462 0.859,-1.092 1.221,-1.684c2.739,-4.478 5.292,-9.082 8.237,-13.419c3.454,-5.087 7.447,-9.764 12.367,-13.544c2.923,-2.245 6.131,-4.035 9.401,-5.715c1.446,-0.743 2.926,-1.425 4.334,-2.233c0.794,-0.457 1.521,-1.063 2.189,-1.696c0.747,-0.709 0.638,-1.423 -0.31,-1.864c-1.512,-0.703 -2.635,-1.88 -3.891,-2.908c-1.871,-1.532 -2.228,-3.567 -2.034,-5.781c0.206,-2.35 1.202,-4.368 2.794,-6.099c1.085,-1.179 2.012,-1.432 3.495,-0.826c1.435,0.585 2.737,1.409 3.752,2.598c2.477,2.903 4.396,6.105 5.193,9.896c0.355,1.691 0.569,1.933 2.297,1.982c2.136,0.061 4.298,0.156 6.41,-0.091c2.201,-0.258 3.579,0.644 4.847,2.271c2.032,2.608 4.645,4.53 7.644,5.922c0.716,0.332 1.411,0.73 2.155,0.977c1.492,0.495 2.08,1.62 2.27,3.044c0.239,1.796 0.441,3.598 0.662,5.397c0.137,1.107 0.238,2.221 0.43,3.319c0.356,2.04 1.119,2.739 3.17,2.781c1.803,0.036 3.61,-0.062 5.415,-0.097c0.409,-0.007 0.818,-0.001 1.283,-0.001c-0,0.844 -0.016,1.619 0.004,2.393c0.032,1.292 0.169,1.426 1.411,1.6c0.643,0.09 1.279,0.23 1.922,0.326c0.527,0.079 0.972,0.207 1.185,0.796c0.223,0.618 0.782,0.55 1.484,0.58c0.24,0.13 0.299,0.174 0.357,0.217m-22.231,-4.334c1.056,-0.567 1.496,-1.444 1.392,-2.638c-0.152,-1.753 -0.23,-3.513 -0.416,-5.261c-0.092,-0.872 -0.316,-1.735 -0.548,-2.584c-0.234,-0.855 -0.751,-1.526 -1.679,-1.667c-0.891,-0.135 -1.556,0.395 -1.942,1.096c-0.37,0.671 -0.653,1.451 -0.735,2.208c-0.259,2.407 0.292,4.713 1.265,6.892c0.449,1.005 1.129,1.949 2.663,1.954Z" style="fill:#fefefe;fill-rule:nonzero;"/><path d="M125.845,117.862c-0.344,-3.044 -0.737,-6.084 -1.02,-9.134c-0.304,-3.285 -0.508,-6.579 -0.749,-9.87c-0.169,-2.316 -0.304,-4.636 -0.504,-6.95c-0.066,-0.756 0.351,-1.217 0.77,-1.711c1.439,-1.702 2.954,-3.345 4.305,-5.114c1.916,-2.508 3.739,-5.09 5.552,-7.674c2.135,-3.044 4.16,-6.167 6.336,-9.181c3.616,-5.009 7.358,-9.922 11.426,-14.581c3.485,-3.99 6.918,-8.025 10.387,-12.029c1.764,-2.035 3.474,-4.126 5.364,-6.039c1.529,-1.548 3.257,-2.907 4.957,-4.276c2.257,-1.817 4.956,-2.516 7.775,-2.752c6.634,-0.554 13.284,-0.618 19.931,-0.336c3.942,0.168 7.876,0.546 11.827,0.976c-0.986,0.377 -1.882,0.914 -3.055,0.499c-2.795,-0.989 -4.56,-0.53 -6.22,1.852c-3.009,4.319 -6.899,7.759 -10.731,11.285c-6.635,6.105 -13.415,12.078 -19.184,19.048c-3.712,4.485 -6.916,9.336 -9.608,14.507c-0.833,1.598 -1.487,3.289 -2.27,4.915c-0.165,0.341 -0.49,0.686 -0.828,0.848c-1.421,0.68 -2.832,1.424 -4.324,1.903c-6.666,2.143 -13.282,4.483 -20.139,5.941c-1.781,0.379 -2.574,1.138 -2.973,2.824c-1.09,4.603 -2.271,9.184 -3.483,13.756c-0.881,3.324 -1.867,6.62 -2.816,9.925c-0.111,0.389 -0.288,0.758 -0.509,1.256c-0.122,0.117 -0.169,0.115 -0.217,0.112Z" style="fill:#fdfdfd;fill-rule:nonzero;"/><path d="M284.553,112.442c0.147,-0.319 0.238,-0.557 0.426,-1.053c-1.966,0.828 -3.672,1.614 -5.427,2.266c-1.774,0.658 -3.597,1.184 -5.524,1.809c-0.593,-1.293 -0.391,-2.793 -0.307,-4.225c0.085,-1.453 0.473,-2.889 0.729,-4.338c-0.813,-0.259 -0.813,-0.259 -2.177,0.627c0.17,-0.524 0.258,-0.914 0.419,-1.27c0.344,-0.761 0.746,-1.497 1.089,-2.258c0.656,-1.455 0.569,-1.921 -0.485,-3.012c-1.006,-1.042 -1.488,-2.36 -1.77,-3.724c-0.13,-0.627 -0.377,-0.981 -0.903,-1.274c-0.661,-0.368 -1.282,-0.809 -1.815,-1.462c0.392,-0.033 0.784,-0.067 1.172,-0.1c0.255,-0.942 0.255,-0.942 -0.995,-1.352c1.053,-0.46 2.081,-0.718 2.863,-1.304c0.75,-0.562 1.236,-1.471 1.852,-2.217c2.886,-3.493 7.864,-3.321 11.268,-1.153c1.178,0.75 2.275,1.596 2.975,2.876c0.353,0.646 0.898,1.185 1.312,1.801c0.645,0.958 1.454,1.417 2.672,1.385c1.858,-0.05 3.527,0.741 5.111,1.617c5.831,3.222 9.434,8.102 10.728,14.655c0.231,1.171 0.419,2.35 0.636,3.57c-0.273,0.075 -0.445,0.168 -0.612,0.161c-4.133,-0.172 -7.946,1.178 -11.761,2.493c-2.454,0.845 -4.905,1.708 -7.315,2.67c-1.043,0.415 -2.092,0.455 -3.143,0.417c-2.362,-0.084 -4.721,-0.275 -7.158,-0.427c0.035,-0.443 0.076,-0.971 0.118,-1.498c2.289,-1.551 4.249,-3.445 6.022,-5.68m6.856,-1.727c2.418,1.397 5.042,1.849 7.78,1.551c0.899,-0.097 1.774,-0.479 2.635,-0.797c0.176,-0.065 0.245,-0.423 0.363,-0.646c-0.073,-0.092 -0.145,-0.184 -0.217,-0.276c-1.325,0.595 -2.666,0.991 -4.129,0.921c-1.438,-0.068 -2.872,0.031 -4.21,-0.675c-1.253,-0.66 -2.538,-1.261 -4.096,-2.029c0.164,1.069 0.287,1.874 0.431,2.816c-1.862,-1.034 -3.361,-2.249 -4.487,-3.882c-0.632,-0.916 -1.192,-1.881 -1.789,-2.822c-0.213,-0.336 -0.329,-0.812 -1.046,-0.641c0.062,0.335 0.054,0.71 0.2,1.01c0.986,2.02 2.207,3.873 3.94,5.346c1.214,1.032 2.549,1.866 4.051,2.399c0.287,0.102 0.64,0.015 1.196,0.015c-0.439,-0.842 -0.753,-1.443 -0.936,-2.186c0.039,-0.051 0.078,-0.102 0.314,-0.104m-13.547,-16.008c0.462,-1.105 1.046,-2.179 1.338,-3.327c0.166,-0.654 0.004,-1.494 -0.275,-2.135c-0.492,-1.134 -1.44,-1.252 -2.35,-0.412c-1.58,1.46 -2.274,3.369 -2.496,5.43c-0.06,0.55 0.27,1.365 0.699,1.688c0.518,0.389 1.342,0.339 1.953,-0.13c0.364,-0.278 0.67,-0.632 1.131,-1.114Z" style="fill:#fcfcfc;fill-rule:nonzero;"/><path d="M174.606,62.211c3.591,-4.231 7.412,-8.088 11.532,-11.661c2.14,-1.856 4.133,-3.88 6.214,-5.805c2.418,-2.235 4.86,-4.443 7.377,-6.742c0.049,0.189 0.141,0.346 0.118,0.485c-0.253,1.543 0.245,2.956 0.814,4.329c0.239,0.577 0.68,1.112 1.142,1.546c1.284,1.206 2.626,2.35 4.072,3.63c-0.58,0.319 -1.118,0.629 -1.668,0.917c-4.156,2.177 -8.315,4.333 -12.183,7.029c-3.36,2.343 -6.164,5.222 -8.761,8.332c-4.419,5.292 -8.163,11.067 -11.871,16.862c-0.897,1.4 -1.643,2.897 -2.535,4.489c-0.622,-0.297 -1.272,-0.537 -1.846,-0.898c-0.983,-0.618 -1.899,-1.341 -2.879,-1.963c-0.888,-0.564 -1.063,-1.354 -0.863,-2.291c0.077,-0.359 0.189,-0.727 0.365,-1.047c1.988,-3.623 3.79,-7.355 6.23,-10.716c1.556,-2.143 3.118,-4.281 4.742,-6.496Z" style="fill:#fbfbfb;fill-rule:nonzero;"/><path d="M130.324,128.732c1.777,2.643 1.682,5.23 0.096,7.788c-1.615,2.604 -3.895,4.482 -6.702,5.661c-4.015,1.686 -8.485,-0.363 -9.665,-4.371c-0.32,-1.085 -0.432,-2.203 0.011,-3.278c0.616,-1.492 1.05,-3.142 1.995,-4.399c2.039,-2.717 4.856,-4.143 8.352,-3.709c1.327,0.164 2.654,0.493 3.92,0.927c0.708,0.243 1.291,0.854 1.993,1.381Z" style="fill:#fbfcfb;fill-rule:nonzero;"/><path d="M211.851,31.499c-0.194,-0.143 -0.309,-0.22 -0.54,-0.374c1.922,-0.864 3.684,-1.656 5.613,-2.523c0.457,0.654 0.948,1.256 1.328,1.92c2.009,3.505 3.984,7.029 5.985,10.539c0.548,0.961 1.146,1.893 1.838,3.031c-1.312,0.082 -2.487,-0.091 -3.659,-0.095c-1.203,-0.004 -2.406,-0.001 -3.761,-0.001c-0.177,-0.659 -0.363,-1.409 -0.58,-2.151c-1.157,-3.959 -3.259,-7.354 -6.224,-10.346Z" style="fill:#f8f8f7;fill-rule:nonzero;"/><path d="M260.265,70.639c-1.086,-0.536 -1.763,-1.366 -2.718,-2.428c1.21,0.104 2.087,0.18 3.076,0.266c-0.125,0.775 0.543,1.517 -0.358,2.162Z" style="fill:#e3e0dd;fill-rule:nonzero;"/><path d="M125.818,117.974c0.075,-0.109 0.122,-0.107 0.239,-0.114c0.071,0.618 0.071,1.245 0.071,1.872c-0.076,0.001 -0.152,0.002 -0.228,0.003c-0.036,-0.55 -0.073,-1.099 -0.082,-1.761Z" style="fill:#cfa193;fill-rule:nonzero;"/><path d="M259.769,74.793c0.064,-0.027 0.21,0.02 0.307,0.135c-0.107,0.025 -0.166,-0.019 -0.307,-0.135Z" style="fill:#fefefe;fill-rule:nonzero;"/><path d="M237.688,70.68c-1.426,-0.023 -2.106,-0.967 -2.555,-1.972c-0.973,-2.179 -1.524,-4.485 -1.265,-6.892c0.082,-0.757 0.365,-1.537 0.735,-2.208c0.386,-0.701 1.051,-1.231 1.942,-1.096c0.928,0.141 1.445,0.812 1.679,1.667c0.232,0.849 0.456,1.712 0.548,2.584c0.186,1.748 0.264,3.508 0.416,5.261c0.104,1.194 -0.336,2.071 -1.5,2.656m-2.127,-10.036c-0.181,1.13 -0.595,2.259 -0.136,3.411c0.604,-0.929 1.168,-1.797 1.869,-2.876c-0.172,-0.318 -0.459,-0.849 -0.814,-1.507c-0.376,0.357 -0.599,0.569 -0.919,0.972Z" style="fill:#402c1f;fill-rule:nonzero;"/><path d="M290.965,110.961c0.313,0.601 0.627,1.202 1.066,2.044c-0.556,-0 -0.909,0.087 -1.196,-0.015c-1.502,-0.533 -2.837,-1.367 -4.051,-2.399c-1.733,-1.473 -2.954,-3.326 -3.94,-5.346c-0.146,-0.3 -0.138,-0.675 -0.2,-1.01c0.717,-0.171 0.833,0.305 1.046,0.641c0.597,0.941 1.157,1.906 1.789,2.822c1.126,1.633 2.625,2.848 4.487,3.882c-0.144,-0.942 -0.267,-1.747 -0.431,-2.816c1.558,0.768 2.843,1.369 4.096,2.029c1.338,0.706 2.772,0.607 4.21,0.675c1.463,0.07 2.804,-0.326 4.129,-0.921c0.072,0.092 0.144,0.184 0.217,0.276c-0.118,0.223 -0.187,0.581 -0.363,0.646c-0.861,0.318 -1.736,0.7 -2.635,0.797c-2.738,0.298 -5.362,-0.154 -7.949,-1.622c-0.204,0.059 -0.24,0.188 -0.275,0.317Z" style="fill:#4c392d;fill-rule:nonzero;"/><path d="M277.797,94.788c-0.396,0.401 -0.702,0.755 -1.066,1.033c-0.611,0.469 -1.435,0.519 -1.953,0.13c-0.429,-0.323 -0.759,-1.138 -0.699,-1.688c0.222,-2.061 0.916,-3.97 2.496,-5.43c0.91,-0.84 1.858,-0.722 2.35,0.412c0.279,0.641 0.441,1.481 0.275,2.135c-0.292,1.148 -0.876,2.222 -1.403,3.408m-0.097,-4.62c-0.493,1.212 -0.979,2.431 -2.445,2.716c-0.327,1.58 -0.327,1.58 0.145,2.454c1.536,-0.297 2.05,-1.556 2.552,-2.788c0.714,-1.752 0.694,-2.071 0.029,-2.923c-0.072,0.121 -0.142,0.239 -0.281,0.541Z" style="fill:#473428;fill-rule:nonzero;"/><path d="M235.61,60.548c0.271,-0.307 0.494,-0.519 0.87,-0.876c0.355,0.658 0.642,1.189 0.814,1.507c-0.701,1.079 -1.265,1.947 -1.869,2.876c-0.459,-1.152 -0.045,-2.281 0.185,-3.507Z" style="fill:#e3e0dd;fill-rule:nonzero;"/><path d="M291.03,110.89c-0.03,-0.058 0.006,-0.187 0.112,-0.27c0.031,0.097 -0.008,0.148 -0.112,0.27Z" style="fill:#fcfcfc;fill-rule:nonzero;"/><path d="M277.734,90.076c0.105,-0.21 0.175,-0.328 0.247,-0.449c0.665,0.852 0.685,1.171 -0.029,2.923c-0.502,1.232 -1.016,2.491 -2.552,2.788c-0.472,-0.874 -0.472,-0.874 -0.145,-2.454c1.466,-0.285 1.952,-1.504 2.479,-2.808Z" style="fill:#f9f3f2;fill-rule:nonzero;"/></svg>